<svg width="491" height="490" viewBox="0 0 491 490" fill="none" xmlns="http://www.w3.org/2000/svg">
<path opacity="0.5" d="M483.3 275.21C479.335 275.21 476.122 271.997 476.122 268.032V221.976C476.122 218.011 479.335 214.798 483.3 214.798C487.265 214.798 490.478 218.011 490.478 221.976V268.032C490.478 271.994 487.265 275.21 483.3 275.21Z" fill="url(#paint0_linear_104_273)"/>
<path opacity="0.5" d="M453.573 322.029C449.608 322.029 446.395 318.815 446.395 314.851V175.154C446.395 171.189 449.608 167.976 453.573 167.976C457.537 167.976 460.751 171.189 460.751 175.154V314.853C460.751 318.815 457.537 322.029 453.573 322.029Z" fill="url(#paint1_linear_104_273)"/>
<path opacity="0.5" d="M423.845 306.397C419.88 306.397 416.667 303.184 416.667 299.219V190.784C416.667 186.819 419.88 183.606 423.845 183.606C427.81 183.606 431.023 186.819 431.023 190.784V299.219C431.023 303.184 427.81 306.397 423.845 306.397Z" fill="url(#paint2_linear_104_273)"/>
<path opacity="0.5" d="M394.117 354.589C390.153 354.589 386.939 351.376 386.939 347.411V142.592C386.939 138.627 390.153 135.414 394.117 135.414C398.082 135.414 401.295 138.627 401.295 142.592V347.411C401.295 351.376 398.082 354.589 394.117 354.589Z" fill="url(#paint3_linear_104_273)"/>
<path opacity="0.5" d="M364.39 383.643C360.425 383.643 357.212 380.429 357.212 376.465V113.541C357.212 109.576 360.425 106.363 364.39 106.363C368.355 106.363 371.568 109.576 371.568 113.541V376.465C371.568 380.429 368.355 383.643 364.39 383.643Z" fill="url(#paint4_linear_104_273)"/>
<path opacity="0.5" d="M334.661 446.457C330.697 446.457 327.483 443.243 327.483 439.279V50.7244C327.483 46.7597 330.697 43.5464 334.661 43.5464C338.626 43.5464 341.839 46.7597 341.839 50.7244V439.279C341.839 443.24 338.626 446.457 334.661 446.457Z" fill="url(#paint5_linear_104_273)"/>
<path opacity="0.5" d="M304.934 426.837C300.969 426.837 297.756 423.624 297.756 419.659V70.343C297.756 66.3784 300.969 63.165 304.934 63.165C308.898 63.165 312.112 66.3784 312.112 70.343V419.659C312.112 423.624 308.898 426.837 304.934 426.837Z" fill="url(#paint6_linear_104_273)"/>
<path opacity="0.5" d="M275.206 467.51C271.242 467.51 268.028 464.297 268.028 460.332V29.6692C268.028 25.7046 271.242 22.4912 275.206 22.4912C279.171 22.4912 282.384 25.7046 282.384 29.6692V460.332C282.384 464.297 279.171 467.51 275.206 467.51Z" fill="url(#paint7_linear_104_273)"/>
<path opacity="0.5" d="M7.17798 275.209C3.21334 275.209 0 271.995 0 268.031V221.974C0 218.01 3.21334 214.796 7.17798 214.796C11.1426 214.796 14.356 218.01 14.356 221.974V268.031C14.356 271.992 11.1426 275.209 7.17798 275.209Z" fill="url(#paint8_linear_104_273)"/>
<path opacity="0.5" d="M36.9055 322.027C32.9409 322.027 29.7275 318.814 29.7275 314.849V175.153C29.7275 171.188 32.9409 167.975 36.9055 167.975C40.8702 167.975 44.0835 171.188 44.0835 175.153V314.852C44.0835 318.814 40.8702 322.027 36.9055 322.027Z" fill="url(#paint9_linear_104_273)"/>
<path opacity="0.5" d="M66.6331 306.397C62.6684 306.397 59.4551 303.184 59.4551 299.219V190.784C59.4551 186.819 62.6684 183.606 66.6331 183.606C70.5977 183.606 73.8111 186.819 73.8111 190.784V299.219C73.8111 303.184 70.5977 306.397 66.6331 306.397Z" fill="url(#paint10_linear_104_273)"/>
<path opacity="0.5" d="M96.3616 354.589C92.3969 354.589 89.1836 351.376 89.1836 347.411V142.592C89.1836 138.627 92.3969 135.414 96.3616 135.414C100.326 135.414 103.54 138.627 103.54 142.592V347.411C103.54 351.376 100.326 354.589 96.3616 354.589Z" fill="url(#paint11_linear_104_273)"/>
<path opacity="0.5" d="M126.089 383.641C122.124 383.641 118.911 380.427 118.911 376.463V113.539C118.911 109.574 122.124 106.361 126.089 106.361C130.054 106.361 133.267 109.574 133.267 113.539V376.463C133.267 380.427 130.054 383.641 126.089 383.641Z" fill="url(#paint12_linear_104_273)"/>
<path opacity="0.5" d="M155.817 446.457C151.852 446.457 148.639 443.243 148.639 439.279V50.7244C148.639 46.7597 151.852 43.5464 155.817 43.5464C159.781 43.5464 162.995 46.7597 162.995 50.7244V439.279C162.995 443.24 159.781 446.457 155.817 446.457Z" fill="url(#paint13_linear_104_273)"/>
<path opacity="0.5" d="M185.544 426.837C181.58 426.837 178.366 423.624 178.366 419.659V70.343C178.366 66.3784 181.58 63.165 185.544 63.165C189.509 63.165 192.722 66.3784 192.722 70.343V419.659C192.722 423.624 189.509 426.837 185.544 426.837Z" fill="url(#paint14_linear_104_273)"/>
<path opacity="0.5" d="M215.272 467.51C211.307 467.51 208.094 464.297 208.094 460.332V29.6692C208.094 25.7046 211.307 22.4912 215.272 22.4912C219.236 22.4912 222.45 25.7046 222.45 29.6692V460.332C222.45 464.297 219.236 467.51 215.272 467.51Z" fill="url(#paint15_linear_104_273)"/>
<path opacity="0.5" d="M245 490C241.036 490 237.822 486.787 237.822 482.822V7.178C237.822 3.21336 241.036 0 245 0C248.965 0 252.178 3.21336 252.178 7.178V482.822C252.178 486.787 248.965 490 245 490Z" fill="url(#paint16_linear_104_273)"/>
<path d="M243.773 138.906C301.777 138.14 349.419 184.542 350.185 242.546C350.951 300.55 304.55 348.192 246.546 348.958C188.541 349.724 140.899 303.323 140.133 245.319C139.367 187.315 185.768 139.672 243.773 138.906Z" fill="#001434" fill-opacity="0.6" stroke="#06B6D4" stroke-width="3"/>
<path d="M271.459 191.215C281.649 191.215 289.909 199.475 289.909 209.665V288.779C289.909 292.755 286.686 295.979 282.71 295.979C278.734 295.978 275.511 292.755 275.511 288.779V209.665C275.511 207.427 273.697 205.613 271.459 205.613C269.221 205.614 267.407 207.427 267.407 209.665V273.711C267.407 286.009 257.437 295.978 245.14 295.979C232.842 295.978 222.872 286.009 222.872 273.711V209.062C222.872 207.158 221.328 205.613 219.423 205.613C217.518 205.614 215.974 207.158 215.974 209.062V288.779C215.974 292.755 212.75 295.979 208.774 295.979C204.799 295.978 201.575 292.755 201.575 288.779V209.062C201.575 199.206 209.566 191.215 219.423 191.215C229.28 191.215 237.271 199.206 237.271 209.062V273.711C237.271 278.057 240.794 281.581 245.14 281.581C249.486 281.581 253.009 278.057 253.009 273.711V209.665C253.009 199.476 261.27 191.215 271.459 191.215ZM188.235 212.432C192.211 212.432 195.435 215.655 195.435 219.631V267.552C195.435 271.528 192.211 274.751 188.235 274.751C184.259 274.751 181.036 271.528 181.036 267.552V219.631C181.036 215.655 184.259 212.432 188.235 212.432ZM303.247 212.432C307.223 212.432 310.446 215.655 310.446 219.631V267.552C310.446 271.528 307.223 274.751 303.247 274.751C299.271 274.751 296.048 271.528 296.048 267.552V219.631C296.048 215.655 299.271 212.432 303.247 212.432ZM167.014 236.05C171.172 236.05 174.544 239.421 174.544 243.58C174.544 247.739 171.172 251.111 167.014 251.111C162.855 251.111 159.482 247.739 159.482 243.58C159.483 239.421 162.855 236.05 167.014 236.05ZM324.47 236.05C328.628 236.05 332 239.421 332 243.58C332 247.739 328.629 251.111 324.47 251.111C320.311 251.111 316.939 247.739 316.939 243.58C316.94 239.421 320.311 236.05 324.47 236.05Z" fill="url(#paint17_linear_104_273)"/>
<defs>
<linearGradient id="paint0_linear_104_273" x1="483.3" y1="214.798" x2="483.3" y2="275.21" gradientUnits="userSpaceOnUse">
<stop stop-color="#4E9CDB"/>
<stop offset="1" stop-color="#43E3E0"/>
</linearGradient>
<linearGradient id="paint1_linear_104_273" x1="453.573" y1="167.976" x2="453.573" y2="322.029" gradientUnits="userSpaceOnUse">
<stop stop-color="#4E9CDB"/>
<stop offset="1" stop-color="#43E3E0"/>
</linearGradient>
<linearGradient id="paint2_linear_104_273" x1="423.845" y1="183.606" x2="423.845" y2="306.397" gradientUnits="userSpaceOnUse">
<stop stop-color="#4E9CDB"/>
<stop offset="1" stop-color="#43E3E0"/>
</linearGradient>
<linearGradient id="paint3_linear_104_273" x1="394.117" y1="135.414" x2="394.117" y2="354.589" gradientUnits="userSpaceOnUse">
<stop stop-color="#4E9CDB"/>
<stop offset="1" stop-color="#43E3E0"/>
</linearGradient>
<linearGradient id="paint4_linear_104_273" x1="364.39" y1="106.363" x2="364.39" y2="383.643" gradientUnits="userSpaceOnUse">
<stop stop-color="#4E9CDB"/>
<stop offset="1" stop-color="#43E3E0"/>
</linearGradient>
<linearGradient id="paint5_linear_104_273" x1="334.661" y1="43.5464" x2="334.661" y2="446.457" gradientUnits="userSpaceOnUse">
<stop stop-color="#4E9CDB"/>
<stop offset="1" stop-color="#43E3E0"/>
</linearGradient>
<linearGradient id="paint6_linear_104_273" x1="304.934" y1="63.165" x2="304.934" y2="426.837" gradientUnits="userSpaceOnUse">
<stop stop-color="#4E9CDB"/>
<stop offset="1" stop-color="#43E3E0"/>
</linearGradient>
<linearGradient id="paint7_linear_104_273" x1="275.206" y1="22.4912" x2="275.206" y2="467.51" gradientUnits="userSpaceOnUse">
<stop stop-color="#4E9CDB"/>
<stop offset="1" stop-color="#43E3E0"/>
</linearGradient>
<linearGradient id="paint8_linear_104_273" x1="7.178" y1="214.796" x2="7.178" y2="275.209" gradientUnits="userSpaceOnUse">
<stop stop-color="#4E9CDB"/>
<stop offset="1" stop-color="#43E3E0"/>
</linearGradient>
<linearGradient id="paint9_linear_104_273" x1="36.9055" y1="167.975" x2="36.9055" y2="322.027" gradientUnits="userSpaceOnUse">
<stop stop-color="#4E9CDB"/>
<stop offset="1" stop-color="#43E3E0"/>
</linearGradient>
<linearGradient id="paint10_linear_104_273" x1="66.6331" y1="183.606" x2="66.6331" y2="306.397" gradientUnits="userSpaceOnUse">
<stop stop-color="#4E9CDB"/>
<stop offset="1" stop-color="#43E3E0"/>
</linearGradient>
<linearGradient id="paint11_linear_104_273" x1="96.3616" y1="135.414" x2="96.3616" y2="354.589" gradientUnits="userSpaceOnUse">
<stop stop-color="#4E9CDB"/>
<stop offset="1" stop-color="#43E3E0"/>
</linearGradient>
<linearGradient id="paint12_linear_104_273" x1="126.089" y1="106.361" x2="126.089" y2="383.641" gradientUnits="userSpaceOnUse">
<stop stop-color="#4E9CDB"/>
<stop offset="1" stop-color="#43E3E0"/>
</linearGradient>
<linearGradient id="paint13_linear_104_273" x1="155.817" y1="43.5464" x2="155.817" y2="446.457" gradientUnits="userSpaceOnUse">
<stop stop-color="#4E9CDB"/>
<stop offset="1" stop-color="#43E3E0"/>
</linearGradient>
<linearGradient id="paint14_linear_104_273" x1="185.544" y1="63.165" x2="185.544" y2="426.837" gradientUnits="userSpaceOnUse">
<stop stop-color="#4E9CDB"/>
<stop offset="1" stop-color="#43E3E0"/>
</linearGradient>
<linearGradient id="paint15_linear_104_273" x1="215.272" y1="22.4912" x2="215.272" y2="467.51" gradientUnits="userSpaceOnUse">
<stop stop-color="#4E9CDB"/>
<stop offset="1" stop-color="#43E3E0"/>
</linearGradient>
<linearGradient id="paint16_linear_104_273" x1="245" y1="0" x2="245" y2="490" gradientUnits="userSpaceOnUse">
<stop stop-color="#4E9CDB"/>
<stop offset="1" stop-color="#43E3E0"/>
</linearGradient>
<linearGradient id="paint17_linear_104_273" x1="332" y1="243.597" x2="159.482" y2="243.597" gradientUnits="userSpaceOnUse">
<stop stop-color="#3B82F6"/>
<stop offset="0.841346" stop-color="#06B6D4"/>
</linearGradient>
</defs>
</svg>
