<svg width="22" height="22" viewBox="0 0 22 22" fill="none" xmlns="http://www.w3.org/2000/svg">
<path fill-rule="evenodd" clip-rule="evenodd" d="M16.0883 7.46997C16.1683 8.05997 16.6683 8.50995 17.2483 8.50995C17.8383 8.50995 18.3283 8.05996 18.4083 7.45996C18.5383 6.38996 19.3883 5.53997 20.4583 5.40997C21.0483 5.32997 21.4983 4.84 21.4983 4.25C21.4983 3.66 21.0483 3.16997 20.4483 3.08997C19.3783 2.95997 18.5283 2.10998 18.3983 1.03998C18.3183 0.449978 17.8283 0 17.2383 0C16.6483 0 16.1583 0.449988 16.0783 1.04999C15.9383 2.11999 15.0983 2.96998 14.0283 3.09998C13.4383 3.17998 12.9883 3.66995 12.9883 4.25995C12.9883 4.84995 13.4383 5.33998 14.0383 5.41998C15.1083 5.54998 15.9583 6.39997 16.0883 7.46997ZM17.2483 6.12C16.8683 5.29999 16.2083 4.63995 15.3883 4.25995C16.2083 3.87995 16.8683 3.21996 17.2483 2.39996C17.6283 3.21996 18.2883 3.87995 19.1083 4.25995C18.2883 4.63995 17.6283 5.29999 17.2483 6.12ZM10.2495 21.5078H10.25H10.2505C14.6502 21.5078 16.8701 21.5078 18.48 20.1279C18.71 19.9279 18.92 19.7179 19.12 19.4879C20.5 17.8779 20.5 15.6678 20.5 11.2578C20.5 10.8478 20.16 10.5078 19.75 10.5078C19.34 10.5078 19 10.8478 19 11.2578C19 15.2978 19 17.3278 17.98 18.5178C17.84 18.6878 17.68 18.8479 17.51 18.9879C16.32 20.0078 14.2902 20.0078 10.2505 20.0078H10.25H10.2495C6.20983 20.0078 4.17995 20.0078 2.99 18.9879C2.82 18.8479 2.66 18.6878 2.52 18.5178C1.5 17.3278 1.5 15.2978 1.5 11.2578C1.5 7.21781 1.5 5.18786 2.52 3.99786C2.66 3.82786 2.82 3.66783 2.99 3.52783C4.18 2.50783 6.21 2.50781 10.25 2.50781C10.66 2.50781 11 2.16781 11 1.75781C11 1.34781 10.66 1.00781 10.25 1.00781C5.85 1.00781 3.63 1.00782 2.02 2.38782C1.79 2.58782 1.58 2.79783 1.38 3.02783C0 4.63783 0 6.85781 0 11.2578C0 15.6578 0 17.8779 1.38 19.4879C1.58 19.7179 1.79 19.9379 2.02 20.1279C3.62994 21.5078 5.83982 21.5078 10.2495 21.5078ZM7 12.7578C7 13.1678 7.34 13.5078 7.75 13.5078C8.16 13.5078 8.5 13.1678 8.5 12.7578V9.75781C8.5 9.34781 8.16 9.00781 7.75 9.00781C7.34 9.00781 7 9.34781 7 9.75781V12.7578ZM10.75 16.5078C10.34 16.5078 10 16.1678 10 15.7578V6.75781C10 6.34781 10.34 6.00781 10.75 6.00781C11.16 6.00781 11.5 6.34781 11.5 6.75781V15.7578C11.5 16.1678 11.16 16.5078 10.75 16.5078ZM13 13.7578C13 14.1678 13.34 14.5078 13.75 14.5078C14.16 14.5078 14.5 14.1678 14.5 13.7578V8.75781C14.5 8.34781 14.16 8.00781 13.75 8.00781C13.34 8.00781 13 8.34781 13 8.75781V13.7578ZM4.75 12.5078C4.34 12.5078 4 12.1678 4 11.7578V10.7578C4 10.3478 4.34 10.0078 4.75 10.0078C5.16 10.0078 5.5 10.3478 5.5 10.7578V11.7578C5.5 12.1678 5.16 12.5078 4.75 12.5078Z" fill="white"/>
</svg>
