<svg width="21" height="21" viewBox="0 0 21 21" fill="none" xmlns="http://www.w3.org/2000/svg">
<path fill-rule="evenodd" clip-rule="evenodd" d="M2.67157 2.67157C3.20461 2.13852 3.92757 1.82994 5.13789 1.66721C6.36979 1.50159 7.98963 1.5 10.25 1.5C12.5104 1.5 14.1302 1.50159 15.3621 1.66722C16.5724 1.82994 17.2954 2.13853 17.8285 2.67158C18.3615 3.20462 18.6701 3.92756 18.8328 5.13788C18.9984 6.36979 19 7.98962 19 10.25C19 12.5104 18.9984 14.1302 18.8328 15.3621C18.6701 16.5724 18.3615 17.2954 17.8285 17.8285C17.2954 18.3615 16.5725 18.6701 15.3621 18.8328C14.1302 18.9984 12.5104 19 10.25 19C7.98962 19 6.36979 18.9984 5.13788 18.8328C3.92756 18.6701 3.20462 18.3615 2.67158 17.8285C2.13853 17.2954 1.82994 16.5724 1.66722 15.3621C1.50159 14.1302 1.5 12.5104 1.5 10.25C1.5 7.98963 1.50159 6.3698 1.66722 5.1379C1.82994 3.92757 2.13853 3.20462 2.67157 2.67157ZM10.3072 0H10.1927C8.00208 -1.34128e-05 6.28142 -2.40803e-05 4.93802 0.180589C3.56136 0.365674 2.46911 0.752708 1.61091 1.61091C0.752713 2.46911 0.36568 3.56137 0.180593 4.93803C-2.39611e-05 6.28144 -1.33548e-05 8.00212 0 10.1928V10.3072C-1.33548e-05 12.4979 -2.39611e-05 14.2185 0.180593 15.562C0.365679 16.9386 0.752712 18.0309 1.6109 18.8891C2.4691 19.7474 3.56137 20.1344 4.93803 20.3195C6.28126 20.5 8.00165 20.5 10.1919 20.5H10.192H10.308H10.3081C12.4983 20.5 14.2187 20.5 15.562 20.3195C16.9387 20.1344 18.031 19.7474 18.8892 18.8891C19.7473 18.0309 20.1343 16.9386 20.3194 15.562C20.5 14.2185 20.5 12.4979 20.5 10.3072V10.3072V10.192V10.1919C20.5 8.00165 20.5 6.28126 20.3195 4.93803C20.1344 3.56137 19.7474 2.4691 18.8891 1.6109C18.0309 0.752712 16.9386 0.365679 15.562 0.180593C14.2185 -2.39611e-05 12.4979 -1.33532e-05 10.3072 0ZM14.9287 3.71401C14.9055 3.6995 14.8828 3.68614 14.8608 3.67392C14.6516 3.55745 14.3476 3.45221 14.0231 3.49354C14.0149 3.49458 14.0068 3.49575 13.9986 3.49706L12.1231 3.79892C11.7142 3.86474 11.436 4.24962 11.5018 4.65857C11.5677 5.06752 11.9525 5.34568 12.3615 5.27986L13.077 5.16469C10.1102 8.99694 6.16992 9.05115 4.26717 8.98775C3.85319 8.97396 3.5064 9.29838 3.49261 9.71237C3.47882 10.1263 3.80324 10.4731 4.21722 10.4869C6.27863 10.5556 10.9568 10.499 14.3817 5.92835L14.5426 6.45973C14.6626 6.85618 15.0812 7.08029 15.4777 6.9603C15.8741 6.84031 16.0982 6.42164 15.9782 6.02519L15.4823 4.38675C15.4771 4.36945 15.4713 4.35235 15.4648 4.33547C15.3546 4.04812 15.1396 3.85069 14.9511 3.72831C14.9437 3.72344 14.9363 3.71867 14.9287 3.71401ZM16 11.25C16 10.8358 15.6642 10.5 15.25 10.5C14.8358 10.5 14.5 10.8358 14.5 11.25V16.25C14.5 16.6642 14.8358 17 15.25 17C15.6642 17 16 16.6642 16 16.25V11.25ZM10.25 12.5C10.6642 12.5 11 12.8358 11 13.25V16.25C11 16.6642 10.6642 17 10.25 17C9.83579 17 9.5 16.6642 9.5 16.25V13.25C9.5 12.8358 9.83579 12.5 10.25 12.5ZM5.25 13.5C5.66421 13.5 6 13.8358 6 14.25V16.25C6 16.6642 5.66421 17 5.25 17C4.83579 17 4.5 16.6642 4.5 16.25V14.25C4.5 13.8358 4.83579 13.5 5.25 13.5Z" fill="#161616"/>
</svg>
