<svg width="12" height="18" viewBox="0 0 12 18" fill="none" xmlns="http://www.w3.org/2000/svg">
<path d="M5.75047 0C5.37691 2.59674e-06 5.03034 0.165655 4.77012 0.32252C4.4893 0.491796 4.19937 0.719444 3.91669 0.969183C3.34962 1.47018 2.74064 2.12387 2.18977 2.75823C1.63567 3.39633 1.12546 4.03222 0.754683 4.50725C0.568987 4.74516 0.417551 4.94364 0.312239 5.08304C0.25957 5.15276 0.218398 5.20776 0.190203 5.24558L0.157819 5.28915L0.149265 5.30071L0.146305 5.30472C-0.0993569 5.63822 -0.0284665 6.10816 0.305035 6.35382C0.638522 6.59947 1.108 6.52828 1.35367 6.19481L1.36308 6.18209L1.39285 6.14204C1.41925 6.10662 1.4585 6.0542 1.50911 5.9872C1.61036 5.85317 1.75695 5.66102 1.93713 5.43019C2.2981 4.96772 2.79099 4.35363 3.32235 3.74173C3.85694 3.12611 4.41577 2.52981 4.90984 2.09331C4.94109 2.0657 4.9718 2.03899 5.00195 2.01316L5.00195 16.75C5.00195 17.1642 5.33774 17.5 5.75195 17.5C6.16617 17.5 6.50195 17.1642 6.50195 16.75L6.50195 2.0157C6.53116 2.04073 6.56088 2.06661 6.59111 2.09331C7.08518 2.52981 7.64401 3.12611 8.1786 3.74173C8.70996 4.35363 9.20285 4.96772 9.56382 5.43019C9.74399 5.66102 9.89059 5.85317 9.99184 5.9872C10.0425 6.05419 10.0817 6.10662 10.1081 6.14204L10.1379 6.18209L10.1473 6.19481C10.3929 6.52828 10.8624 6.59947 11.1959 6.35382C11.5294 6.10816 11.6003 5.63822 11.3546 5.30472L11.3517 5.30071L11.3431 5.28915L11.3107 5.24558C11.2826 5.20776 11.2414 5.15276 11.1887 5.08304C11.0834 4.94363 10.932 4.74516 10.7463 4.50725C10.3755 4.03222 9.86528 3.39633 9.31118 2.75823C8.76031 2.12387 8.15133 1.47018 7.58426 0.969183C7.30158 0.719444 7.01165 0.491796 6.73083 0.32252C6.47217 0.166597 6.12819 0.00199333 5.7572 1.79572e-05" fill="white"/>
</svg>
