<svg width="18" height="12" viewBox="0 0 18 12" fill="none" xmlns="http://www.w3.org/2000/svg">
<path fill-rule="evenodd" clip-rule="evenodd" d="M12.2803 0.219668C11.9874 -0.0732244 11.5126 -0.0732226 11.2197 0.219672C10.9268 0.512566 10.9268 0.98744 11.2197 1.28033L14.9394 5H0.75C0.335786 5 0 5.33579 0 5.75C0 6.16421 0.335786 6.5 0.75 6.5H14.9393L11.2197 10.2197C10.9268 10.5126 10.9268 10.9874 11.2197 11.2803C11.5126 11.5732 11.9875 11.5732 12.2804 11.2803L17.2758 6.28486C17.292 6.26892 17.3075 6.25224 17.3222 6.23489C17.369 6.17974 17.4066 6.11941 17.435 6.05596C17.4768 5.96252 17.5 5.85898 17.5 5.75C17.5 5.74768 17.5 5.74537 17.5 5.74305C17.4991 5.65338 17.4823 5.56382 17.4496 5.47903C17.413 5.38451 17.3566 5.2959 17.2803 5.21963L12.2803 0.219668Z" fill="#161616"/>
</svg>
