<svg width="18" height="12" viewBox="0 0 18 12" fill="none" xmlns="http://www.w3.org/2000/svg">
<path fill-rule="evenodd" clip-rule="evenodd" d="M6.28033 1.28033C6.57322 0.98744 6.57322 0.512566 6.28033 0.219672C5.98744 -0.0732225 5.51257 -0.0732244 5.21967 0.219668L0.219672 5.21963C0.117764 5.32154 0.0513135 5.44547 0.0203195 5.57611C0.0110266 5.6152 0.00479276 5.65547 0.00188496 5.69666C0.000628201 5.7144 5.03059e-08 5.73218 5.03059e-08 5.74997C5.03059e-08 5.75006 0 5.75015 0 5.75024C0 5.9636 0.089092 6.15615 0.232103 6.29272L5.21963 11.2803C5.51252 11.5732 5.98739 11.5732 6.28029 11.2803C6.57318 10.9874 6.57319 10.5126 6.2803 10.2197L2.56092 6.50024H16.75C17.1642 6.50024 17.5 6.16446 17.5 5.75024C17.5 5.33603 17.1642 5.00024 16.75 5.00024H2.56039L6.28033 1.28033Z" fill="#161616"/>
</svg>
