<svg width="21" height="22" viewBox="0 0 21 22" fill="none" xmlns="http://www.w3.org/2000/svg">
<path fill-rule="evenodd" clip-rule="evenodd" d="M10.2512 0C14.8189 0 18.5261 3.69131 18.5261 8.25C18.5262 9.3104 18.5973 10.1106 19.085 10.83C19.1528 10.9285 19.2427 11.0519 19.341 11.1868C19.5117 11.4211 19.7076 11.6899 19.8562 11.9227C20.1184 12.3336 20.3746 12.8291 20.4627 13.4065C20.7501 15.2902 19.4254 16.5098 18.1062 17.0563C17.1235 17.4634 16.0616 17.7844 14.954 18.0193C14.3797 20.0396 12.4803 21.4999 10.2502 21.4999C8.02001 21.4999 6.12042 20.0394 5.54634 18.0189C4.43948 17.784 3.37828 17.4632 2.39617 17.0563C1.07695 16.5098 -0.247704 15.2902 0.0396462 13.4065C0.127726 12.8291 0.383926 12.3336 0.646166 11.9227C0.794746 11.6899 0.990626 11.4211 1.16137 11.1868C1.25967 11.0519 1.34964 10.9285 1.41744 10.8299C1.90506 10.1106 1.97619 9.3103 1.97628 8.24994C1.97632 3.69128 5.68343 0 10.2512 0ZM13.2141 18.3134C11.2656 18.5623 9.23466 18.5622 7.28615 18.3131C7.85766 19.3118 8.96366 19.9999 10.2502 19.9999C11.5366 19.9999 12.6426 19.312 13.2141 18.3134ZM10.2512 1.5C6.50715 1.5 3.47628 4.52442 3.47628 8.25C3.47619 9.3324 3.4228 10.5467 2.65726 11.6742C2.52921 11.8606 2.41887 12.0105 2.31435 12.1525C2.17563 12.341 2.04816 12.5142 1.91061 12.7297C1.69737 13.0638 1.56511 13.3534 1.5225 13.6327C1.38455 14.5371 1.96136 15.2526 2.97025 15.6705C7.24922 17.4432 13.2531 17.4432 17.5321 15.6706C18.541 15.2526 19.1178 14.5371 18.9798 13.6327C18.9372 13.3534 18.805 13.0638 18.5917 12.7297C18.4542 12.5142 18.3267 12.341 18.188 12.1525C18.0838 12.011 17.9734 11.8608 17.8475 11.6777C17.0796 10.5467 17.0262 9.3325 17.0261 8.25006C17.0261 4.52448 13.9952 1.5 10.2512 1.5Z" fill="#F2F2F7"/>
</svg>
