<svg width="22" height="22" viewBox="0 0 22 22" fill="none" xmlns="http://www.w3.org/2000/svg">
<path fill-rule="evenodd" clip-rule="evenodd" d="M16.7865 0H16.7135C15.9743 -1.22225e-05 15.3668 -2.25343e-05 14.8753 0.0467092C14.3646 0.0952702 13.9022 0.199535 13.4817 0.45725C13.0641 0.713105 12.7131 1.06414 12.4572 1.48166C12.1995 1.90221 12.0953 2.36456 12.0467 2.87529C12 3.36678 12 3.9743 12 4.71344V4.71345V4.78655V4.78656C12 5.5257 12 6.13322 12.0467 6.62471C12.0953 7.13544 12.1995 7.59779 12.4572 8.01834C12.7131 8.43586 13.0641 8.7869 13.4817 9.04275C13.9022 9.30047 14.3646 9.40473 14.8753 9.45329C15.3668 9.50002 15.9743 9.50001 16.7134 9.5H16.7866C17.5257 9.50001 18.1332 9.50002 18.6247 9.45329C19.1354 9.40473 19.5978 9.30047 20.0183 9.04275C20.4359 8.7869 20.7869 8.43586 21.0428 8.01834C21.3005 7.59779 21.4047 7.13544 21.4533 6.62471C21.5 6.13322 21.5 5.5257 21.5 4.78656V4.71344C21.5 3.9743 21.5 3.36678 21.4533 2.87529C21.4047 2.36456 21.3005 1.90221 21.0428 1.48166C20.7869 1.06414 20.4359 0.713105 20.0183 0.45725C19.5978 0.199535 19.1354 0.0952702 18.6247 0.0467092C18.1332 -2.24747e-05 17.5257 -1.22225e-05 16.7865 0ZM14.2654 1.73621C14.4107 1.6472 14.6163 1.5781 15.0173 1.53997C15.4294 1.50079 15.9653 1.5 16.75 1.5C17.5347 1.5 18.0706 1.50079 18.4827 1.53997C18.8837 1.5781 19.0893 1.6472 19.2346 1.73621C19.4503 1.86838 19.6316 2.04972 19.7638 2.26541C19.8528 2.41066 19.9219 2.61633 19.96 3.01727C19.9992 3.42937 20 3.96526 20 4.75C20 5.53474 19.9992 6.07063 19.96 6.48273C19.9219 6.88367 19.8528 7.08934 19.7638 7.23459C19.6316 7.45028 19.4503 7.63162 19.2346 7.76379C19.0893 7.85281 18.8837 7.92191 18.4827 7.96003C18.0706 7.99921 17.5347 8 16.75 8C15.9653 8 15.4294 7.99921 15.0173 7.96003C14.6163 7.92191 14.4107 7.85281 14.2654 7.76379C14.0497 7.63162 13.8684 7.45028 13.7362 7.23459C13.6472 7.08934 13.5781 6.88367 13.54 6.48273C13.5008 6.07063 13.5 5.53474 13.5 4.75C13.5 3.96526 13.5008 3.42937 13.54 3.01727C13.5781 2.61633 13.6472 2.41066 13.7362 2.26541C13.8684 2.04972 14.0497 1.86838 14.2654 1.73621ZM4.71345 0H4.78655H4.78656C5.5257 -1.22226e-05 6.13322 -2.22684e-05 6.62471 0.0467092C7.13544 0.0952702 7.59779 0.199535 8.01834 0.45725C8.43586 0.713105 8.7869 1.06414 9.04275 1.48166C9.30047 1.90221 9.40473 2.36456 9.45329 2.87529C9.50002 3.36678 9.50001 3.97428 9.5 4.71341V4.71343V4.71344V4.78656V4.78658V4.78659C9.50001 5.52572 9.50002 6.13322 9.45329 6.62471C9.40473 7.13544 9.30047 7.59779 9.04275 8.01834C8.7869 8.43586 8.43586 8.7869 8.01834 9.04275C7.59779 9.30047 7.13544 9.40473 6.62471 9.45329C6.13322 9.50002 5.52572 9.50001 4.78659 9.5H4.78658H4.78656H4.71344H4.71343H4.71341C3.97428 9.50001 3.36678 9.50002 2.87529 9.45329C2.36456 9.40473 1.90221 9.30047 1.48166 9.04275C1.06414 8.7869 0.713105 8.43586 0.45725 8.01834C0.199535 7.59779 0.0952702 7.13544 0.0467092 6.62471C-2.22698e-05 6.13322 -1.22226e-05 5.5257 0 4.78656V4.78655V4.71345V4.71344C-1.22226e-05 3.9743 -2.22685e-05 3.36679 0.0467092 2.87529C0.0952702 2.36456 0.199535 1.90221 0.45725 1.48166C0.713105 1.06414 1.06414 0.713105 1.48166 0.45725C1.90221 0.199535 2.36456 0.0952702 2.87529 0.0467092C3.36678 -2.22698e-05 3.9743 -1.22226e-05 4.71344 0H4.71345ZM3.01727 1.53997C2.61633 1.5781 2.41066 1.6472 2.26541 1.73621C2.04972 1.86838 1.86838 2.04972 1.73621 2.26541C1.6472 2.41066 1.5781 2.61633 1.53997 3.01727C1.50079 3.42937 1.5 3.96526 1.5 4.75C1.5 5.53474 1.50079 6.07063 1.53997 6.48273C1.5781 6.88367 1.6472 7.08934 1.73621 7.23459C1.86838 7.45028 2.04972 7.63162 2.26541 7.76379C2.41066 7.85281 2.61633 7.92191 3.01727 7.96003C3.42937 7.99921 3.96526 8 4.75 8C5.53474 8 6.07063 7.99921 6.48273 7.96003C6.88367 7.92191 7.08934 7.85281 7.23459 7.76379C7.45028 7.63162 7.63162 7.45028 7.76379 7.23459C7.85281 7.08934 7.92191 6.88367 7.96003 6.48273C7.99921 6.07063 8 5.53474 8 4.75C8 3.96526 7.99921 3.42937 7.96003 3.01727C7.92191 2.61633 7.85281 2.41066 7.76379 2.26541C7.63162 2.04972 7.45028 1.86838 7.23459 1.73621C7.08934 1.6472 6.88367 1.5781 6.48273 1.53997C6.07063 1.50079 5.53474 1.5 4.75 1.5C3.96526 1.5 3.42937 1.50079 3.01727 1.53997ZM4.71345 12H4.71344H4.71342H4.71341C3.97428 12 3.36678 12 2.87529 12.0467C2.36456 12.0953 1.90221 12.1995 1.48166 12.4572C1.06414 12.7131 0.713105 13.0641 0.45725 13.4817C0.199535 13.9022 0.0952702 14.3646 0.0467092 14.8753C-2.24747e-05 15.3668 -1.22225e-05 15.9743 0 16.7135V16.7865C-1.22225e-05 17.5257 -2.25343e-05 18.1332 0.0467092 18.6247C0.0952702 19.1354 0.199535 19.5978 0.45725 20.0183C0.713105 20.4359 1.06414 20.7869 1.48166 21.0428C1.90221 21.3005 2.36456 21.4047 2.87529 21.4533C3.36678 21.5 3.9743 21.5 4.71344 21.5H4.78656C5.5257 21.5 6.13322 21.5 6.62471 21.4533C7.13544 21.4047 7.59779 21.3005 8.01834 21.0428C8.43586 20.7869 8.7869 20.4359 9.04275 20.0183C9.30047 19.5978 9.40473 19.1354 9.45329 18.6247C9.50002 18.1332 9.50001 17.5257 9.5 16.7866V16.7134C9.50001 15.9743 9.50002 15.3668 9.45329 14.8753C9.40473 14.3646 9.30047 13.9022 9.04275 13.4817C8.7869 13.0641 8.43586 12.7131 8.01834 12.4572C7.59779 12.1995 7.13544 12.0953 6.62471 12.0467C6.13322 12 5.52572 12 4.78659 12H4.78658H4.78656H4.78655H4.71345ZM2.26541 13.7362C2.41066 13.6472 2.61633 13.5781 3.01727 13.54C3.42937 13.5008 3.96526 13.5 4.75 13.5C5.53474 13.5 6.07063 13.5008 6.48273 13.54C6.88367 13.5781 7.08934 13.6472 7.23459 13.7362C7.45028 13.8684 7.63162 14.0497 7.76379 14.2654C7.85281 14.4107 7.92191 14.6163 7.96003 15.0173C7.99921 15.4294 8 15.9653 8 16.75C8 17.5347 7.99921 18.0706 7.96003 18.4827C7.92191 18.8837 7.85281 19.0893 7.76379 19.2346C7.63162 19.4503 7.45028 19.6316 7.23459 19.7638C7.08934 19.8528 6.88367 19.9219 6.48273 19.96C6.07063 19.9992 5.53474 20 4.75 20C3.96526 20 3.42937 19.9992 3.01727 19.96C2.61633 19.9219 2.41066 19.8528 2.26541 19.7638C2.04972 19.6316 1.86838 19.4503 1.73621 19.2346C1.6472 19.0893 1.5781 18.8837 1.53997 18.4827C1.50079 18.0706 1.5 17.5347 1.5 16.75C1.5 15.9653 1.50079 15.4294 1.53997 15.0173C1.5781 14.6163 1.6472 14.4107 1.73621 14.2654C1.86838 14.0497 2.04972 13.8684 2.26541 13.7362ZM18.6247 12.0467C18.1332 12 17.5257 12 16.7865 12H16.7135C15.9743 12 15.3668 12 14.8753 12.0467C14.3646 12.0953 13.9022 12.1995 13.4817 12.4572C13.0641 12.7131 12.7131 13.0641 12.4572 13.4817C12.1995 13.9022 12.0953 14.3646 12.0467 14.8753C12 15.3668 12 15.9743 12 16.7135V16.7865C12 17.5257 12 18.1332 12.0467 18.6247C12.0953 19.1354 12.1995 19.5978 12.4572 20.0183C12.7131 20.4359 13.0641 20.7869 13.4817 21.0428C13.9022 21.3005 14.3646 21.4047 14.8753 21.4533C15.3668 21.5 15.9743 21.5 16.7134 21.5H16.7866C17.5257 21.5 18.1332 21.5 18.6247 21.4533C19.1354 21.4047 19.5978 21.3005 20.0183 21.0428C20.4359 20.7869 20.7869 20.4359 21.0428 20.0183C21.3005 19.5978 21.4047 19.1354 21.4533 18.6247C21.5 18.1332 21.5 17.5257 21.5 16.7866V16.7134C21.5 15.9743 21.5 15.3668 21.4533 14.8753C21.4047 14.3646 21.3005 13.9022 21.0428 13.4817C20.7869 13.0641 20.4359 12.7131 20.0183 12.4572C19.5978 12.1995 19.1354 12.0953 18.6247 12.0467ZM14.2654 13.7362C14.4107 13.6472 14.6163 13.5781 15.0173 13.54C15.4294 13.5008 15.9653 13.5 16.75 13.5C17.5347 13.5 18.0706 13.5008 18.4827 13.54C18.8837 13.5781 19.0893 13.6472 19.2346 13.7362C19.4503 13.8684 19.6316 14.0497 19.7638 14.2654C19.8528 14.4107 19.9219 14.6163 19.96 15.0173C19.9992 15.4294 20 15.9653 20 16.75C20 17.5347 19.9992 18.0706 19.96 18.4827C19.9219 18.8837 19.8528 19.0893 19.7638 19.2346C19.6316 19.4503 19.4503 19.6316 19.2346 19.7638C19.0893 19.8528 18.8837 19.9219 18.4827 19.96C18.0706 19.9992 17.5347 20 16.75 20C15.9653 20 15.4294 19.9992 15.0173 19.96C14.6163 19.9219 14.4107 19.8528 14.2654 19.7638C14.0497 19.6316 13.8684 19.4503 13.7362 19.2346C13.6472 19.0893 13.5781 18.8837 13.54 18.4827C13.5008 18.0706 13.5 17.5347 13.5 16.75C13.5 15.9653 13.5008 15.4294 13.54 15.0173C13.5781 14.6163 13.6472 14.4107 13.7362 14.2654C13.8684 14.0497 14.0497 13.8684 14.2654 13.7362Z" fill="white"/>
</svg>
