<svg width="20" height="22" viewBox="0 0 20 22" fill="none" xmlns="http://www.w3.org/2000/svg">
<path fill-rule="evenodd" clip-rule="evenodd" d="M14.7368 1.70978C14.1695 1.51057 13.4308 1.49986 11.5682 1.49986C11.2604 1.49986 10.969 1.49996 10.6929 1.50048C9.29254 1.53088 8.16671 2.67556 8.16671 4.08319C8.17399 4.23811 8.19971 4.95542 8.2032 5.12356C8.21109 5.50365 8.19909 5.94719 8.08436 6.37534C7.8609 7.20931 7.20949 7.86072 6.37552 8.08418C5.94737 8.1989 5.50383 8.21091 5.12374 8.20301C4.95559 8.19952 4.2383 8.17381 4.08338 8.16652C2.65891 8.16652 1.50372 9.31945 1.50005 10.7431L1.50004 13.4809C1.50004 15.0342 1.50125 16.1337 1.60087 16.9806C1.69841 17.8098 1.88193 18.3047 2.18478 18.6856C2.38246 18.9342 2.61806 19.1564 2.88516 19.3446C3.57683 19.8321 4.56881 19.9751 6.75854 19.9999C7.17272 20.0046 7.50468 20.3442 7.49999 20.7583C7.4953 21.1725 7.15573 21.5045 6.74155 21.4998C4.63166 21.4759 3.15337 21.3687 2.02106 20.5707C1.63926 20.3016 1.29878 19.9815 1.0107 19.6192C0.465854 18.9339 0.22552 18.1282 0.111138 17.1558C1.7643e-05 16.2111 -1.23009e-05 12.2442 0 10.7499C7.49007e-05 9.36658 0.00222348 8.28334 0.0602837 7.40282C0.121346 6.47677 0.246577 5.72317 0.521705 5.02871C1.35978 2.9133 3.12457 1.26161 5.33992 0.483701C6.61259 0.0368129 8.15194 0.00248821 10.713 2.31956e-05C12.3481 -0.000316134 14.393 -0.000714481 15.2338 0.294495C16.5829 0.768227 17.6644 1.77664 18.1794 3.07652C18.354 3.51734 18.429 3.98534 18.4649 4.5304C18.5 5.0631 18.5 5.71887 18.5 6.54342V6.54347V11.7531C18.5 12.1673 18.1643 12.5031 17.75 12.5031C17.3358 12.5031 17 12.1673 17 11.7531V6.56975C17 5.713 16.9997 5.10669 16.9682 4.6291C16.9371 4.1582 16.8781 3.86457 16.7848 3.62901C16.4382 2.75417 15.6976 2.04717 14.7368 1.70978ZM1.5542 7.54402C2.24968 6.99464 3.12818 6.66673 4.08327 6.66673C4.26904 6.66673 4.97773 6.69533 5.15478 6.70354C5.49543 6.71062 5.76801 6.69423 5.98719 6.6355C6.30353 6.55074 6.55061 6.30365 6.63537 5.98732C6.6941 5.76814 6.71049 5.49555 6.70342 5.15491C6.70036 5.00788 6.67395 4.24005 6.66661 4.0834C6.66661 3.14042 6.98625 2.2721 7.5231 1.58087C6.82999 1.63773 6.30577 1.73451 5.83678 1.89919C4.00969 2.54077 2.58583 3.89104 1.91615 5.5814C1.72234 6.0706 1.61037 6.69213 1.5542 7.54402ZM12.3181 14.2604C12.5885 14.5741 12.5534 15.0477 12.2397 15.3181L10.3998 16.9039C9.99641 17.2516 9.75334 17.4633 9.60163 17.6347C9.55367 17.6889 9.52653 17.7264 9.51161 17.75C9.52653 17.7736 9.55367 17.8112 9.60163 17.8653C9.75333 18.0367 9.99641 18.2484 10.3998 18.5961L12.2397 20.1819C12.5534 20.4523 12.5885 20.9259 12.3181 21.2397C12.0477 21.5534 11.5741 21.5885 11.2603 21.3181L9.42053 19.7323L9.38474 19.7015C9.02882 19.3948 8.70589 19.1165 8.47846 18.8596C8.23352 18.5829 8 18.2236 8 17.75C8 17.2764 8.23352 16.9172 8.47846 16.6405C8.70588 16.3835 9.0288 16.1053 9.38471 15.7986L9.38475 15.7985L9.42053 15.7677L11.2603 14.1819C11.5741 13.9115 12.0477 13.9466 12.3181 14.2604ZM9.49479 17.7179L9.49521 17.7186C9.49544 17.7191 9.49574 17.7198 9.49607 17.7208C9.49635 17.7217 9.49666 17.7227 9.49698 17.7239C9.49587 17.7215 9.49523 17.7198 9.49494 17.7188C9.49474 17.7182 9.49471 17.7179 9.49479 17.7179ZM9.49698 17.7761C9.49595 17.78 9.49501 17.7821 9.49479 17.7821C9.49458 17.7822 9.49509 17.7803 9.49698 17.7761ZM15.1819 14.2604C14.9115 14.5741 14.9466 15.0477 15.2603 15.3181L17.1002 16.9039C17.5036 17.2516 17.7467 17.4633 17.8984 17.6347C17.9463 17.6889 17.9735 17.7264 17.9884 17.75C17.9735 17.7736 17.9463 17.8112 17.8984 17.8653C17.7467 18.0367 17.5036 18.2484 17.1002 18.5961L15.2603 20.1819C14.9466 20.4523 14.9115 20.9259 15.1819 21.2397C15.4523 21.5534 15.9259 21.5885 16.2397 21.3181L18.0795 19.7323L18.1153 19.7015C18.4712 19.3948 18.7941 19.1165 19.0215 18.8596C19.2665 18.5829 19.5 18.2236 19.5 17.75C19.5 17.2764 19.2665 16.9172 19.0215 16.6405C18.7941 16.3835 18.4712 16.1052 18.1152 15.7985L18.0795 15.7677L16.2397 14.1819C15.9259 13.9115 15.4523 13.9466 15.1819 14.2604ZM18.0052 17.7179C18.005 17.718 18.004 17.72 18.003 17.7239C18.0049 17.7198 18.0054 17.7178 18.0052 17.7179ZM18.003 17.7761C18.004 17.78 18.005 17.7821 18.0052 17.7821C18.0054 17.7822 18.0049 17.7803 18.003 17.7761Z" fill="white"/>
</svg>
