<svg width="22" height="22" viewBox="0 0 22 22" fill="none" xmlns="http://www.w3.org/2000/svg">
<path fill-rule="evenodd" clip-rule="evenodd" d="M18.668 0.213144C18.0096 -0.0710479 17.2632 -0.0710479 16.6049 0.213144C16.3403 0.327368 16.1179 0.492276 15.9028 0.680874C15.6967 0.861603 15.4617 1.09656 15.1825 1.37577L10.144 6.41431L10.0435 6.51478C8.90251 7.65538 8.1968 8.36086 7.77405 9.25447C7.35131 10.1481 7.25349 11.1411 7.09534 12.7467L7.0814 12.8881L7.00363 13.6764C6.98157 13.8999 7.06085 14.1215 7.21967 14.2803C7.37849 14.4391 7.60013 14.5184 7.82365 14.4964L8.61188 14.4186L8.75331 14.4047C10.3589 14.2465 11.3519 14.1487 12.2455 13.726C13.1391 13.3032 13.8446 12.5975 14.9852 11.4565L15.0857 11.356L20.1243 6.31743C20.4035 6.03825 20.6384 5.80331 20.8191 5.59718C21.0077 5.38207 21.1726 5.15974 21.2869 4.89513C21.5711 4.23678 21.5711 3.49036 21.2869 2.83201C21.1726 2.5674 21.0077 2.34507 20.8191 2.12996C20.6384 1.92384 20.4035 1.68892 20.1243 1.40977L20.1243 1.40971L20.0903 1.37574C19.8111 1.09654 19.5762 0.861596 19.37 0.680874C19.1549 0.492277 18.9326 0.327368 18.668 0.213144ZM17.1994 1.59031C17.4783 1.4699 17.7946 1.4699 18.0735 1.59031C18.1342 1.61651 18.2213 1.66863 18.3812 1.80877C18.5458 1.95313 18.746 2.15277 19.0466 2.45338C19.3472 2.75399 19.5469 2.95416 19.6912 3.11882C19.8314 3.27867 19.8835 3.36581 19.9097 3.42649C20.0301 3.70544 20.0301 4.0217 19.9097 4.30065C19.8835 4.36133 19.8314 4.44847 19.6912 4.60832C19.5469 4.77298 19.3472 4.97315 19.0466 5.27376L14.025 10.2953C12.7509 11.5695 12.2341 12.072 11.6041 12.37C10.9885 12.6612 10.2905 12.7451 8.58617 12.9138C8.75491 11.2095 8.83878 10.5115 9.12998 9.89593C9.42801 9.26594 9.93054 8.74909 11.2047 7.47497L16.2262 2.45338C16.5269 2.15277 16.727 1.95313 16.8917 1.80877C17.0515 1.66863 17.1387 1.61651 17.1994 1.59031ZM2.5 13C1.11929 13 0 14.1193 0 15.5C0 16.8807 1.11929 18 2.5 18H12C12.5523 18 13 18.4477 13 19C13 19.5523 12.5523 20 12 20H9.75C9.33579 20 9 20.3358 9 20.75C9 21.1642 9.33579 21.5 9.75 21.5H12C13.3807 21.5 14.5 20.3807 14.5 19C14.5 17.6193 13.3807 16.5 12 16.5H2.5C1.94772 16.5 1.5 16.0523 1.5 15.5C1.5 14.9477 1.94772 14.5 2.5 14.5H4.75C5.16421 14.5 5.5 14.1642 5.5 13.75C5.5 13.3358 5.16421 13 4.75 13H2.5Z" fill="#161616"/>
</svg>
