<svg width="22" height="22" viewBox="0 0 22 22" fill="none" xmlns="http://www.w3.org/2000/svg">
<path fill-rule="evenodd" clip-rule="evenodd" d="M13.9539 0.544313C15.1385 -0.160201 16.5995 -0.182278 17.8043 0.4866C18.3041 0.764059 18.7599 1.23005 19.4379 1.92307L19.5309 2.01811L19.622 2.11114L19.622 2.11116C20.3023 2.80569 20.7576 3.27051 21.028 3.77866C21.6765 4.99777 21.6554 6.47256 20.9718 7.67207C20.6869 8.17205 20.2182 8.62313 19.5183 9.29683L19.4245 9.3872L10.0208 18.4445L9.89969 18.5612L9.89967 18.5612L9.89964 18.5612C8.5188 19.8917 7.66774 20.7117 6.59081 21.1323C5.51232 21.5536 4.33966 21.5227 2.44246 21.4727H2.44244L2.27565 21.4683L1.9555 21.46C1.67746 21.4528 1.39638 21.4455 1.16431 21.4068C0.897778 21.3623 0.58121 21.2601 0.330762 20.9759C0.0825542 20.6942 0.0188603 20.3691 0.00395645 20.1017C-0.00922137 19.8652 0.0129135 19.582 0.035158 19.2973L0.0652289 18.9114L0.0760745 18.772C0.205357 17.1094 0.28439 16.0931 0.685713 15.1694C1.08756 14.2444 1.77405 13.5009 2.89411 12.2877L2.98818 12.1858L12.2725 2.12677L12.3626 2.0291L12.3626 2.02909C13.0204 1.31589 13.4625 0.836561 13.9539 0.544313ZM17.0762 1.79805C16.3384 1.38846 15.4467 1.40172 14.7207 1.83354C14.4423 1.99909 14.1568 2.29677 13.3747 3.14413L13.2932 3.2325L18.3755 8.31488L18.3839 8.30682C19.2125 7.50877 19.5051 7.21624 19.6686 6.92934C20.0974 6.17702 20.1109 5.24847 19.7037 4.48319C19.5484 4.1913 19.2642 3.88994 18.459 3.06741C17.6528 2.24383 17.359 1.95504 17.0762 1.79805ZM4.09044 13.2032L12.275 4.33565L17.295 9.35564L8.98023 17.3641C7.43769 18.8498 6.80888 19.4368 6.04508 19.7351C5.28295 20.0328 4.43457 20.0243 2.31486 19.9688L2.03487 19.9615C1.87535 19.9573 1.74901 19.954 1.64052 19.9483C1.5843 19.9454 1.53808 19.942 1.49977 19.9384C1.50017 19.8181 1.51238 19.6481 1.5337 19.3744L1.5607 19.0279C1.70456 17.1814 1.77243 16.4324 2.06148 15.7671C2.34996 15.1031 2.84635 14.5511 4.09044 13.2032ZM12.75 20C12.3358 20 12 20.3358 12 20.75C12 21.1642 12.3358 21.5 12.75 21.5H20.75C21.1642 21.5 21.5 21.1642 21.5 20.75C21.5 20.3358 21.1642 20 20.75 20H12.75Z" fill="white"/>
</svg>
