<svg width="20" height="20" viewBox="0 0 20 20" fill="none" xmlns="http://www.w3.org/2000/svg">
<path fill-rule="evenodd" clip-rule="evenodd" d="M3.72608 1.50009C4.42316 1.50009 4.612 1.50796 4.7661 1.55512C4.99146 1.62407 5.1929 1.75498 5.34744 1.93291C5.45311 2.05458 5.53701 2.22395 5.82011 2.86095L6.22277 3.76693C6.52939 4.45682 6.60354 4.64651 6.62019 4.82159C6.63877 5.01696 6.61136 5.21398 6.54014 5.39686C6.47633 5.56073 6.35321 5.72298 5.8699 6.30296L5.80483 6.38095L5.80483 6.38095C5.42054 6.84133 5.11626 7.20584 4.95071 7.65901C4.80167 8.06697 4.74944 8.57743 4.81276 9.00712C4.88301 9.48382 5.0828 9.85701 5.33119 10.321L5.36827 10.3903C6.31786 12.1672 7.33273 13.1821 9.10967 14.1317L9.17896 14.1688C9.64295 14.4172 10.0161 14.617 10.4929 14.6872C10.9225 14.7505 11.433 14.6983 11.841 14.5493C12.2941 14.3837 12.6586 14.0794 13.119 13.6951L13.197 13.6301C13.777 13.1468 13.9392 13.0236 14.1031 12.9598L13.8781 12.3819L14.1031 12.9598C14.286 12.8886 14.483 12.8612 14.6784 12.8798C14.8535 12.8964 15.0432 12.9706 15.733 13.2772L16.0376 12.5918L15.733 13.2772L16.639 13.6799C17.276 13.963 17.4454 14.0469 17.5671 14.1525L18.0285 13.6212L17.5671 14.1525C17.745 14.3071 17.8759 14.5085 17.9449 14.7339C17.992 14.888 17.9999 15.0768 17.9999 15.7739C17.9999 16.2598 17.9993 16.5808 17.9794 16.8311C17.9605 17.0699 17.9268 17.1923 17.8857 17.2821C17.7562 17.5647 17.4477 17.8449 17.1539 17.9466C16.9294 18.0244 16.6941 18.017 15.7822 17.929C11.3782 17.504 8.05664 16.0942 5.73121 13.7688C3.40578 11.4433 1.99595 8.12177 1.57099 3.71776C1.48299 2.80584 1.47562 2.57055 1.55333 2.34605C1.65504 2.05227 1.93524 1.74372 2.2179 1.61427C2.30763 1.57318 2.43002 1.5395 2.66888 1.52052C2.91919 1.50064 3.24021 1.50009 3.72608 1.50009ZM5.205 0.120763C4.80812 -0.000677049 4.37614 -0.000359592 3.82415 4.59581e-05L3.72608 9.37014e-05L3.69782 9.32246e-05L3.69781 9.32245e-05C3.24773 8.23765e-05 2.86683 7.31964e-05 2.5501 0.0252354C2.2153 0.0518321 1.9016 0.1093 1.59331 0.250495C0.938241 0.550506 0.371576 1.17448 0.135871 1.85534C-0.0619749 2.42683 -0.00518517 3.00918 0.0660838 3.74L0.0779224 3.86183C0.526283 8.5083 2.03407 12.1929 4.67055 14.8294C7.30702 17.4659 10.9917 18.9737 15.6381 19.422L15.76 19.4339C16.4908 19.5052 17.0731 19.5619 17.6446 19.3641C18.3255 19.1284 18.9495 18.5617 19.2495 17.9067C19.3907 17.5984 19.4481 17.2847 19.4747 16.9499C19.4999 16.6331 19.4999 16.2522 19.4999 15.8021V15.7739L19.4999 15.6758C19.5003 15.1238 19.5006 14.6919 19.3792 14.295C19.228 13.8007 18.9409 13.359 18.5507 13.0201C18.2373 12.7479 17.8424 12.5727 17.3379 12.3489L17.2482 12.3091L16.3423 11.9065L16.2456 11.8635C15.6993 11.6201 15.271 11.4294 14.8204 11.3865C14.3919 11.3458 13.9599 11.4059 13.5588 11.5621C13.137 11.7263 12.7771 12.0267 12.318 12.4099L12.318 12.4099L12.2367 12.4777C11.661 12.9575 11.5038 13.0755 11.3262 13.1403C11.1527 13.2037 10.8943 13.2302 10.7115 13.2032C10.5208 13.1751 10.378 13.1087 9.81666 12.8088C8.30144 11.999 7.50094 11.1985 6.69121 9.68331C6.39122 9.12196 6.32483 8.97915 6.29673 8.78843C6.26979 8.60565 6.29624 8.34726 6.35963 8.17372C6.42449 7.9962 6.54244 7.83898 7.02223 7.26323L7.09003 7.18195C7.47324 6.72285 7.77366 6.36293 7.9379 5.94116C8.09408 5.54009 8.1542 5.10803 8.11345 4.67955C8.07059 4.22897 7.87984 3.80071 7.63653 3.25442L7.59349 3.15772L7.19083 2.25174L7.15105 2.16212C6.92724 1.65754 6.75208 1.26265 6.47992 0.9493C6.141 0.559087 5.69923 0.271991 5.205 0.120763ZM14.75 0C14.3358 0 14 0.335786 14 0.75C14 1.16421 14.3358 1.5 14.75 1.5H16.9393L12.2197 6.21967C11.9268 6.51256 11.9268 6.98744 12.2197 7.28033C12.5126 7.57322 12.9874 7.57322 13.2803 7.28033L18 2.56066V4.75C18 5.16421 18.3358 5.5 18.75 5.5C19.1642 5.5 19.5 5.16421 19.5 4.75V0.75C19.5 0.335786 19.1642 0 18.75 0H14.75Z" fill="#161616"/>
</svg>
