<svg width="21" height="21" viewBox="0 0 21 21" fill="none" xmlns="http://www.w3.org/2000/svg">
<path fill-rule="evenodd" clip-rule="evenodd" d="M8.76629 0.292994C8.94577 0.52652 8.97196 0.843482 8.83323 1.10329C8.24927 2.19693 7.91792 3.4461 7.91792 4.77489C7.91792 9.0867 11.4133 12.5821 15.7251 12.5821C17.0539 12.5821 18.3031 12.2508 19.3967 11.6668C19.6565 11.5281 19.9735 11.5543 20.207 11.7337C20.4406 11.9132 20.5474 12.2128 20.4802 12.4995C19.4056 17.085 15.2909 20.5 10.3769 20.5C4.64589 20.5 0 15.8541 0 10.1232C0 5.20909 3.41505 1.09448 8.0005 0.0198166C8.28726 -0.0473898 8.58681 0.0594678 8.76629 0.292994ZM6.84638 1.97584C3.70025 3.34103 1.5 6.47583 1.5 10.1232C1.5 15.0257 5.47431 19 10.3769 19C14.0242 19 17.159 16.7998 18.5242 13.6536C17.6403 13.9321 16.6998 14.0821 15.7251 14.0821C10.5849 14.0821 6.41792 9.91512 6.41792 4.77489C6.41792 3.80022 6.56797 2.85975 6.84638 1.97584Z" fill="white"/>
</svg>
