<svg width="18" height="22" viewBox="0 0 18 22" fill="none" xmlns="http://www.w3.org/2000/svg">
<path fill-rule="evenodd" clip-rule="evenodd" d="M7.3 20.9C7.87 21.26 8.25 21.5 8.75 21.5C9.25 21.5 9.63 21.27 10.21 20.9L12.12 19.7C12.1321 19.6925 12.1446 19.6847 12.1576 19.6767C12.3694 19.5454 12.6846 19.35 12.76 19.35C12.84 19.36 13.13 19.54 13.38 19.7C13.4016 19.7144 13.4244 19.7294 13.4481 19.745C13.5229 19.7942 13.6064 19.8492 13.69 19.91L13.6911 19.9107C14.4212 20.4208 15.6505 21.2797 16.7 20.6C17.51 20.08 17.51 19.13 17.51 17.4V6.75C17.51 3.73 17.51 2.21 16.48 1.12C15.43 0 13.89 0 11.11 0H6.4C3.61 0 2.08 0 1.03 1.11C0 2.21 0 3.73 0 6.75V17.39C0 19.12 0 20.07 0.81 20.59C1.86436 21.2664 3.07701 20.4191 3.8083 19.9082L3.82 19.9C3.8843 19.8571 3.94286 19.8171 3.99721 19.78C4.0443 19.7479 4.08823 19.7178 4.13 19.69C4.14208 19.6825 4.15463 19.6747 4.16756 19.6667C4.37939 19.5354 4.6946 19.34 4.77 19.34C4.85 19.35 5.14 19.53 5.39 19.69L7.3 20.9ZM8.11116 19.6433L8.09 19.63V19.64L6.18 18.43L6.16155 18.4184C5.63175 18.0848 5.27463 17.8599 4.81 17.85C4.28 17.83 3.87 18.08 3.32 18.43C3.21 18.5 3.09 18.58 2.95 18.68C2.02 19.33 1.71 19.4 1.63 19.35C1.5 19.17 1.5 18.27 1.5 17.4V6.75C1.5 4.12 1.5 2.8 2.12 2.14C2.7 1.52 3.78 1.5 6.39 1.5H11.1C13.71 1.5 14.79 1.52 15.37 2.14C15.99 2.8 15.99 4.12 15.99 6.75V17.4C15.99 18.27 15.99 19.17 15.87 19.33C15.78 19.39 15.47 19.32 14.54 18.67C14.4 18.57 14.28 18.49 14.17 18.42L14.1515 18.4084C13.6218 18.0748 13.2646 17.8499 12.8 17.84C12.27 17.82 11.86 18.07 11.31 18.42L9.39 19.63C9.13 19.8 8.82 20 8.74 20C8.66208 19.9903 8.37548 19.8098 8.11116 19.6433ZM8 14.75C8 15.16 8.34 15.5 8.75 15.5C9.16 15.5 9.5 15.16 9.5 14.75V14H10.25C11.49 14 12.5 12.99 12.5 11.75V11.25C12.5 10.01 11.49 9 10.25 9H7.25C6.84 9 6.5 8.66 6.5 8.25V7.75C6.5 7.34 6.84 7 7.25 7H10.25C10.66 7 11 7.34 11 7.75C11 8.16 11.34 8.5 11.75 8.5C12.16 8.5 12.5 8.16 12.5 7.75C12.5 6.51 11.49 5.5 10.25 5.5H9.5V4.75C9.5 4.34 9.16 4 8.75 4C8.34 4 8 4.34 8 4.75V5.5H7.25C6.01 5.5 5 6.51 5 7.75V8.25C5 9.49 6.01 10.5 7.25 10.5H10.25C10.66 10.5 11 10.84 11 11.25V11.75C11 12.16 10.66 12.5 10.25 12.5H7.25C6.84 12.5 6.5 12.16 6.5 11.75C6.5 11.34 6.16 11 5.75 11C5.34 11 5 11.34 5 11.75C5 12.99 6.01 14 7.25 14H8V14.75Z" fill="white"/>
</svg>
