<svg width="22" height="22" viewBox="0 0 22 22" fill="none" xmlns="http://www.w3.org/2000/svg">
<path fill-rule="evenodd" clip-rule="evenodd" d="M9.75 0C4.36522 0 0 4.36522 0 9.75C0 15.1348 4.36522 19.5 9.75 19.5C12.1724 19.5 14.3885 18.6166 16.0937 17.1543L20.2197 21.2803C20.5126 21.5732 20.9874 21.5732 21.2803 21.2803C21.5732 20.9874 21.5732 20.5126 21.2803 20.2197L17.1543 16.0937C18.6166 14.3885 19.5 12.1724 19.5 9.75C19.5 4.36522 15.1348 0 9.75 0ZM1.5 9.75C1.5 5.19365 5.19365 1.5 9.75 1.5C14.3063 1.5 18 5.19365 18 9.75C18 14.3063 14.3063 18 9.75 18C5.19365 18 1.5 14.3063 1.5 9.75Z" fill="#161616"/>
</svg>
