<svg width="22" height="19" viewBox="0 0 22 19" fill="none" xmlns="http://www.w3.org/2000/svg">
<path fill-rule="evenodd" clip-rule="evenodd" d="M2.5 0.75C2.5 0.335786 2.16421 0 1.75 0C1.33579 0 1 0.335786 1 0.75V5.75C1 6.16421 1.33579 6.5 1.75 6.5C2.16421 6.5 2.5 6.16421 2.5 5.75V0.75ZM0 13.25C0 10.3505 2.3505 8 5.25 8C7.14222 8 8.79945 9.00114 9.72285 10.5H18.75C18.9489 10.5 19.1397 10.579 19.2803 10.7197L21.2803 12.7197C21.5732 13.0126 21.5732 13.4874 21.2803 13.7803L19.2803 15.7803C19.1397 15.921 18.9489 16 18.75 16H17.75C17.5467 16 17.3522 15.9175 17.2108 15.7714L16.5 15.0362L15.7892 15.7714C15.6478 15.9175 15.4533 16 15.25 16H9.72283C8.79942 17.4988 7.14221 18.5 5.25 18.5C2.35049 18.5 0 16.1494 0 13.25ZM5.25 9.5C3.17892 9.5 1.5 11.1789 1.5 13.25C1.5 15.321 3.17893 17 5.25 17C6.72127 17 7.99605 16.1528 8.61059 14.9162C8.73731 14.6612 8.99749 14.5 9.28222 14.5H14.9319L15.9608 13.436C16.1022 13.2898 16.2967 13.2073 16.5 13.2073C16.7033 13.2073 16.8978 13.2898 17.0392 13.436L18.0681 14.5H18.4393L19.6893 13.25L18.4393 12H9.28224C8.99751 12 8.73732 11.8388 8.61061 11.5838C7.99608 10.3472 6.72129 9.5 5.25 9.5ZM4 13.25C4 12.8358 4.33579 12.5 4.75 12.5H5.75C6.16421 12.5 6.5 12.8358 6.5 13.25C6.5 13.6642 6.16421 14 5.75 14H4.75C4.33579 14 4 13.6642 4 13.25ZM6.25 1.5C5.83579 1.5 5.5 1.83579 5.5 2.25V4.25C5.5 4.66421 5.83579 5 6.25 5C6.66421 5 7 4.66421 7 4.25V2.25C7 1.83579 6.66421 1.5 6.25 1.5ZM4 2.25C4 1.00736 5.00736 0 6.25 0C7.49264 0 8.5 1.00736 8.5 2.25V4.25C8.5 5.49264 7.49264 6.5 6.25 6.5C5.00736 6.5 4 5.49264 4 4.25V2.25ZM11.5 0.75C11.5 0.335786 11.1642 0 10.75 0C10.3358 0 10 0.335786 10 0.75V5.75C10 6.16421 10.3358 6.5 10.75 6.5C11.1642 6.5 11.5 6.16421 11.5 5.75V0.75ZM13.75 0C14.1642 0 14.5 0.335786 14.5 0.75V5.75C14.5 6.16421 14.1642 6.5 13.75 6.5C13.3358 6.5 13 6.16421 13 5.75V0.75C13 0.335786 13.3358 0 13.75 0ZM17.5 2.25C17.5 1.83579 17.8358 1.5 18.25 1.5C18.6642 1.5 19 1.83579 19 2.25V4.25C19 4.66421 18.6642 5 18.25 5C17.8358 5 17.5 4.66421 17.5 4.25V2.25ZM18.25 0C17.0074 0 16 1.00736 16 2.25V4.25C16 5.49264 17.0074 6.5 18.25 6.5C19.4926 6.5 20.5 5.49264 20.5 4.25V2.25C20.5 1.00736 19.4926 0 18.25 0Z" fill="#161616"/>
</svg>
