<svg width="21" height="21" viewBox="0 0 21 21" fill="none" xmlns="http://www.w3.org/2000/svg">
<path fill-rule="evenodd" clip-rule="evenodd" d="M15.5615 0.180064C16.9381 0.365154 18.0304 0.752194 18.8886 1.61038C19.7468 2.46858 20.1338 3.56084 20.3189 4.93749C20.4866 6.18496 20.4986 7.75769 20.4994 9.73L20.4995 10.3067C20.4995 12.4974 20.4995 14.2181 20.3189 15.5615C20.1338 16.9381 19.7468 18.0304 18.8886 18.8886C18.0304 19.7468 16.9381 20.1338 15.5615 20.3189C14.314 20.4866 12.7413 20.4986 10.7689 20.4994L10.1923 20.4995C8.00157 20.4995 6.28091 20.4995 4.93749 20.3189C3.56084 20.1338 2.46858 19.7468 1.61038 18.8886C0.752194 18.0304 0.365154 16.9381 0.180064 15.5615C0.0252721 14.41 0.00315901 12.9813 0 11.217L0 9.28192C0.00315901 7.51767 0.0252721 6.089 0.180064 4.93749C0.365154 3.56084 0.752194 2.46858 1.61038 1.61038C2.46858 0.752194 3.56084 0.365154 4.93749 0.180064C6.089 0.0252721 7.51766 0.00315901 9.28191 0L11.217 0C12.9813 0.00315901 14.41 0.0252721 15.5615 0.180064ZM11.0676 1.49987H9.43136C7.59018 1.50243 6.21528 1.52177 5.13737 1.66669C3.92704 1.82941 3.20409 2.138 2.67104 2.67104C2.138 3.20409 1.82941 3.92704 1.66669 5.13737C1.52177 6.21528 1.50243 7.59021 1.49987 9.43137V11.0676C1.50243 12.9088 1.52177 14.2837 1.66669 15.3616C1.82941 16.5719 2.138 17.2949 2.67104 17.8279C3.20409 18.361 3.92704 18.6696 5.13737 18.8323C6.21528 18.9772 7.59018 18.9965 9.43136 18.9991H11.0676C12.9088 18.9965 14.2837 18.9772 15.3616 18.8323C16.5719 18.6696 17.2949 18.361 17.8279 17.8279C18.361 17.2949 18.6696 16.5719 18.8323 15.3616C18.9772 14.2837 18.9965 12.9088 18.9991 11.0676V9.43137C18.9965 7.59021 18.9772 6.21528 18.8323 5.13737C18.6696 3.92704 18.361 3.20409 17.8279 2.67104C17.2949 2.138 16.5719 1.82941 15.3616 1.66669C14.2837 1.52177 12.9088 1.50243 11.0676 1.49987ZM6.74947 4.49947C7.72913 4.49947 8.56257 5.12558 8.87147 5.99947H15.2495C15.6637 5.99947 15.9995 6.33526 15.9995 6.74947C15.9995 7.16368 15.6637 7.49947 15.2495 7.49947H8.87147C8.56257 8.37337 7.72913 8.99947 6.74947 8.99947C5.50683 8.99947 4.49947 7.99211 4.49947 6.74947C4.49947 5.50683 5.50683 4.49947 6.74947 4.49947ZM6.74947 5.99947C6.33526 5.99947 5.99947 6.33526 5.99947 6.74947C5.99947 7.16368 6.33526 7.49947 6.74947 7.49947C7.16368 7.49947 7.49947 7.16368 7.49947 6.74947C7.49947 6.33526 7.16368 5.99947 6.74947 5.99947ZM13.7495 11.4995C14.9921 11.4995 15.9995 12.5069 15.9995 13.7495C15.9995 14.9921 14.9921 15.9995 13.7495 15.9995C12.7698 15.9995 11.9364 15.3734 11.6275 14.4995H5.24947C4.83526 14.4995 4.49947 14.1637 4.49947 13.7495C4.49947 13.3353 4.83526 12.9995 5.24947 12.9995H11.6275C11.9364 12.1256 12.7698 11.4995 13.7495 11.4995ZM13.7495 12.9995C13.3353 12.9995 12.9995 13.3353 12.9995 13.7495C12.9995 14.1637 13.3353 14.4995 13.7495 14.4995C14.1637 14.4995 14.4995 14.1637 14.4995 13.7495C14.4995 13.3353 14.1637 12.9995 13.7495 12.9995Z" fill="white"/>
</svg>
