<svg width="22" height="20" viewBox="0 0 22 20" fill="none" xmlns="http://www.w3.org/2000/svg">
<path fill-rule="evenodd" clip-rule="evenodd" d="M9.70475 0H11.7952C13.6318 -8.14982e-06 15.0714 -1.46478e-05 16.2135 0.123728C17.3791 0.250006 18.3234 0.512324 19.1298 1.09815C19.6179 1.45281 20.0472 1.88209 20.4018 2.37024C20.9877 3.17656 21.25 4.12094 21.3763 5.28648C21.5 6.42859 21.5 7.86816 21.5 9.70465V9.70473V9.79527V9.79535C21.5 11.6318 21.5 13.0714 21.3763 14.2135C21.25 15.3791 20.9877 16.3234 20.4018 17.1298C20.0472 17.6179 19.6179 18.0472 19.1298 18.4018C18.3234 18.9877 17.3791 19.25 16.2135 19.3763C15.0714 19.5 13.6318 19.5 11.7953 19.5H11.7953H9.70473H9.70465C7.86817 19.5 6.42859 19.5 5.28648 19.3763C4.12094 19.25 3.17656 18.9877 2.37024 18.4018C1.88209 18.0472 1.45281 17.6179 1.09815 17.1298C0.512324 16.3234 0.250006 15.3791 0.123728 14.2135C-1.46478e-05 13.0714 -8.14982e-06 11.6318 0 9.79525V9.70475C-8.14982e-06 7.86821 -1.46478e-05 6.42861 0.123728 5.28648C0.250006 4.12094 0.512324 3.17656 1.09815 2.37024C1.45281 1.88209 1.88209 1.45281 2.37024 1.09815C3.17656 0.512324 4.12094 0.250006 5.28648 0.123728C6.42861 -1.46478e-05 7.86821 -8.14982e-06 9.70475 0ZM5.44805 1.615C4.41013 1.72745 3.75992 1.94259 3.25191 2.31168C2.89111 2.57382 2.57382 2.89111 2.31168 3.25191C1.94259 3.75992 1.72745 4.41013 1.615 5.44805C1.50103 6.49999 1.5 7.85843 1.5 9.75C1.5 11.6416 1.50103 13 1.615 14.052C1.72745 15.0899 1.94259 15.7401 2.31168 16.2481C2.57382 16.6089 2.89111 16.9262 3.25191 17.1883C3.75992 17.5574 4.41013 17.7725 5.44805 17.885C6.02671 17.9477 6.69812 17.9762 7.5 17.9892L7.5 1.51082C6.69812 1.52379 6.02671 1.55231 5.44805 1.615ZM9.75 18C9.49013 18 9.24033 18 9 17.9997L9 1.50035C9.24033 1.50002 9.49013 1.5 9.75 1.5H11.75C13.6416 1.5 15 1.50103 16.052 1.615C17.0899 1.72745 17.7401 1.94259 18.2481 2.31168C18.6089 2.57382 18.9262 2.89111 19.1883 3.25191C19.5574 3.75992 19.7725 4.41013 19.885 5.44805C19.999 6.49999 20 7.85843 20 9.75C20 11.6416 19.999 13 19.885 14.052C19.7725 15.0899 19.5574 15.7401 19.1883 16.2481C18.9262 16.6089 18.6089 16.9262 18.2481 17.1883C17.7401 17.5574 17.0899 17.7725 16.052 17.885C15 17.999 13.6416 18 11.75 18H9.75ZM3.75 4C3.33579 4 3 4.33579 3 4.75C3 5.16421 3.33579 5.5 3.75 5.5H5.25C5.66421 5.5 6 5.16421 6 4.75C6 4.33579 5.66421 4 5.25 4H3.75ZM3 8.75C3 8.33579 3.33579 8 3.75 8H5.25C5.66421 8 6 8.33579 6 8.75C6 9.16421 5.66421 9.5 5.25 9.5H3.75C3.33579 9.5 3 9.16421 3 8.75ZM16.2397 8.31811C16.5534 8.04768 16.5885 7.5741 16.3181 7.26035C16.0477 6.9466 15.5741 6.91148 15.2603 7.18192L14.0338 8.23911L14.0024 8.26613C13.772 8.46469 13.545 8.66027 13.3818 8.84461C13.2013 9.0485 13 9.34545 13 9.75001C13 10.1546 13.2013 10.4515 13.3818 10.6554C13.545 10.8398 13.772 11.0353 14.0024 11.2339L14.0024 11.2339L14.0338 11.2609L15.2603 12.3181C15.5741 12.5885 16.0477 12.5534 16.3181 12.2397C16.5885 11.9259 16.5534 11.4523 16.2397 11.1819L15.0131 10.1247C14.8134 9.9526 14.6815 9.83776 14.5909 9.75001C14.6815 9.66226 14.8134 9.54743 15.0131 9.3753L16.2397 8.31811Z" fill="#F2F2F7"/>
</svg>
