<svg width="22" height="22" viewBox="0 0 22 22" fill="none" xmlns="http://www.w3.org/2000/svg">
<path fill-rule="evenodd" clip-rule="evenodd" d="M11.2466 1.31208C11.557 1.03784 11.5863 0.563873 11.3121 0.253448C11.0378 -0.0569768 10.5639 -0.0863083 10.2534 0.187934C9.97851 0.430823 9.63613 0.870506 9.53135 1.4391C9.41467 2.07233 9.61598 2.74892 10.2534 3.31208C10.5639 3.58633 11.0378 3.55699 11.3121 3.24657C11.5863 2.93614 11.557 2.46218 11.2466 2.18793C11.0989 2.05751 11.0429 1.95461 11.0202 1.8919C10.9981 1.83057 10.9951 1.77295 11.0065 1.71092C11.0338 1.56285 11.1442 1.40253 11.2466 1.31208ZM4.50129 3.29633C4.52688 2.88291 4.21247 2.52703 3.79905 2.50144C3.38562 2.47586 3.02974 2.79026 3.00415 3.20368C2.98058 3.5846 3.05244 4.15947 3.39255 4.65324C3.76994 5.20113 4.41194 5.55059 5.29633 5.49586C5.70976 5.47028 6.02416 5.11439 5.99858 4.70097C5.97299 4.28755 5.61711 3.97314 5.20368 3.99873C4.98936 4.01199 4.86282 3.97604 4.7912 3.94246C4.7209 3.90949 4.6697 3.8631 4.62786 3.80235C4.5303 3.66072 4.49194 3.44744 4.50129 3.29633ZM18.2963 2.50415C17.9157 2.4806 17.3412 2.5524 16.8478 2.89228C16.3002 3.26945 15.951 3.91106 16.0057 4.79481C16.0313 5.20823 16.3871 5.52263 16.8006 5.49705C17.214 5.47146 17.5284 5.11558 17.5028 4.70216C17.4896 4.48816 17.5255 4.36188 17.559 4.29046C17.5918 4.22037 17.6381 4.16933 17.6987 4.12759C17.84 4.03026 18.0529 3.99195 18.2037 4.00129C18.6171 4.02687 18.973 3.71247 18.9986 3.29904C19.0242 2.88562 18.7098 2.52974 18.2963 2.50415ZM21.3121 10.2534C21.0692 9.97851 20.6295 9.63613 20.0609 9.53135C19.4277 9.41467 18.7511 9.61598 18.1879 10.2534C17.9137 10.5639 17.943 11.0378 18.2534 11.3121C18.5639 11.5863 19.0378 11.557 19.3121 11.2466C19.4425 11.0989 19.5454 11.0429 19.6081 11.0202C19.6695 10.9981 19.7271 10.9951 19.7891 11.0065C19.9372 11.0338 20.0975 11.1442 20.1879 11.2466C20.4622 11.557 20.9361 11.5863 21.2466 11.3121C21.557 11.0378 21.5863 10.5639 21.3121 10.2534ZM1.31208 9.75345C1.03784 9.44302 0.563874 9.41369 0.253448 9.68793C-0.0569767 9.96218 -0.0863084 10.4361 0.187934 10.7466C0.751098 11.384 1.42769 11.5853 2.06092 11.4687C2.62951 11.3639 3.06919 11.0215 3.31208 10.7466C3.58633 10.4361 3.55699 9.96218 3.24657 9.68793C2.93614 9.41369 2.46218 9.44302 2.18793 9.75345C2.09749 9.85583 1.93717 9.96621 1.7891 9.9935C1.72707 10.0049 1.66945 10.0019 1.60811 9.97977C1.54541 9.9571 1.4425 9.90108 1.31208 9.75345ZM4.99434 16.2037C4.96875 15.7903 4.61287 15.4759 4.19944 15.5014C3.78602 15.527 3.47162 15.8829 3.4972 16.2963C3.50654 16.4472 3.46823 16.66 3.3709 16.8014C3.32916 16.8619 3.27812 16.9082 3.20803 16.9411C3.13661 16.9746 3.01033 17.0104 2.79633 16.9972C2.38291 16.9716 2.02703 17.286 2.00144 17.6994C1.97586 18.1129 2.29026 18.4688 2.70368 18.4943C3.58743 18.549 4.22904 18.1998 4.60621 17.6522C4.94609 17.1588 5.01789 16.5843 4.99434 16.2037ZM16.7938 17.0013C16.9527 16.992 17.1731 17.0302 17.3175 17.1242C17.3791 17.1644 17.4204 17.2098 17.4482 17.2659C17.4761 17.3221 17.5098 17.428 17.4974 17.6178C17.4703 18.0311 17.7835 18.3881 18.1968 18.4152C18.6101 18.4422 18.9671 18.1291 18.9942 17.7158C19.0511 16.8465 18.6842 16.2242 18.1361 15.8673C17.6458 15.548 17.0788 15.4821 16.7062 15.5039C16.2927 15.528 15.9771 15.8829 16.0013 16.2964C16.0255 16.7099 16.3803 17.0255 16.7938 17.0013ZM11.2466 18.1879C10.9361 17.9137 10.4622 17.943 10.1879 18.2534C9.91369 18.5639 9.94302 19.0378 10.2534 19.3121C10.3558 19.4025 10.4662 19.5628 10.4935 19.7109C10.5049 19.773 10.5019 19.8306 10.4798 19.8919C10.4571 19.9546 10.4011 20.0575 10.2534 20.1879C9.94302 20.4622 9.91369 20.9361 10.1879 21.2466C10.4622 21.557 10.9361 21.5863 11.2466 21.3121C11.884 20.7489 12.0853 20.0723 11.9687 19.4391C11.8639 18.8705 11.5215 18.4308 11.2466 18.1879ZM6.5 10.75C6.5 8.40279 8.40279 6.5 10.75 6.5C13.0972 6.5 15 8.40279 15 10.75C15 13.0972 13.0972 15 10.75 15C8.40279 15 6.5 13.0972 6.5 10.75ZM10.75 5C7.57436 5 5 7.57436 5 10.75C5 13.9256 7.57436 16.5 10.75 16.5C13.9256 16.5 16.5 13.9256 16.5 10.75C16.5 7.57436 13.9256 5 10.75 5Z" fill="white"/>
</svg>
