<svg width="22" height="19" viewBox="0 0 22 19" fill="none" xmlns="http://www.w3.org/2000/svg">
<path fill-rule="evenodd" clip-rule="evenodd" d="M12.8034 0L8.69683 0L8.69682 0C8.38035 -1.94666e-06 8.077 -3.81266e-06 7.78615 0.000855829C7.77417 0.000287425 7.76212 0 7.75 0C7.73622 0 7.72252 0.000371816 7.70892 0.00110596C6.55778 0.00517206 5.60466 0.0241586 4.81107 0.112711C3.77537 0.22828 2.92461 0.469629 2.19269 1.01216C1.68954 1.38512 1.25404 1.8468 0.90462 2.37508C0.259348 3.35064 0.069026 4.53333 0.00119966 6.09643C-0.0311782 6.8426 0.597386 7.34375 1.21441 7.34375C2.14631 7.34375 2.9736 8.15639 2.9736 9.25C2.9736 10.3436 2.14631 11.1562 1.21441 11.1562C0.597385 11.1562 -0.0311782 11.6574 0.00119966 12.4036C0.069026 13.9667 0.259348 15.1494 0.90462 16.1249C1.25404 16.6532 1.68955 17.1149 2.19269 17.4878C2.92461 18.0304 3.77537 18.2717 4.81107 18.3873C5.60466 18.4758 6.55778 18.4948 7.70892 18.4989C7.72252 18.4996 7.73622 18.5 7.75 18.5C7.76212 18.5 7.77417 18.4997 7.78615 18.4991C8.07699 18.5 8.38033 18.5 8.69678 18.5H8.69687H12.8033H12.8034C14.4101 18.5 15.6789 18.5 16.6891 18.3873C17.7248 18.2717 18.5756 18.0304 19.3075 17.4878C19.8106 17.1149 20.2461 16.6532 20.5956 16.1249C21.2408 15.1495 21.4311 13.9669 21.499 12.4041C21.5314 11.6575 20.9024 11.1563 20.2852 11.1563C19.3533 11.1563 18.526 10.3436 18.526 9.25C18.526 8.15639 19.3533 7.34375 20.2852 7.34375C20.9024 7.34375 21.5314 6.84249 21.499 6.0959C21.4311 4.53307 21.2408 3.35053 20.5956 2.37508C20.2461 1.8468 19.8106 1.38512 19.3075 1.01216C18.5756 0.469629 17.7248 0.22828 16.6891 0.112711C15.6789 -1.76879e-05 14.4101 -9.88333e-06 12.8034 0L12.8034 0ZM8.5 17C8.57977 17 8.66067 17 8.74274 17H12.7574C14.4202 17 15.6054 16.9989 16.5228 16.8965C17.4243 16.7959 17.9796 16.6049 18.4143 16.2828C18.7743 16.0159 19.0895 15.6829 19.3445 15.2974C19.7219 14.7268 19.908 13.9719 19.9851 12.6422C18.2934 12.4829 17.026 10.989 17.026 9.25C17.026 7.51101 18.2934 6.01714 19.9851 5.8578C19.908 4.52809 19.7219 3.77324 19.3445 3.2026C19.0895 2.81713 18.7743 2.48406 18.4143 2.2172C17.9796 1.89505 17.4243 1.70406 16.5228 1.60346C15.6054 1.50109 14.4202 1.5 12.7574 1.5L8.74274 1.5C8.66067 1.5 8.57977 1.5 8.5 1.50002L8.5 17ZM7 1.50647C6.19476 1.51631 5.53639 1.54109 4.97742 1.60346C4.07586 1.70406 3.52053 1.89505 3.08593 2.2172C2.72592 2.48406 2.41067 2.81713 2.1557 3.2026C1.77825 3.77325 1.59218 4.52811 1.51509 5.85785C3.2065 6.01748 4.4736 7.5112 4.4736 9.25C4.4736 10.9888 3.2065 12.4825 1.5151 12.6421C1.59219 13.9719 1.77825 14.7268 2.1557 15.2974C2.41067 15.6829 2.72592 16.0159 3.08593 16.2828C3.52053 16.6049 4.07586 16.7959 4.97742 16.8965C5.53639 16.9589 6.19476 16.9837 7 16.9935L7 1.50647Z" fill="white"/>
</svg>
