<svg width="22" height="22" viewBox="0 0 22 22" fill="none" xmlns="http://www.w3.org/2000/svg">
<path fill-rule="evenodd" clip-rule="evenodd" d="M8.70001 0H10.81C12.65 0 14.1 1.51992e-06 15.24 0.150002C16.41 0.310002 17.36 0.639999 18.11 1.39C18.86 2.14 19.19 3.09 19.35 4.26C19.5 5.4 19.5 6.86 19.5 8.69V9.25C19.5 9.66 19.16 10 18.75 10C18.34 10 18 9.66 18 9.25V8.75C18 6.84 18 5.49 17.86 4.46C17.72 3.45 17.47 2.87 17.05 2.45C16.63 2.03 16.05 1.77 15.04 1.64C14.01 1.5 12.66 1.5 10.75 1.5H8.75C6.84 1.5 5.49002 1.5 4.46002 1.64C3.45002 1.77 2.87001 2.03 2.45001 2.45C2.03001 2.87 1.77001 3.45 1.64001 4.46C1.50001 5.49 1.5 6.84 1.5 8.75V11.75C1.5 13.66 1.50001 15.01 1.64001 16.04C1.78001 17.05 2.03001 17.63 2.45001 18.05C2.87001 18.47 3.45002 18.73 4.46002 18.86C5.49002 19 6.84 19 8.75 19H9.75C10.16 19 10.5 19.34 10.5 19.75C10.5 20.16 10.16 20.5 9.75 20.5H8.69C6.85 20.5 5.40001 20.5 4.26001 20.35C3.09001 20.19 2.14001 19.86 1.39001 19.11C0.640015 18.36 0.310024 17.41 0.150024 16.24C2.44081e-05 15.1 0 13.64 0 11.81V8.7C0 6.86 2.44081e-05 5.41 0.150024 4.27C0.310024 3.1 0.640015 2.15 1.39001 1.4C2.14001 0.650002 3.09001 0.319996 4.26001 0.159996C5.40001 0.00999603 6.86 0.0100021 8.69 0.0100021L8.70001 0ZM18.05 12.88C17.59 11.71 15.93 11.71 15.47 12.88L15.43 12.97C14.99 14.09 14.1 14.98 12.98 15.42L12.89 15.46C11.72 15.92 11.72 17.58 12.89 18.04L12.98 18.08C14.1 18.52 14.99 19.41 15.43 20.53L15.47 20.62C15.93 21.79 17.59 21.79 18.05 20.62L18.09 20.53C18.53 19.41 19.42 18.52 20.54 18.08L20.63 18.04C21.8 17.58 21.8 15.92 20.63 15.46L20.54 15.42C19.42 14.98 18.53 14.09 18.09 12.97L18.05 12.88ZM16.76 13.69C17.35 15.07 18.45 16.16 19.82 16.75C18.44 17.34 17.35 18.44 16.76 19.81C16.17 18.43 15.07 17.34 13.7 16.75C15.08 16.16 16.17 15.06 16.76 13.69ZM5.76001 5C5.35001 5 5.01001 5.34 5.01001 5.75C5.01001 6.16 5.35001 6.5 5.76001 6.5H13.76C14.17 6.5 14.51 6.16 14.51 5.75C14.51 5.34 14.17 5 13.76 5H5.76001ZM5.76001 9.5C5.35001 9.5 5.01001 9.84 5.01001 10.25C5.01001 10.66 5.35001 11 5.76001 11H13.76C14.17 11 14.51 10.66 14.51 10.25C14.51 9.84 14.17 9.5 13.76 9.5H5.76001ZM5.76001 14C5.35001 14 5.01001 14.34 5.01001 14.75C5.01001 15.16 5.35001 15.5 5.76001 15.5H9.76001C10.17 15.5 10.51 15.16 10.51 14.75C10.51 14.34 10.17 14 9.76001 14H5.76001Z" fill="white"/>
</svg>
