<svg width="24" height="24" viewBox="0 0 24 24" fill="none" xmlns="http://www.w3.org/2000/svg">
<path d="M14.4327 1.67139C14.4652 1.54955 14.5215 1.43533 14.5983 1.33525C14.675 1.23517 14.7707 1.15119 14.8799 1.08812C14.9892 1.02504 15.1097 0.984102 15.2348 0.96764C15.3598 0.951178 15.4869 0.959515 15.6087 0.992174C17.3884 1.45652 19.0121 2.38689 20.3127 3.68746C21.6133 4.98804 22.5437 6.61179 23.008 8.3915C23.0407 8.51332 23.049 8.64038 23.0325 8.76542C23.0161 8.89046 22.9751 9.01103 22.9121 9.12024C22.849 9.22945 22.765 9.32517 22.6649 9.40191C22.5649 9.47866 22.4506 9.53493 22.3288 9.56752C22.2477 9.58886 22.1642 9.59975 22.0804 9.59992C21.8688 9.59992 21.6632 9.53003 21.4955 9.40113C21.3277 9.27223 21.2072 9.09153 21.1528 8.88711C20.7741 7.43427 20.0147 6.10871 18.9531 5.04707C17.8915 3.98543 16.5659 3.22612 15.1131 2.84741C14.9911 2.81495 14.8768 2.75877 14.7766 2.68207C14.6764 2.60538 14.5922 2.50969 14.529 2.40046C14.4659 2.29123 14.4248 2.17062 14.4083 2.04552C14.3917 1.92042 14.4 1.79328 14.4327 1.67139ZM14.1531 6.68747C15.8079 7.12908 16.8711 8.1923 17.3127 9.84713C17.3672 10.0515 17.4877 10.2322 17.6554 10.3611C17.8231 10.49 18.0288 10.5599 18.2403 10.5599C18.3242 10.5598 18.4076 10.5489 18.4887 10.5275C18.6106 10.495 18.7248 10.4387 18.8249 10.3619C18.9249 10.2852 19.0089 10.1895 19.072 10.0803C19.1351 9.97104 19.176 9.85047 19.1925 9.72543C19.2089 9.60039 19.2006 9.47334 19.1679 9.35152C18.5535 7.05228 16.9479 5.44665 14.6487 4.83224C14.4026 4.76652 14.1406 4.80122 13.9202 4.92871C13.6997 5.0562 13.539 5.26603 13.4732 5.51205C13.4075 5.75807 13.4422 6.02012 13.5697 6.24056C13.6972 6.46099 13.907 6.62175 14.1531 6.68747ZM23.986 18.1297C23.772 19.7557 22.9735 21.2483 21.7395 22.3286C20.5055 23.4089 18.9204 24.0031 17.2803 24.0002C7.75214 24.0002 1.08586e-05 16.248 1.08586e-05 6.71987C-0.00292917 5.07979 0.591245 3.49472 1.67156 2.26071C2.75187 1.0267 4.24445 0.228129 5.87051 0.0141574C6.2817 -0.0360504 6.6981 0.0480725 7.05756 0.253968C7.41701 0.459863 7.70023 0.776488 7.86495 1.15658L10.3994 6.81467V6.82908C10.5255 7.12002 10.5776 7.43768 10.551 7.75366C10.5244 8.06965 10.4199 8.37413 10.247 8.63991C10.2254 8.67231 10.2026 8.70231 10.1786 8.73231L7.68014 11.694C8.57896 13.5204 10.4894 15.414 12.3398 16.3152L15.2607 13.83C15.2893 13.8059 15.3194 13.7834 15.3507 13.7628C15.6162 13.5857 15.9218 13.4776 16.2396 13.4482C16.5575 13.4189 16.8776 13.4693 17.1711 13.5948L17.1867 13.602L22.84 16.1352C23.2208 16.2994 23.5382 16.5823 23.7447 16.9418C23.9513 17.3013 24.036 17.7181 23.986 18.1297ZM22.0804 17.8897H22.0672L16.4271 15.3636L13.505 17.8489C13.4768 17.873 13.4471 17.8954 13.4162 17.9161C13.1399 18.1004 12.8206 18.2099 12.4893 18.2339C12.158 18.2579 11.8262 18.1955 11.5262 18.0529C9.27857 16.9668 7.03813 14.7432 5.95091 12.5196C5.80694 12.2218 5.74234 11.8919 5.76337 11.5618C5.78439 11.2317 5.89033 10.9126 6.07091 10.6355C6.09122 10.603 6.11409 10.5721 6.13932 10.5431L8.64016 7.57789L6.12012 1.93779C6.11963 1.933 6.11963 1.92818 6.12012 1.92339C4.9564 2.07519 3.88793 2.646 3.1148 3.52892C2.34167 4.41183 1.9169 5.5463 1.92004 6.71987C1.92449 10.7923 3.54423 14.6967 6.42387 17.5763C9.30352 20.456 13.2079 22.0757 17.2803 22.0801C18.4532 22.0842 19.5873 21.6609 20.4708 20.8894C21.3542 20.118 21.9264 19.0512 22.0804 17.8885V17.8897Z" fill="#06B6D4"/>
</svg>
