<svg width="24" height="24" viewBox="0 0 24 24" fill="none" xmlns="http://www.w3.org/2000/svg">
<path d="M4.74613 0.139861L3.35233 0.559074C2.61576 0.7812 1.94882 1.18932 1.4158 1.74409C0.882785 2.29887 0.501659 2.98159 0.309161 3.72646C-0.547179 7.03716 0.380822 10.9844 3.02628 15.5659C5.66816 20.1414 8.61698 22.9171 11.9074 23.8355C12.6523 24.0432 13.4383 24.0544 14.1888 23.8681C14.9394 23.6818 15.6289 23.3044 16.1903 22.7726L17.2497 21.7705C17.827 21.2235 18.1863 20.4856 18.2607 19.6938C18.3352 18.9019 18.1198 18.11 17.6545 17.4649L16.1246 15.345C15.7234 14.7889 15.1583 14.3723 14.5085 14.1537C13.8587 13.935 13.1567 13.9252 12.501 14.1256L10.1003 14.8601C10.0323 14.8792 9.87342 14.8242 9.58319 14.5675C9.16876 14.1996 8.68147 13.5451 8.14282 12.6123C7.40233 11.3296 7.07986 10.4052 7.13361 9.93104C7.14124 9.86035 7.17385 9.79471 7.22557 9.74592L9.01111 8.08221C9.51306 7.6144 9.8559 7.00114 9.99149 6.32853C10.1271 5.65592 10.0486 4.95773 9.76712 4.33199L8.68983 1.93734C8.36274 1.21001 7.78221 0.626541 7.05654 0.295793C6.33087 -0.0349542 5.50965 -0.0903791 4.74613 0.139861ZM2.04215 4.17553C2.15781 3.72849 2.38672 3.31879 2.70679 2.98596C3.02686 2.65312 3.4273 2.40838 3.86948 2.27534L5.26328 1.85493C5.61017 1.75057 5.98318 1.77589 6.31279 1.92619C6.6424 2.07649 6.90611 2.34151 7.05478 2.67186L8.13207 5.0677C8.26006 5.352 8.29582 5.66924 8.23435 5.9749C8.17287 6.28056 8.01725 6.5593 7.7893 6.77202L6.00376 8.43573C5.63884 8.77646 5.40794 9.23657 5.35285 9.73278C5.24536 10.6906 5.67293 11.9184 6.59138 13.5081C7.95292 15.8669 9.22012 16.9908 10.6175 16.5751L13.0241 15.8382C13.3223 15.7469 13.6416 15.7512 13.9372 15.8506C14.2328 15.95 14.4898 16.1395 14.6723 16.3924L16.201 18.5124C16.413 18.8057 16.5112 19.166 16.4773 19.5263C16.4435 19.8866 16.2799 20.2223 16.0171 20.4711L14.9589 21.4731C14.6219 21.7921 14.2081 22.0184 13.7577 22.1299C13.3072 22.2415 12.8356 22.2345 12.3887 22.1097C9.62141 21.3382 7.00701 18.8766 4.57772 14.6702C2.14605 10.4577 1.32196 6.95953 2.04215 4.17553ZM23.3252 1.58859C23.4108 1.50592 23.479 1.40705 23.5258 1.29774C23.5727 1.18843 23.5974 1.07088 23.5984 0.951944C23.5993 0.833006 23.5766 0.715065 23.5315 0.605002C23.4864 0.494939 23.4199 0.394958 23.3357 0.310894C23.2516 0.226829 23.1516 0.160364 23.0414 0.115376C22.9313 0.0703891 22.8134 0.0477803 22.6944 0.0488696C22.5755 0.0499588 22.458 0.0747241 22.3487 0.12172C22.2395 0.168717 22.1406 0.237003 22.0581 0.322595L15.2276 7.15421L12.9942 4.92079C12.8244 4.76257 12.5998 4.67643 12.3678 4.68052C12.1357 4.68462 11.9143 4.77863 11.7502 4.94274C11.5861 5.10686 11.492 5.32827 11.488 5.56034C11.4839 5.7924 11.57 6.01699 11.7282 6.18679L14.5946 9.0532C14.7626 9.22095 14.9903 9.31517 15.2276 9.31517C15.465 9.31517 15.6927 9.22095 15.8606 9.0532L23.3252 1.58859Z" fill="#06B6D4"/>
</svg>
