<svg width="34" height="34" viewBox="0 0 34 34" fill="none" xmlns="http://www.w3.org/2000/svg">
<g clip-path="url(#clip0_74_10551)">
<path d="M7.23926 21.4416C7.23926 23.3887 5.65135 24.979 3.70406 24.979C1.75676 24.979 0.166992 23.3887 0.166992 21.4416C0.166992 19.4946 1.75729 17.9043 3.70432 17.9043H7.23952L7.23926 21.4416ZM9.02134 21.4416C9.02134 19.4946 10.6116 17.9043 12.5587 17.9043C14.5057 17.9043 16.096 19.4943 16.096 21.4416V30.2962C16.096 32.2433 14.506 33.8336 12.5587 33.8336C10.6116 33.8336 9.02134 32.2433 9.02134 30.2962V21.4416Z" fill="#DE1C59"/>
<path d="M12.5587 7.24005C10.6116 7.24005 9.02134 5.65215 9.02134 3.70485C9.02134 1.75755 10.6116 0.167786 12.5587 0.167786C14.5057 0.167786 16.096 1.75808 16.096 3.70511V7.24032L12.5587 7.24005ZM12.5587 9.02213C14.5057 9.02213 16.096 10.6124 16.096 12.5595C16.096 14.5065 14.506 16.0968 12.5587 16.0968H3.70406C1.75702 16.0968 0.166992 14.5068 0.166992 12.5595C0.166992 10.6124 1.75729 9.02213 3.70432 9.02213H12.5587Z" fill="#35C5F0"/>
<path d="M26.7601 12.5595C26.7601 10.6124 28.348 9.02213 30.2953 9.02213C32.2426 9.02213 33.8326 10.6124 33.8326 12.5595C33.8326 14.5065 32.2423 16.0968 30.2953 16.0968H26.7601V12.5595ZM24.978 12.5595C24.978 14.5065 23.3877 16.0968 21.4406 16.0968C19.4936 16.0968 17.9033 14.5068 17.9033 12.5595V3.70485C17.9033 1.75782 19.4934 0.167786 21.4406 0.167786C23.3877 0.167786 24.978 1.75808 24.978 3.70511V12.5595Z" fill="#2EB57D"/>
<path d="M21.4406 26.761C23.3877 26.761 24.978 28.3489 24.978 30.2962C24.978 32.2435 23.3877 33.8336 21.4406 33.8336C19.4936 33.8336 17.9033 32.2433 17.9033 30.2962V26.761H21.4406ZM21.4406 24.979C19.4936 24.979 17.9033 23.3887 17.9033 21.4416C17.9033 19.4946 19.4934 17.9043 21.4406 17.9043H30.2953C32.2423 17.9043 33.8326 19.4943 33.8326 21.4416C33.8326 23.3887 32.2423 24.979 30.2953 24.979H21.4406Z" fill="#EBB02E"/>
</g>
<defs>
<clipPath id="clip0_74_10551">
<rect width="34" height="34" fill="white"/>
</clipPath>
</defs>
</svg>
