<svg width="34" height="34" viewBox="0 0 34 34" fill="none" xmlns="http://www.w3.org/2000/svg">
<g clip-path="url(#clip0_74_10576)">
<path d="M25.9474 8.05273H8.05273V25.9474H25.9474V8.05273Z" fill="white"/>
<path d="M25.9473 34.0003L33.9999 25.9476L29.9736 25.2607L25.9473 25.9476L25.2124 29.6305L25.9473 34.0003Z" fill="#EA4335"/>
<path d="M0 25.9476V31.3161C0 32.7992 1.20116 34.0003 2.68414 34.0003H8.05269L8.87945 29.974L8.05269 25.9476L3.66549 25.2607L0 25.9476Z" fill="#188038"/>
<path d="M33.9999 8.05269V2.68414C33.9999 1.20116 32.7988 0 31.3158 0H25.9473C25.4574 1.99697 25.2125 3.46658 25.2124 4.40884C25.2124 5.35102 25.4574 6.56563 25.9473 8.05269C27.7283 8.56269 29.0704 8.81769 29.9736 8.81769C30.8768 8.81769 32.2189 8.56278 33.9999 8.05269Z" fill="#1967D2"/>
<path d="M34 8.05273H25.9473V25.9474H34V8.05273Z" fill="#FBBC04"/>
<path d="M25.9474 25.9473H8.05273V34H25.9474V25.9473Z" fill="#34A853"/>
<path d="M25.9473 0H2.68427C1.20116 0 0 1.20116 0 2.68414V25.9473H8.05269V8.05269H25.9473V0Z" fill="#4285F4"/>
<path d="M11.7236 21.9341C11.0547 21.4823 10.5916 20.8225 10.3389 19.9499L11.8913 19.3103C12.0321 19.8471 12.2782 20.2632 12.6295 20.5584C12.9784 20.8537 13.4034 20.9991 13.9 20.9991C14.4077 20.9991 14.8438 20.8447 15.2084 20.536C15.5731 20.2273 15.7566 19.8337 15.7566 19.3573C15.7566 18.8696 15.5642 18.4714 15.1795 18.1628C14.7947 17.8541 14.3116 17.6998 13.7345 17.6998H12.8375V16.1631H13.6427C14.1393 16.1631 14.5575 16.0289 14.8975 15.7603C15.2375 15.492 15.4075 15.1251 15.4075 14.6576C15.4075 14.2416 15.2555 13.9105 14.9513 13.6623C14.6472 13.4139 14.2623 13.2887 13.7948 13.2887C13.3384 13.2887 12.9761 13.4095 12.7077 13.6533C12.4394 13.8977 12.2377 14.2064 12.1216 14.5503L10.585 13.9105C10.7884 13.3334 11.162 12.8234 11.71 12.3828C12.258 11.9421 12.9582 11.7207 13.8082 11.7207C14.4368 11.7207 15.0027 11.8416 15.5038 12.0853C16.0048 12.3291 16.3984 12.6669 16.6825 13.0964C16.9667 13.528 17.1075 14.0112 17.1075 14.548C17.1075 15.096 16.9756 15.5591 16.7117 15.9394C16.4478 16.3196 16.1234 16.6103 15.7386 16.8139V16.9056C16.2354 17.1104 16.667 17.4469 16.9868 17.8787C17.3111 18.3148 17.4745 18.836 17.4745 19.4445C17.4745 20.0528 17.32 20.5964 17.0114 21.0728C16.7027 21.5494 16.2756 21.9251 15.7341 22.198C15.1906 22.4709 14.58 22.6097 13.9022 22.6097C13.117 22.6119 12.3924 22.3859 11.7236 21.9341ZM21.259 14.2303L19.5546 15.4628L18.7023 14.17L21.7601 11.9644H22.9321V22.368H21.259V14.2303Z" fill="#4285F4"/>
</g>
<defs>
<clipPath id="clip0_74_10576">
<rect width="34" height="34" fill="white"/>
</clipPath>
</defs>
</svg>
