<svg width="196" height="160" viewBox="0 0 196 160" fill="none" xmlns="http://www.w3.org/2000/svg">
<path d="M27.8446 120.597C27.8552 120.607 27.8659 120.616 27.8766 120.626C42.8455 134.333 57.564 140.789 75.05 134.112C94.8579 126.549 127.234 139.826 150.061 136.564C157.619 135.485 164.233 130.424 166.94 123.241C170.359 114.166 170.065 103.275 167.906 90.7438C163.051 62.5719 162.223 45.8668 141.167 35.9001C129.104 30.193 94.7076 27.8517 81.0079 29.4936C45.9106 33.6993 -1.49729 52.7647 19.443 107.785C22.3417 115.401 27.5216 120.296 27.8446 120.597Z" fill="#06B6D4" fill-opacity="0.75"/>
<path d="M27.8446 120.596C27.8552 120.607 27.8659 120.616 27.8766 120.626C42.8455 134.333 57.564 140.789 75.05 134.112C94.8579 126.549 127.234 139.826 150.061 136.564C157.619 135.485 164.233 130.424 166.94 123.241C170.359 114.166 170.065 103.275 167.906 90.7438C163.051 62.5719 162.223 45.8668 141.167 35.9001C129.104 30.193 94.7076 27.8517 81.0079 29.4936C45.9106 33.6993 -1.49729 52.7647 19.443 107.785C22.3417 115.401 27.5216 120.296 27.8446 120.596Z" fill="#06B6D4" fill-opacity="0.25"/>
<path d="M30 65.4082H159.006L159.023 131.951C159.024 135.917 155.829 139.132 151.888 139.132H37.1546C33.2135 139.132 30.0178 135.917 30.0168 131.951L30 65.4082Z" fill="white"/>
<mask id="mask0_382_2274" style="mask-type:luminance" maskUnits="userSpaceOnUse" x="30" y="65" width="130" height="75">
<path d="M30 65.4082H159.006L159.023 131.951C159.024 135.917 155.829 139.132 151.888 139.132H37.1546C33.2135 139.132 30.0178 135.917 30.0168 131.951L30 65.4082Z" fill="white"/>
</mask>
<g mask="url(#mask0_382_2274)">
<path d="M30.0003 65.4086L30 64.4023H29L29.0003 65.4086H30.0003ZM159.006 65.4086H160.006L160.005 64.4023H159.005L159.006 65.4086ZM30.0006 66.4149H159.006L159.005 64.4023H30L30.0006 66.4149ZM158.006 65.4086L158.023 131.952H160.023L160.006 65.4086H158.006ZM151.888 138.126H37.1547L37.1552 140.139H151.889L151.888 138.126ZM31.0171 131.952L31.0003 65.4086H29.0003L29.0171 131.952H31.0171ZM37.1547 138.126C33.7658 138.126 31.018 135.362 31.0171 131.952H29.0171C29.0183 136.473 32.6618 140.139 37.1552 140.139L37.1547 138.126ZM158.023 131.952C158.023 135.362 155.277 138.126 151.888 138.126L151.889 140.139C156.382 140.139 160.024 136.473 160.023 131.952H158.023Z" fill="#06B6D4"/>
</g>
<path fill-rule="evenodd" clip-rule="evenodd" d="M87.821 91.4512L33.321 137.237L32.6777 136.472L87.1777 90.6855L87.821 91.4512Z" fill="#06B6D4"/>
<path fill-rule="evenodd" clip-rule="evenodd" d="M156.182 137.241L100.682 91.455L101.318 90.6836L156.818 136.47L156.182 137.241Z" fill="#06B6D4"/>
<mask id="mask1_382_2274" style="mask-type:alpha" maskUnits="userSpaceOnUse" x="30" y="18" width="129" height="93">
<path d="M94.3512 109.593L30.8633 65.3981L93.6735 19.2852L158.128 65.4023L94.3512 109.593Z" fill="#D9D9D9" stroke="#E9E9E9"/>
</mask>
<g mask="url(#mask1_382_2274)">
<path d="M140 37.7363H49C48.1716 37.7363 47.5 38.4122 47.5 39.2458V115.724C47.5 116.557 48.1716 117.233 49 117.233H140C140.828 117.233 141.5 116.557 141.5 115.724V39.2458C141.5 38.4122 140.828 37.7363 140 37.7363Z" fill="white"/>
<path fill-rule="evenodd" clip-rule="evenodd" d="M47 39.2458C47 38.139 47.8925 37.2363 49 37.2363H140C141.107 37.2363 142 38.1389 142 39.2458V115.724C142 116.83 141.107 117.733 140 117.733H49C47.8924 117.733 47 116.83 47 115.724V39.2458ZM49 38.2363C48.4507 38.2363 48 38.6853 48 39.2458V115.724C48 116.284 48.4508 116.733 49 116.733H140C140.549 116.733 141 116.284 141 115.724V39.2458C141 38.6854 140.549 38.2363 140 38.2363H49Z" fill="#06B6D4"/>
</g>
<path fill-rule="evenodd" clip-rule="evenodd" d="M93.6699 18.668L158.997 65.4092L94.3508 110.202L30.0039 65.4092L93.6699 18.668ZM93.6775 19.903L31.7231 65.3876L94.3521 108.985L157.26 65.396L93.6775 19.903Z" fill="#06B6D4"/>
<mask id="mask2_382_2274" style="mask-type:luminance" maskUnits="userSpaceOnUse" x="30" y="1" width="129" height="65">
<path d="M159 1.00586H30V65.4084H159V1.00586Z" fill="white"/>
</mask>
<g mask="url(#mask2_382_2274)">
<g filter="url(#filter0_d_382_2274)">
<path d="M29 64.4023H161.005L157.006 66.4149H31.0006L29 64.4023ZM161.023 131.952C161.024 137.029 156.935 141.145 151.889 141.145H37.1554C32.662 141.145 29.0185 137.479 29.0174 132.958L31.0171 131.952C31.0178 134.805 33.7656 137.12 37.1544 137.12H151.888C154.724 137.12 157.023 134.805 157.023 131.952H161.023ZM37.1554 141.145C32.662 141.145 29.0185 137.479 29.0174 132.958L29 64.4023L31.0006 66.4149L31.0171 131.952C31.0178 134.805 33.7656 137.12 37.1544 137.12L37.1554 141.145ZM161.005 64.4023L161.023 131.952C161.024 137.029 156.935 141.145 151.889 141.145L151.888 137.12C154.724 137.12 157.023 134.805 157.023 131.952L157.006 66.4149L161.005 64.4023Z" fill="#06B6D4"/>
</g>
<path d="M94.3512 109.593L30.8633 65.3981L93.6735 19.2852L158.128 65.4023L94.3512 109.593Z" fill="#F7F7F7"/>
<path fill-rule="evenodd" clip-rule="evenodd" d="M93.6699 18.668L158.997 65.4092L94.3508 110.202L30.0039 65.4092L93.6699 18.668ZM93.6775 19.903L31.7231 65.3876L94.3521 108.985L157.26 65.396L93.6775 19.903Z" fill="#06B6D4"/>
<path d="M127 38.2402L134 45.2843L141 52.3283H127V38.2402Z" fill="#F5F5F5"/>
<path fill-rule="evenodd" clip-rule="evenodd" d="M129.272 37.2324H49C47.8954 37.2324 47 38.1335 47 39.245V115.723C47 116.835 47.8954 117.736 49 117.736H140C141.105 117.736 142 116.835 142 115.723V50.04L129.272 37.2324Z" fill="white"/>
<mask id="mask3_382_2274" style="mask-type:luminance" maskUnits="userSpaceOnUse" x="47" y="37" width="95" height="81">
<path fill-rule="evenodd" clip-rule="evenodd" d="M129.272 37.2324H49C47.8954 37.2324 47 38.1335 47 39.245V115.723C47 116.835 47.8954 117.736 49 117.736H140C141.105 117.736 142 116.835 142 115.723V50.04L129.272 37.2324Z" fill="white"/>
</mask>
<g mask="url(#mask3_382_2274)">
<path d="M129.272 37.2329L129.98 36.5213L129.687 36.2266H129.272V37.2329ZM142 50.0404H143V49.6236L142.707 49.3289L142 50.0404ZM49 38.2391H129.272V36.2266H49V38.2391ZM48 39.2454C48 38.6897 48.4477 38.2391 49 38.2391V36.2266C47.3431 36.2266 46 37.5781 46 39.2454H48ZM48 115.723V39.2454H46V115.723H48ZM49 116.73C48.4477 116.73 48 116.279 48 115.723H46C46 117.391 47.3431 118.742 49 118.742V116.73ZM140 116.73H49V118.742H140V116.73ZM141 115.723C141 116.279 140.552 116.73 140 116.73V118.742C141.657 118.742 143 117.391 143 115.723H141ZM141 50.0404V115.723H143V50.0404H141ZM142.707 49.3289L129.98 36.5213L128.565 37.9444L141.293 50.7519L142.707 49.3289Z" fill="#06B6D4"/>
</g>
<path d="M129 50.9067V38.3281L141.329 50.735C141.392 50.7984 141.348 50.9067 141.259 50.9067H129Z" fill="#F4F4F4"/>
<path fill-rule="evenodd" clip-rule="evenodd" d="M129.607 37.6113L141.936 50.0182L141.581 50.3706M129.341 37.8755H128.752V51.0424H141.511C142.058 51.0424 142.302 50.3873 141.936 50.0182M129.752 39.1763L140.55 50.0424H129.752V39.1763Z" fill="#06B6D4"/>
</g>
<path d="M95.0441 46.3418H94.971C82.8419 46.3418 73.0025 56.2362 72.9941 68.4416C72.9857 80.6469 82.8114 90.5413 94.9406 90.5413H95.0137C107.143 90.5413 116.982 80.6469 116.991 68.4416C116.999 56.2362 107.173 46.3418 95.0441 46.3418Z" fill="#06B6D4" fill-opacity="0.06"/>
<path d="M95.0441 46.3418H94.971C82.8419 46.3418 73.0025 56.2362 72.9941 68.4416C72.9857 80.6469 82.8114 90.5413 94.9406 90.5413H95.0137C107.143 90.5413 116.982 80.6469 116.991 68.4416C116.999 56.2362 107.173 46.3418 95.0441 46.3418Z" stroke="white" stroke-width="2"/>
<path d="M94.7884 57.7012C88.9895 57.7012 84.2853 62.4316 84.2813 68.267C84.2772 74.1024 88.9749 78.8329 94.7738 78.8329C100.572 78.8329 105.276 74.1025 105.28 68.2671C105.285 62.4317 100.587 57.7012 94.7884 57.7012Z" fill="#06B6D4" fill-opacity="0.75"/>
<path fill-rule="evenodd" clip-rule="evenodd" d="M99.6346 63.7001C100.08 64.0272 100.175 64.6531 99.8482 65.0981L94.3188 72.622C94.138 72.8681 93.8547 73.018 93.5496 73.0292C93.2445 73.0404 92.951 72.9115 92.7527 72.6794L89.7768 69.1963C89.4181 68.7764 89.4677 68.1451 89.8876 67.7864C90.3075 67.4276 90.9387 67.4772 91.2974 67.8971L93.4541 70.4214L98.2366 63.9137C98.5637 63.4687 99.1896 63.3731 99.6346 63.7001Z" fill="white"/>
<path fill-rule="evenodd" clip-rule="evenodd" d="M20.886 27.2158C19.273 27.2158 17.958 28.5321 17.958 30.1669C17.958 31.8018 19.273 33.1181 20.886 33.1181C22.4989 33.1181 23.8139 31.8018 23.8139 30.1669C23.8139 28.5321 22.4989 27.2158 20.886 27.2158ZM16.418 30.1669C16.418 27.6907 18.4134 25.6758 20.886 25.6758C23.3585 25.6758 25.3539 27.6907 25.3539 30.1669C25.3539 32.6432 23.3585 34.6581 20.886 34.6581C18.4134 34.6581 16.418 32.6432 16.418 30.1669Z" fill="#06B6D4"/>
<path fill-rule="evenodd" clip-rule="evenodd" d="M110.718 148.846L112.698 153.955L114.684 159.044L109.31 158.241H109.308L103.949 157.427L110.718 148.846ZM110.257 151.918L106.8 156.302L109.537 156.718H109.539L112.283 157.128L111.263 154.513L110.257 151.918Z" fill="#06B6D4"/>
<path fill-rule="evenodd" clip-rule="evenodd" d="M118.693 10.8906L122.389 13.7998L126.059 16.6987L117.414 20.2098L118.693 10.8906ZM119.855 13.7648L119.304 17.78L123.029 16.2673L119.855 13.7648Z" fill="#06B6D4"/>
<path fill-rule="evenodd" clip-rule="evenodd" d="M169.112 117.905C169.624 117.941 170.009 117.837 170.357 117.487C170.657 117.185 171.145 117.184 171.446 117.484C171.748 117.783 171.749 118.271 171.449 118.572C170.71 119.316 169.843 119.501 169.004 119.441C168.317 119.393 167.594 119.175 166.956 118.982C166.866 118.955 166.778 118.929 166.692 118.903C165.944 118.682 165.291 118.517 164.681 118.54C164.113 118.561 163.564 118.746 163.015 119.298C162.716 119.599 162.228 119.601 161.927 119.301C161.625 119.002 161.623 118.514 161.923 118.212C162.763 117.367 163.69 117.036 164.623 117.001C165.515 116.968 166.389 117.207 167.13 117.427C167.224 117.455 167.315 117.482 167.405 117.509C168.068 117.707 168.61 117.87 169.112 117.905Z" fill="#06B6D4"/>
<path fill-rule="evenodd" clip-rule="evenodd" d="M178.269 108.696C178.781 108.732 179.165 108.628 179.513 108.277C179.813 107.976 180.3 107.974 180.602 108.274C180.904 108.573 180.905 109.061 180.606 109.363C179.866 110.107 179 110.292 178.161 110.232C177.474 110.184 176.751 109.966 176.113 109.774C176.023 109.747 175.935 109.72 175.849 109.695C175.101 109.473 174.448 109.308 173.838 109.331C173.269 109.352 172.72 109.537 172.172 110.088C171.872 110.39 171.384 110.391 171.083 110.092C170.781 109.792 170.78 109.304 171.079 109.003C171.92 108.158 172.847 107.827 173.78 107.792C174.672 107.759 175.546 107.998 176.287 108.218C176.381 108.246 176.472 108.273 176.561 108.3C177.225 108.499 177.767 108.661 178.269 108.696Z" fill="#06B6D4"/>
<path fill-rule="evenodd" clip-rule="evenodd" d="M172.166 108.995C172.468 109.295 172.469 109.782 172.17 110.084C171.621 110.636 171.436 111.191 171.415 111.767C171.392 112.384 171.557 113.043 171.777 113.796C171.802 113.882 171.828 113.971 171.855 114.061C172.047 114.704 172.263 115.43 172.311 116.119C172.369 116.959 172.187 117.828 171.448 118.571C171.149 118.873 170.661 118.874 170.359 118.575C170.058 118.275 170.056 117.787 170.356 117.486C170.705 117.134 170.811 116.745 170.775 116.225C170.739 115.719 170.577 115.172 170.38 114.504C170.354 114.414 170.326 114.323 170.299 114.228C170.08 113.482 169.843 112.605 169.876 111.71C169.91 110.775 170.237 109.844 171.077 108.999C171.377 108.697 171.864 108.696 172.166 108.995Z" fill="#06B6D4"/>
<path fill-rule="evenodd" clip-rule="evenodd" d="M187.417 99.4872C187.929 99.5233 188.314 99.4191 188.662 99.0687C188.961 98.7671 189.449 98.7656 189.751 99.0653C190.052 99.3651 190.054 99.8526 189.754 100.154C189.015 100.898 188.148 101.083 187.309 101.023C186.623 100.975 185.9 100.757 185.261 100.564C185.172 100.537 185.084 100.511 184.998 100.485C184.25 100.264 183.597 100.099 182.986 100.122C182.418 100.143 181.868 100.328 181.32 100.88C181.02 101.181 180.533 101.183 180.231 100.883C179.929 100.583 179.928 100.096 180.228 99.7942C181.068 98.9489 181.995 98.618 182.929 98.5832C183.82 98.5499 184.694 98.7892 185.435 99.0089C185.529 99.0368 185.621 99.0642 185.71 99.0909C186.374 99.2895 186.916 99.4518 187.417 99.4872Z" fill="#06B6D4"/>
<path fill-rule="evenodd" clip-rule="evenodd" d="M181.315 99.7864C181.617 100.086 181.618 100.574 181.318 100.875C180.77 101.427 180.585 101.982 180.564 102.558C180.541 103.174 180.705 103.834 180.925 104.586C180.95 104.673 180.977 104.761 181.004 104.852C181.195 105.494 181.411 106.22 181.459 106.909C181.518 107.75 181.336 108.619 180.598 109.362C180.298 109.664 179.81 109.666 179.509 109.366C179.207 109.066 179.205 108.579 179.505 108.277C179.854 107.926 179.959 107.536 179.923 107.016C179.888 106.51 179.726 105.963 179.529 105.295C179.502 105.205 179.475 105.113 179.447 105.019C179.229 104.273 178.992 103.395 179.025 102.501C179.059 101.565 179.386 100.635 180.226 99.7897C180.526 99.4881 181.014 99.4866 181.315 99.7864Z" fill="#06B6D4"/>
<path fill-rule="evenodd" clip-rule="evenodd" d="M190.471 90.5793C190.773 90.8791 190.775 91.3666 190.475 91.6683C189.926 92.2203 189.741 92.7753 189.72 93.3509C189.697 93.9677 189.861 94.6268 190.081 95.3795C190.107 95.4661 190.133 95.5547 190.16 95.645C190.351 96.2875 190.567 97.0136 190.615 97.7022C190.674 98.5429 190.492 99.4118 189.754 100.155C189.454 100.457 188.967 100.458 188.665 100.159C188.363 99.8589 188.362 99.3714 188.661 99.0697C189.01 98.7185 189.115 98.3285 189.079 97.8093C189.044 97.3029 188.882 96.7559 188.685 96.0886C188.658 95.9987 188.631 95.9066 188.603 95.8122C188.385 95.0661 188.148 94.1885 188.181 93.2941C188.215 92.3585 188.543 91.4278 189.382 90.5827C189.682 90.281 190.17 90.2795 190.471 90.5793Z" fill="#06B6D4"/>
<path fill-rule="evenodd" clip-rule="evenodd" d="M15.4573 103.222C15.9116 103.464 16.3046 103.525 16.7625 103.348C17.159 103.194 17.605 103.391 17.7586 103.788C17.9122 104.184 17.7152 104.63 17.3187 104.784C16.341 105.163 15.4742 104.976 14.7318 104.58C14.1247 104.256 13.5522 103.761 13.0463 103.325C12.9753 103.264 12.9056 103.203 12.8373 103.145C12.2428 102.637 11.7119 102.219 11.1444 101.991C10.6162 101.778 10.0401 101.723 9.31791 102.002C8.92137 102.156 8.47537 101.959 8.32174 101.563C8.16811 101.166 8.36503 100.72 8.76157 100.566C9.87172 100.136 10.853 100.213 11.7199 100.562C12.5475 100.896 13.2494 101.471 13.8382 101.975C13.9127 102.038 13.9852 102.101 14.056 102.162C14.5822 102.614 15.0127 102.984 15.4573 103.222Z" fill="#06B6D4"/>
<path fill-rule="evenodd" clip-rule="evenodd" d="M9.7593 101.004C9.91294 101.4 9.71603 101.846 9.3195 102C8.59714 102.28 8.20499 102.71 7.95383 103.227C7.68445 103.781 7.56853 104.451 7.46633 105.229C7.45459 105.318 7.44297 105.41 7.43115 105.504C7.34687 106.169 7.25163 106.921 7.01769 107.57C6.73207 108.363 6.21474 109.084 5.23775 109.463C4.8412 109.616 4.39522 109.419 4.24163 109.023C4.08805 108.626 4.28501 108.18 4.68157 108.027C5.1401 107.849 5.39265 107.537 5.5689 107.048C5.74087 106.571 5.81366 106.005 5.90246 105.314C5.9144 105.221 5.92664 105.126 5.93944 105.028C6.0407 104.257 6.17784 103.358 6.56873 102.554C6.97784 101.712 7.65317 100.994 8.76312 100.564C9.15966 100.41 9.60566 100.607 9.7593 101.004Z" fill="#06B6D4"/>
<path fill-rule="evenodd" clip-rule="evenodd" d="M21.8374 96.326C21.991 96.7226 21.7941 97.1686 21.3976 97.3222C20.6752 97.6021 20.283 98.0326 20.0319 98.5493C19.7625 99.1035 19.6466 99.7727 19.5444 100.551C19.5327 100.64 19.5211 100.732 19.5092 100.825C19.425 101.491 19.3297 102.243 19.0958 102.892C18.8102 103.685 18.293 104.406 17.3161 104.785C16.9196 104.938 16.4736 104.742 16.3198 104.345C16.1661 103.949 16.363 103.503 16.7595 103.349C17.2181 103.171 17.4707 102.859 17.647 102.37C17.819 101.893 17.8918 101.327 17.9805 100.636C17.9925 100.543 18.0047 100.448 18.0175 100.35C18.1188 99.5794 18.2559 98.6803 18.6468 97.8761C19.056 97.0343 19.7313 96.3162 20.8412 95.8862C21.2378 95.7326 21.6838 95.9295 21.8374 96.326Z" fill="#06B6D4"/>
<defs>
<filter id="filter0_d_382_2274" x="24.8" y="63.2023" width="140.423" height="85.1427" filterUnits="userSpaceOnUse" color-interpolation-filters="sRGB">
<feFlood flood-opacity="0" result="BackgroundImageFix"/>
<feColorMatrix in="SourceAlpha" type="matrix" values="0 0 0 0 0 0 0 0 0 0 0 0 0 0 0 0 0 0 127 0" result="hardAlpha"/>
<feOffset dy="3"/>
<feGaussianBlur stdDeviation="2.1"/>
<feComposite in2="hardAlpha" operator="out"/>
<feColorMatrix type="matrix" values="0 0 0 0 0 0 0 0 0 0 0 0 0 0 0 0 0 0 0.04 0"/>
<feBlend mode="normal" in2="BackgroundImageFix" result="effect1_dropShadow_382_2274"/>
<feBlend mode="normal" in="SourceGraphic" in2="effect1_dropShadow_382_2274" result="shape"/>
</filter>
</defs>
</svg>
