<svg width="28" height="24" viewBox="0 0 28 24" fill="none" xmlns="http://www.w3.org/2000/svg">
<path d="M27.3593 9.40566C27.3898 9.29669 27.4258 9.19049 27.4516 9.07968L27.4646 9.01319C27.7287 7.94833 27.7278 6.83496 27.462 5.77052C27.1962 4.70607 26.6736 3.72298 25.9399 2.90728C25.264 1.9975 24.3829 1.26007 23.3683 0.754942C22.3537 0.249809 21.2343 -0.00876969 20.1009 0.00022697H20.0529C19.9605 0.00022697 19.8571 0.0066914 19.7592 0.00946177H19.6475C17.6959 0.118442 15.7561 0.382148 13.8463 0.798096L9.71199 0.137823H9.67967C7.71052 -0.202736 5.68403 0.122178 3.92005 1.06128C2.92679 1.661 2.07347 2.46646 1.41748 3.42349L1.37962 3.47428L1.35653 3.5066C0.489638 4.79258 0.018242 6.30424 0.000518797 7.85502C-0.0172044 9.4058 0.41952 10.9278 1.2568 12.2333C1.23925 12.2647 1.22909 12.2998 1.21247 12.3321C1.13252 12.4922 1.06431 12.658 1.00839 12.828C0.978835 12.9203 0.956672 13.0182 0.935433 13.1143C0.918195 13.1925 0.90342 13.2706 0.891107 13.3488C0.879103 13.4466 0.872321 13.5449 0.870791 13.6434C0.870791 13.7228 0.861556 13.8004 0.86525 13.8789C0.871406 13.9823 0.883103 14.0851 0.900341 14.1873C0.911423 14.2603 0.916964 14.3332 0.933586 14.4053C0.961905 14.5192 0.997612 14.6306 1.04071 14.7396C1.06195 14.7977 1.0758 14.8578 1.10166 14.915C1.17738 15.0843 1.26972 15.2438 1.37869 15.3934C1.79662 15.9915 2.41306 16.4221 3.11849 16.6086C3.09231 17.0024 3.15792 17.3969 3.31016 17.761C3.4624 18.125 3.6971 18.4488 3.99578 18.7067C4.52501 19.1703 5.174 19.4756 5.86855 19.5877C6.01169 20.0522 6.26287 20.4761 6.60085 20.8252C7.06206 21.325 7.68521 21.6456 8.36004 21.7301C8.52073 22.2778 8.82547 22.7727 9.24287 23.1615C9.75724 23.6676 10.4461 23.9557 11.1674 23.9649C11.6976 23.9613 12.2183 23.8234 12.6809 23.5641C13.368 23.9575 14.1732 24.0905 14.9508 23.9391C15.359 23.8646 15.7457 23.7011 16.0836 23.4602C16.4215 23.2194 16.7022 22.9071 16.9057 22.5456C16.9251 22.5151 16.9362 22.4883 16.9538 22.4578C17.7387 22.6185 18.556 22.4772 19.2421 22.0626C19.8455 21.7219 20.3048 21.174 20.5349 20.5204C21.3605 20.5315 22.1602 20.2341 22.7762 19.6847C23.1134 19.3894 23.3752 19.018 23.54 18.6012C23.7048 18.1844 23.7678 17.7343 23.7236 17.2883C23.7236 17.2624 23.7172 17.2421 23.7153 17.2172C24.1973 17.0728 24.6308 16.7998 24.9694 16.4276C25.4071 15.9661 25.6889 15.3788 25.775 14.7485C25.8612 14.1183 25.7474 13.4769 25.4496 12.9148C26.2801 11.9557 26.9083 10.8388 27.2965 9.63098C27.3187 9.55988 27.3371 9.4823 27.3593 9.40566ZM25.7783 7.83578C25.732 8.30005 25.63 8.75705 25.4745 9.19696L25.445 9.2893C25.1378 10.1107 24.6952 10.8748 24.1355 11.5499C21.2386 9.0215 17.0249 5.33136 16.6786 5.00076C16.2785 4.61798 15.7473 4.40259 15.1936 4.39866C15.0219 4.39664 14.8509 4.42125 14.6867 4.47162C14.1012 4.65631 12.6624 5.11804 11.4065 5.58438C10.9263 5.76261 10.3778 5.30735 10.2107 4.91949C10.0998 4.68678 10.0814 4.42083 10.1571 4.17519C10.3076 3.90277 10.5606 3.70053 10.8598 3.61372C13.7006 2.61522 16.6686 2.02448 19.6752 1.85915H19.7869C19.8894 1.85915 19.991 1.85176 20.0852 1.84992C20.7749 1.83909 21.4595 1.96886 22.0974 2.2313C23.0438 2.66133 23.8743 3.3102 24.5206 4.1244C25.0993 4.77738 25.5034 5.56617 25.6952 6.41734L25.7035 6.45982C25.7488 6.68702 25.7769 6.91731 25.7876 7.14872C25.7903 7.22352 25.795 7.31772 25.795 7.40083C25.795 7.53473 25.795 7.66771 25.7793 7.79976L25.7783 7.83578ZM2.73341 13.9851C2.72787 13.9445 2.72571 13.9029 2.72694 13.8604C2.71696 13.7714 2.71696 13.6816 2.72694 13.5926C2.73793 13.5404 2.75118 13.4886 2.76665 13.4375C2.78574 13.355 2.81221 13.2753 2.84607 13.1983C2.87685 13.1429 2.91164 13.09 2.95042 13.0395C3.00583 12.9484 3.07201 12.8668 3.14896 12.7948L3.15451 12.7901L4.89153 11.3172C5.00694 11.2283 5.13874 11.1631 5.27938 11.1252C5.42003 11.0873 5.56677 11.0775 5.71121 11.0964C5.85564 11.1153 5.99494 11.1624 6.12113 11.2352C6.24732 11.3079 6.35793 11.4048 6.44664 11.5204C6.51169 11.6147 6.55389 11.7229 6.56992 11.8364C6.58595 11.9499 6.57536 12.0655 6.53898 12.1742L3.81478 14.8282C3.62675 14.8314 3.44111 14.7859 3.27589 14.6961C3.11067 14.6063 2.9715 14.4752 2.87193 14.3157C2.80226 14.2169 2.75498 14.1041 2.73341 13.9851ZM5.05683 16.1968L8.04607 13.2842L8.03222 13.2703C8.20067 13.1874 8.39041 13.1577 8.57613 13.1854C8.81346 13.25 9.02771 13.383 9.19116 13.5677C9.35369 13.7062 9.46265 13.8964 9.49959 14.107C9.51333 14.3203 9.4666 14.5332 9.36477 14.7211L9.34076 14.7996L6.32012 17.7426C6.10817 17.752 5.89668 17.7156 5.70004 17.6359C5.5034 17.5563 5.32623 17.4352 5.18057 17.2809C5.06094 17.1297 4.98596 16.9481 4.9641 16.7565C4.94223 16.5649 4.97435 16.3711 5.05683 16.1968ZM7.62866 19.0456L10.75 16.0084C10.9485 16.0481 11.1304 16.1497 11.2689 16.2984C11.4604 16.466 11.5936 16.6901 11.6494 16.9383C11.6635 17.0451 11.6588 17.1536 11.6356 17.2588L8.93628 19.886C8.7562 19.9193 8.57062 19.9062 8.39697 19.848C8.22332 19.7899 8.0673 19.6886 7.94356 19.5536C7.79926 19.4121 7.69124 19.2378 7.62866 19.0456ZM10.5256 21.8271C10.3581 21.68 10.2262 21.4969 10.1396 21.2915L12.6892 18.8102C12.8711 18.8702 13.0374 18.969 13.1768 19.0992C13.307 19.2032 13.4053 19.3418 13.4603 19.4991C13.4917 19.6155 13.4917 19.7382 13.4603 19.8546C13.3454 20.2273 13.1532 20.5716 12.8961 20.8649L12.1979 21.6775H12.2035C12.1804 21.6923 12.1545 21.6987 12.1333 21.7154C11.873 21.9531 11.5379 22.0925 11.1858 22.1097C10.9373 22.1054 10.7003 22.004 10.5256 21.8271ZM14.6571 22.1106C14.5204 22.1322 14.3832 22.1383 14.2452 22.1291L14.3136 22.0497L14.3357 22.0229L14.3367 22.0238C14.6163 21.6777 14.8532 21.2991 15.0422 20.8963L15.4504 21.3284C15.4165 21.4159 15.3765 21.4999 15.3303 21.5805C15.2645 21.7134 15.17 21.8299 15.0535 21.9216C14.9371 22.0132 14.8017 22.0778 14.6571 22.1106ZM20.5673 18.6707L18.9244 16.8506C18.7834 16.6855 18.5886 16.5755 18.3744 16.5399C18.1602 16.5043 17.9403 16.5454 17.7535 16.6559C17.5666 16.7665 17.4247 16.9394 17.3527 17.1442C17.2808 17.3491 17.2834 17.5728 17.3601 17.7759C17.4028 17.8911 17.4681 17.9966 17.5522 18.0862L18.8782 19.5637C18.869 19.6585 18.8496 19.7509 18.8201 19.8407C18.7431 20.1023 18.5676 20.3238 18.3306 20.4585C18.0419 20.6479 17.6916 20.7193 17.3518 20.658L16.2436 19.4815C16.1242 19.3554 15.9713 19.2659 15.8028 19.2236C15.6344 19.1812 15.4573 19.1877 15.2925 19.2423C15.2774 19.1528 15.258 19.064 15.2343 18.9764C15.0816 18.4939 14.7981 18.0633 14.4152 17.7325C14.1471 17.4873 13.8396 17.289 13.5056 17.1461C13.5107 16.9743 13.4999 16.8024 13.4732 16.6326C13.354 16.0039 13.0381 15.4292 12.571 14.9917C12.2315 14.6477 11.8116 14.3938 11.3493 14.2529C11.3542 14.1298 11.3496 14.0066 11.3354 13.8835C11.2489 13.2616 10.9516 12.6882 10.4932 12.2591C10.0757 11.8219 9.53926 11.5166 8.95014 11.3809C8.74975 11.3422 8.54536 11.3283 8.34157 11.3394C8.26927 10.9963 8.1227 10.6732 7.91217 10.3928C7.67509 10.085 7.37962 9.82686 7.04267 9.63332C6.70572 9.43978 6.33391 9.3146 5.94851 9.26493C5.56312 9.21527 5.17172 9.2421 4.79671 9.34389C4.4217 9.44569 4.07045 9.62044 3.76307 9.85815L3.73074 9.88401L2.59027 10.8444C2.05531 9.87064 1.79932 8.76818 1.85048 7.65832C1.90164 6.54846 2.25796 5.47422 2.88024 4.5538L2.89963 4.5261C3.40542 3.77233 4.06861 3.13718 4.84351 2.66441C6.25725 1.92797 7.87618 1.68393 9.44419 1.97089L9.87267 2.03922C9.23982 2.32477 8.73424 2.83331 8.45239 3.46782C8.31618 3.81603 8.25139 4.18808 8.26186 4.56184C8.27233 4.9356 8.35785 5.30344 8.51334 5.64349C8.78996 6.31255 9.30585 6.85461 9.96042 7.16397C10.615 7.47333 11.3613 7.52781 12.0539 7.31679C13.2728 6.86522 14.671 6.4118 15.1936 6.2465C15.2352 6.24513 15.2765 6.25314 15.3146 6.26993C15.3526 6.28671 15.3864 6.31185 15.4134 6.34347C15.865 6.76826 21.3162 11.5398 23.5934 13.5243L23.7781 13.6822C23.9215 13.9145 23.9828 14.1882 23.9522 14.4594C23.9215 14.7307 23.8007 14.9838 23.6091 15.1782C23.4775 15.32 23.3047 15.4169 23.1151 15.4552L21.5147 13.8327C21.3405 13.6669 21.1088 13.5753 20.8683 13.5771C20.6278 13.579 20.3975 13.6742 20.2259 13.8427C20.0543 14.0112 19.9549 14.2397 19.9486 14.4801C19.9424 14.7205 20.0297 14.9539 20.1923 15.1311L21.7216 16.6807C21.7277 16.7084 21.7351 16.7358 21.7437 16.7629L21.7548 16.7915C21.8238 16.9887 21.8658 17.1943 21.8795 17.4028C21.9052 17.5611 21.8916 17.7234 21.8399 17.8752C21.7882 18.0271 21.7 18.1639 21.5831 18.2736C21.3069 18.5322 20.9422 18.6744 20.5645 18.6707H20.5673Z" fill="#06B6D4"/>
</svg>
