<svg width="24" height="24" viewBox="0 0 24 24" fill="none" xmlns="http://www.w3.org/2000/svg">
<path fill-rule="evenodd" clip-rule="evenodd" d="M10.6147 0.94522C10.6857 1.25902 10.6292 1.58818 10.4577 1.86035C10.2861 2.13251 10.0134 2.3254 9.69968 2.39661C9.46155 2.45079 9.22555 2.51394 8.99218 2.58592C8.83991 2.63293 8.67987 2.64949 8.5212 2.63466C8.36253 2.61982 8.20833 2.57387 8.06742 2.49944C7.9265 2.42501 7.80162 2.32356 7.69992 2.20086C7.59821 2.07817 7.52167 1.93665 7.47466 1.78438C7.42764 1.63211 7.41108 1.47207 7.42592 1.3134C7.44076 1.15472 7.48671 1.00053 7.56114 0.859612C7.63557 0.718697 7.73702 0.593821 7.85971 0.492115C7.9824 0.390409 8.12393 0.313865 8.2762 0.266853C8.56745 0.176242 8.86274 0.0973616 9.16208 0.0302126C9.31754 -0.00514135 9.47845 -0.009515 9.6356 0.0173411C9.79275 0.0441973 9.94308 0.101757 10.078 0.186731C10.2129 0.271705 10.3297 0.382429 10.4218 0.512573C10.5139 0.642718 10.5794 0.789734 10.6147 0.94522ZM13.1024 0.94522C13.1736 0.631461 13.3665 0.35882 13.6387 0.187237C13.9109 0.0156537 14.24 -0.0408267 14.5538 0.0302126C19.9589 1.25589 23.9951 6.08819 23.9951 11.8646C23.9951 18.567 18.5609 24 11.8598 24C6.08212 24 1.24982 19.965 0.0241436 14.5599C-0.038768 14.2492 0.022386 13.9262 0.194526 13.6601C0.366666 13.3939 0.636127 13.2056 0.945278 13.1355C1.25443 13.0655 1.57873 13.1191 1.84882 13.2851C2.11891 13.451 2.31334 13.7161 2.39054 14.0235C2.77671 15.7149 3.60906 17.2719 4.80099 18.5325C5.99292 19.7931 7.50089 20.7113 9.168 21.1915C10.8351 21.6718 12.6004 21.6965 14.2804 21.2631C15.9603 20.8297 17.4933 19.9541 18.7201 18.7274C19.9468 17.5006 20.8225 15.9675 21.2558 14.2876C21.6892 12.6077 21.6645 10.8424 21.1842 9.17528C20.704 7.50817 19.7858 6.00021 18.5252 4.80827C17.2646 3.61634 15.7076 2.78399 14.0162 2.39782C13.7024 2.32636 13.4299 2.13317 13.2585 1.86076C13.0871 1.58835 13.031 1.25902 13.1024 0.94522ZM5.32245 3.03008C5.43098 3.14693 5.51541 3.28403 5.57092 3.43353C5.62643 3.58303 5.65192 3.74201 5.64595 3.90138C5.63998 4.06074 5.60265 4.21737 5.53611 4.3623C5.46956 4.50723 5.3751 4.63762 5.25813 4.74602C5.07853 4.91187 4.9058 5.08419 4.73995 5.26299C4.5195 5.49237 4.21779 5.62601 3.89977 5.63513C3.58176 5.64425 3.27288 5.52812 3.03965 5.31175C2.80641 5.09538 2.66747 4.79607 2.65275 4.47827C2.63802 4.16047 2.74868 3.84959 2.9609 3.61257C3.16721 3.38928 3.38241 3.17368 3.60651 2.96576C3.72336 2.85723 3.86046 2.7728 4.00996 2.71729C4.15946 2.66178 4.31844 2.63628 4.47781 2.64226C4.63717 2.64823 4.7938 2.68556 4.93873 2.7521C5.08366 2.81865 5.21405 2.91311 5.32245 3.03008ZM11.8586 4.58341C12.1804 4.58341 12.4891 4.71126 12.7167 4.93884C12.9442 5.16642 13.0721 5.47509 13.0721 5.79694V11.3622L16.3571 14.6473C16.5782 14.8761 16.7005 15.1827 16.6978 15.5009C16.695 15.8191 16.5674 16.1234 16.3424 16.3484C16.1174 16.5734 15.813 16.7011 15.4948 16.7038C15.1766 16.7066 14.8701 16.5843 14.6412 16.3632L11.0006 12.7226C10.773 12.4951 10.6451 12.1865 10.645 11.8646V5.79694C10.645 5.47509 10.7729 5.16642 11.0005 4.93884C11.228 4.71126 11.5367 4.58341 11.8586 4.58341ZM1.77771 7.48133C2.08521 7.57616 2.34245 7.78923 2.49288 8.0737C2.64331 8.35816 2.67459 8.69073 2.57985 8.99825C2.50787 9.23162 2.44472 9.46762 2.39054 9.70575C2.31334 10.0132 2.11891 10.2782 1.84882 10.4442C1.57873 10.6101 1.25443 10.6638 0.945278 10.5937C0.636127 10.5236 0.366666 10.3354 0.194526 10.0692C0.022386 9.80302 -0.038768 9.48005 0.0241436 9.16936C0.0921017 8.87002 0.170982 8.57473 0.260784 8.28348C0.355609 7.97598 0.568683 7.71873 0.853148 7.56831C1.13761 7.41788 1.47018 7.3866 1.77771 7.48133Z" fill="#06B6D4"/>
</svg>
