<svg width="250" height="151" viewBox="0 0 250 151" fill="none" xmlns="http://www.w3.org/2000/svg">
<path d="M162.27 0C176.753 0 188.495 11.742 188.495 26.2256V140.873C188.495 146.352 184.053 150.794 178.574 150.794C173.095 150.794 168.653 146.352 168.653 140.873V26.2256C168.653 22.7 165.795 19.8418 162.27 19.8418C158.744 19.842 155.887 22.7001 155.887 26.2256V119.037C155.887 136.576 141.668 150.794 124.13 150.794C106.591 150.794 92.3732 136.576 92.373 119.037V25.3516C92.3729 22.3084 89.9055 19.8418 86.8623 19.8418C83.8192 19.8419 81.3526 22.3085 81.3525 25.3516V140.873C81.3525 146.352 76.9106 150.794 71.4316 150.794C65.9526 150.794 61.5108 146.352 61.5107 140.873V25.3516C61.5109 11.3505 72.8612 0.000111099 86.8623 0C100.863 0 112.214 11.3504 112.214 25.3516V119.037C112.214 125.618 117.549 130.952 124.13 130.952C130.71 130.952 136.045 125.618 136.045 119.037V26.2256C136.045 11.7421 147.786 0.000235792 162.27 0ZM41.666 30.7461C47.145 30.7461 51.5869 35.188 51.5869 40.667V110.111C51.5869 115.59 47.145 120.032 41.666 120.032C36.187 120.032 31.7451 115.59 31.7451 110.111V40.667C31.7452 35.188 36.187 30.7461 41.666 30.7461ZM208.334 30.7461C213.813 30.7461 218.255 35.188 218.255 40.667V110.111C218.255 115.59 213.813 120.032 208.334 120.032C202.855 120.032 198.413 115.59 198.413 110.111V40.667C198.413 35.1881 202.855 30.7462 208.334 30.7461ZM10.9131 64.4609C16.9398 64.4612 21.8252 69.3473 21.8252 75.374C21.8251 81.4007 16.9397 86.2859 10.9131 86.2861C4.88625 86.2861 0.000118544 81.4008 0 75.374C0 69.3471 4.88618 64.4609 10.9131 64.4609ZM239.087 64.4609C245.114 64.4609 250 69.3471 250 75.374C250 81.4007 245.114 86.2861 239.087 86.2861C233.06 86.2859 228.175 81.4006 228.175 75.374C228.175 69.3473 233.06 64.4612 239.087 64.4609Z" fill="url(#paint0_linear_38_1332)"/>
<defs>
<linearGradient id="paint0_linear_38_1332" x1="250" y1="75.397" x2="0" y2="75.397" gradientUnits="userSpaceOnUse">
<stop stop-color="#3B82F6"/>
<stop offset="0.841346" stop-color="#06B6D4"/>
</linearGradient>
</defs>
</svg>
