<svg width="198" height="38" viewBox="0 0 198 38" fill="none" xmlns="http://www.w3.org/2000/svg">
<path d="M40.6855 0.0957031C44.3168 0.095868 47.2617 3.03957 47.2617 6.6709V35.417C47.2614 36.7902 46.1476 37.9039 44.7744 37.9043C43.4009 37.9043 42.2865 36.7905 42.2861 35.417V6.6709C42.2861 5.78706 41.5694 5.07048 40.6855 5.07031C39.8018 5.07055 39.085 5.7871 39.085 6.6709V29.9414C39.0849 34.3387 35.5203 37.9041 31.123 37.9043C26.7256 37.9043 23.1612 34.3388 23.1611 29.9414V6.45215C23.1611 5.68928 22.5421 5.07057 21.7793 5.07031C21.0163 5.07031 20.3975 5.68912 20.3975 6.45215V35.417C20.3971 36.7904 19.2836 37.9041 17.9102 37.9043C16.5366 37.9043 15.4232 36.7905 15.4229 35.417V6.45215C15.4229 2.94163 18.2688 0.0957031 21.7793 0.0957031C25.2896 0.0959603 28.1357 2.94179 28.1357 6.45215V29.9414C28.1358 31.5913 29.4731 32.9287 31.123 32.9287C32.7728 32.9285 34.1103 31.5912 34.1104 29.9414V6.6709C34.1104 3.03961 37.0543 0.0959368 40.6855 0.0957031ZM10.4473 7.80469C11.8209 7.80485 12.9346 8.91835 12.9346 10.292V27.7041C12.9343 29.0775 11.8207 30.1912 10.4473 30.1914C9.07368 30.1914 7.96022 29.0776 7.95996 27.7041V10.292C7.95996 8.91825 9.07352 7.80469 10.4473 7.80469ZM52.2354 7.80469C53.6091 7.80469 54.7227 8.91825 54.7227 10.292V27.7041C54.7224 29.0776 53.6089 30.1914 52.2354 30.1914C50.8618 30.1914 49.7483 29.0776 49.748 27.7041V10.292C49.748 8.91828 50.8617 7.80474 52.2354 7.80469ZM2.73633 16.2578C4.24736 16.2579 5.47266 17.4831 5.47266 18.9941C5.4726 20.5051 4.24732 21.7304 2.73633 21.7305C1.22524 21.7305 5.92699e-05 20.5052 0 18.9941C0 17.483 1.22521 16.2578 2.73633 16.2578ZM59.9463 16.2578C61.4574 16.2579 62.6826 17.4831 62.6826 18.9941C62.6826 20.5052 61.4573 21.7304 59.9463 21.7305C58.4352 21.7305 57.21 20.5052 57.21 18.9941C57.21 17.483 58.4352 16.2578 59.9463 16.2578Z" fill="url(#paint0_linear_104_214)"/>
<path d="M71.4226 30V8.82735H74.659L83.9145 24.2834H82.2206L91.3249 8.82735H94.5613L94.5915 30H90.8712L90.8409 14.665H91.6273L83.8842 27.5803H82.1299L74.2658 14.665H75.1732V30H71.4226ZM106.783 30.2117C105.412 30.2117 104.202 29.9597 103.154 29.4556C102.105 28.9313 101.288 28.1449 100.704 27.0963C100.119 26.0276 99.8265 24.6867 99.8265 23.0735V13.8483H103.607V22.5593C103.607 24.0112 103.93 25.1 104.575 25.826C105.241 26.5317 106.178 26.8846 107.388 26.8846C108.275 26.8846 109.042 26.7031 109.687 26.3402C110.352 25.9772 110.867 25.4328 111.23 24.7068C111.613 23.9809 111.804 23.0836 111.804 22.0149V13.8483H115.585V30H111.986V25.6445L112.621 26.9753C112.076 28.0239 111.28 28.8305 110.231 29.3951C109.183 29.9395 108.033 30.2117 106.783 30.2117ZM118.872 36.0796C118.166 36.0796 117.501 35.9989 116.875 35.8376C116.23 35.6965 115.686 35.4646 115.242 35.1419L116.331 32.329C116.916 32.7524 117.652 32.9642 118.539 32.9642C119.225 32.9642 119.759 32.7424 120.142 32.2987C120.525 31.8753 120.717 31.2401 120.717 30.3932V13.8483H124.498V30.3025C124.498 32.0769 124.004 33.4784 123.016 34.5067C122.048 35.5553 120.666 36.0796 118.872 36.0796ZM122.592 11.1866C121.886 11.1866 121.302 10.9648 120.838 10.5212C120.394 10.0775 120.172 9.54319 120.172 8.91809C120.172 8.27283 120.394 7.73847 120.838 7.31502C121.302 6.8714 121.886 6.64959 122.592 6.64959C123.298 6.64959 123.873 6.86132 124.316 7.28477C124.78 7.68806 125.012 8.20225 125.012 8.82735C125.012 9.49278 124.79 10.0574 124.346 10.5212C123.903 10.9648 123.318 11.1866 122.592 11.1866ZM129.456 30V13.8483H133.237V30H129.456ZM131.361 11.1866C130.656 11.1866 130.071 10.9648 129.607 10.5212C129.163 10.0775 128.942 9.54319 128.942 8.91809C128.942 8.27283 129.163 7.73847 129.607 7.31502C130.071 6.8714 130.656 6.64959 131.361 6.64959C132.067 6.64959 132.642 6.86132 133.085 7.28477C133.549 7.68806 133.781 8.20225 133.781 8.82735C133.781 9.49278 133.559 10.0574 133.116 10.5212C132.672 10.9648 132.087 11.1866 131.361 11.1866ZM147.152 30.2117C145.781 30.2117 144.561 29.9093 143.492 29.3043C142.423 28.6994 141.576 27.792 140.951 26.5821C140.346 25.3521 140.044 23.7994 140.044 21.9241C140.044 20.0287 140.356 18.476 140.982 17.2662C141.627 16.0563 142.484 15.159 143.553 14.5742C144.641 13.9693 145.841 13.6668 147.152 13.6668C148.745 13.6668 150.146 14.0096 151.356 14.6952C152.586 15.3808 153.554 16.3386 154.26 17.5686C154.986 18.7987 155.349 20.2505 155.349 21.9241C155.349 23.5978 154.986 25.0496 154.26 26.2797C153.554 27.5097 152.586 28.4776 151.356 29.1833C150.146 29.8689 148.745 30.2117 147.152 30.2117ZM138.199 30V7.55699H141.98V17.5989L141.677 21.8939L141.798 26.1889V30H138.199ZM146.728 26.9753C147.636 26.9753 148.442 26.7737 149.148 26.3704C149.874 25.9671 150.449 25.3823 150.872 24.6161C151.296 23.8498 151.507 22.9525 151.507 21.9241C151.507 20.8756 151.296 19.9783 150.872 19.2322C150.449 18.4659 149.874 17.8812 149.148 17.4779C148.442 17.0746 147.636 16.873 146.728 16.873C145.821 16.873 145.004 17.0746 144.278 17.4779C143.553 17.8812 142.978 18.4659 142.554 19.2322C142.131 19.9783 141.919 20.8756 141.919 21.9241C141.919 22.9525 142.131 23.8498 142.554 24.6161C142.978 25.3823 143.553 25.9671 144.278 26.3704C145.004 26.7737 145.821 26.9753 146.728 26.9753ZM164.662 30L174.19 8.82735H178.061L187.619 30H183.506L175.309 10.9144H176.882L168.715 30H164.662ZM169.048 25.1L170.107 22.0149H181.54L182.598 25.1H169.048ZM190.312 30V8.82735H194.244V30H190.312Z" fill="url(#paint1_linear_104_214)"/>
<defs>
<linearGradient id="paint0_linear_104_214" x1="62.6826" y1="19" x2="0" y2="19" gradientUnits="userSpaceOnUse">
<stop stop-color="#3B82F6"/>
<stop offset="0.841346" stop-color="#06B6D4"/>
</linearGradient>
<linearGradient id="paint1_linear_104_214" x1="197.354" y1="19" x2="68.3535" y2="19" gradientUnits="userSpaceOnUse">
<stop stop-color="#3B82F6"/>
<stop offset="0.841346" stop-color="#06B6D4"/>
</linearGradient>
</defs>
</svg>
