<svg width="768" height="436" viewBox="0 0 768 436" fill="none" xmlns="http://www.w3.org/2000/svg">
<path d="M426.18 55.5891C426.539 55.5064 426.272 56.0438 426.272 56.0438C425.392 56.4565 409.899 61.7207 409.94 68.3745C409.955 70.7328 409.983 72.2114 412.112 73.9914C415.964 77.2129 422.779 76.4187 430.529 76.9436C439.311 77.5384 445.648 75.5922 454.289 76.3644C461.119 76.9748 466.824 76.5962 470.274 79.4808C472.926 81.6982 474.357 83.4965 472.686 86.564C470.453 90.6607 465.269 93.0044 458.102 95.5855C452.732 97.5192 448.292 98.4527 442.484 99.4446C412.59 104.55 402.854 86.7909 373.211 93.301C361.326 95.9111 352.312 96.9367 344.424 103.056C337.78 108.21 336.707 111.595 338.156 116.672C339.72 122.151 347.043 123.176 354.059 126.667C362.921 131.078 372.293 131.067 379.799 136.157C384.124 139.091 387.532 140.641 388.458 144.675C389.097 147.462 388.379 149.264 387.002 152.288C383.984 158.916 369.124 169.784 369.124 169.784L367.319 168.566C367.319 168.566 381.487 159.056 384.567 152.531C385.904 149.7 386.695 148.001 386.117 145.387C385.235 141.403 381.392 140.046 377.028 137.2C369.408 132.232 360.431 132.058 351.765 127.615C344.619 123.951 337.263 122.78 335.723 117.101C334.318 111.916 336.049 107.823 342.782 102.566C350.649 96.4234 361.033 94.6982 373.931 91.9365C403.616 85.5805 413.363 103.659 443.205 98.0801C448.824 97.0296 452.309 96.6956 457.436 94.7425C463.644 92.3779 468.379 90.4092 470.251 86.8074C471.576 84.2581 470.918 82.7307 469.041 80.7618C465.935 77.5052 460.043 77.5549 452.864 76.8651C445.02 76.1114 439.223 77.9694 431.107 77.5707C422.745 77.16 415.352 78.1242 411.209 74.7103C408.87 72.7832 408.91 71.1449 408.985 68.5657C409.181 61.8491 423.495 56.5997 426.18 55.5891Z" fill="#DDDDDD"/>
<path d="M426.18 55.5891C425.833 55.6949 426.272 56.0438 426.272 56.0438C426.272 56.0438 453.136 45.6844 465.668 48.8786C470.11 50.0107 472.885 50.7333 475.227 53.0065C479.465 57.1208 474.714 61.3091 472.005 66.752C468.935 72.919 462.239 76.2389 459.571 82.3968C457.463 87.2634 454.025 90.9062 457.82 94.5904C460.737 97.4224 463.446 99.2371 470.031 99.5768C478.824 100.03 485.72 97.672 494.01 94.0979C500.221 91.4202 504.102 88.8889 508.745 85.4697C532.646 67.8682 503.791 52.8941 530.222 36.1294C540.819 29.4077 547.056 23.856 562.364 21.483C575.259 19.4841 582.155 20.3756 591.041 23.7624C600.631 27.4177 599.068 32.812 602.306 39.1742C606.396 47.2116 601.901 53.4856 607.922 60.9375C611.39 65.2311 612.687 68.2525 619.855 70.7921C624.809 72.5471 628.55 72.9231 634.912 73.4396C648.856 74.5716 676.452 69.7865 676.452 69.7865L675.015 67.997C675.015 67.997 650.313 72.9652 636.533 71.9241C630.554 71.4723 626.971 71.1941 622.317 69.5629C615.222 67.076 614.497 63.8557 611.212 59.5769C605.476 52.1071 609.432 46.0091 605.188 38.0881C601.687 31.5565 602.99 26.0702 593.012 22.3364C583.901 18.927 575.355 18.14 562.224 20.1497C546.881 22.4978 538.67 28.6342 527.304 35.9626C501.144 52.8284 530.595 67.9622 505.827 85.3029C501.163 88.5684 498.869 90.7445 492.738 93.2508C485.314 96.2851 479.34 98.5207 471.652 98.0613C466.21 97.7362 463.643 96.5685 460.825 94.3734C456.164 90.7428 459.071 86.8183 461.196 81.6798C463.518 76.0654 469.79 73.0655 472.912 67.4373C476.129 61.6393 481.477 57.1444 477.014 52.7435C474.496 50.2593 471.386 49.5066 466.485 48.3297C453.721 45.2648 428.449 54.8984 426.18 55.5891Z" fill="#DDDDDD"/>
<path d="M673.598 83.8098C673.598 83.8098 679.973 86.6007 681.183 96.461C681.507 99.3603 680.072 101.502 678.018 103.538C675.915 105.707 672.802 105.714 670.92 107.933C672.22 105.833 671.841 103.332 674.064 101.656C670.745 102.725 669.032 105.304 668.588 108.673C668.192 111.909 666.757 114.051 663.19 114.402C665.008 112.937 664.393 110.92 664.312 108.917C664.117 111.269 662.309 112.377 660.251 112.857C657.744 113.503 656.658 114.186 654.74 116.093C655.72 112.65 654.035 110.782 658.213 109.157C660.504 108.283 663.037 106.659 661.199 103.81C660.579 108.819 656.395 107.242 653.019 108.799C650.632 109.937 651.117 111.818 649.78 113.606C648.444 115.394 646.123 115.689 644.033 115.679C647.528 114.703 646.652 110.767 647.481 107.987C648.411 104.764 652.655 104.031 654.42 101.141C652.842 98.5652 651.293 101.682 650.643 102.733C649.578 104.35 648.203 105.915 645.912 105.055C651.295 103.328 647.64 96.8279 651.532 94.2614C653.025 93.2776 656.81 94.7999 657.568 93.0408C658.75 90.3588 654.088 91.7489 653.092 92.4344C653.352 90.9736 654.502 89.536 655.943 88.8622C657.789 87.9766 659.092 89.167 660.702 88.8534C662.847 88.4648 663.051 85.7573 660.651 85.6944C659.762 85.6712 657.899 87.179 656.823 87.5066C658.14 84.7837 661.364 82.2442 664.316 81.6099C667.983 80.8165 670.519 82.4839 673.598 83.8098Z" fill="url(#paint0_linear_38_1246)"/>
<path d="M675.375 87.2562C676.015 87.9764 675.97 88.0192 676.559 88.955C677.818 90.9141 678.068 93.7488 676.182 95.3719C675.106 96.2685 673.84 96.0173 672.689 96.6537C671.471 97.311 671.415 98.6508 670.766 99.6816C670.71 98.946 670.713 98.3623 670.548 97.6471C670.48 97.214 670.37 96.7372 670.538 96.3282C670.073 97.1016 669.992 98.0087 669.484 98.7816C668.839 99.7261 667.874 100.019 666.822 100.353C665.749 100.666 664.705 100.785 663.537 100.772C663.061 100.767 662.439 100.653 661.999 100.821C661.426 101.074 661.209 101.613 660.76 101.997C661.017 100.508 661.113 99.7523 662.688 99.3366C664.307 98.9214 664.387 97.517 665.446 96.5121C664.535 97.0862 663.377 97.355 662.756 96.1593C664.677 96.785 665.472 95.3666 665.737 93.7047C666.02 92.1079 665.97 90.7021 667.272 89.5917C666.472 89.5616 666.069 90.4005 665.574 90.8709C664.99 91.3835 664.332 91.5928 663.569 91.736C663.659 91.6505 663.792 91.5654 663.839 91.4795C664.143 90.9422 664.699 90.5806 665.003 90.0433C665.284 89.5274 665.456 89.032 665.673 88.4938C666.108 87.4175 667.229 86.4781 668.206 85.8831C669.827 84.8842 672.799 85.2183 674.729 86.6656L674.917 86.819C675.085 86.9505 675.23 87.1033 675.375 87.2562Z" fill="#FFC929"/>
<path d="M675.928 87.8434C676.621 88.6672 676.721 89.3353 676.698 90.4125C676.66 91.6154 675.552 92.4646 674.766 93.2549C674.958 92.8938 674.908 92.5368 674.951 92.1367C674.528 92.6055 674.131 92.4214 673.655 92.6936C673.156 92.988 672.89 93.5991 672.425 93.906C672.643 93.3852 672.058 92.8399 672.436 92.3698C671.927 92.5607 672.108 93.1969 671.757 93.5073C671.453 93.7732 670.786 93.8905 670.449 94.0752C670.486 93.9502 671.374 92.7044 670.701 93.0509C670.573 93.1272 670.46 93.5939 670.273 93.7488C670.11 93.8585 669.868 93.9314 669.672 93.9827C669.222 94.0952 668.766 93.9896 668.36 94.1951C667.896 94.4332 667.669 94.8735 667.43 95.3249C667.689 94.4957 667.529 93.9519 668.251 93.4006C668.602 93.1131 668.745 92.8652 668.993 92.5172C669.206 92.2256 669.484 92.0964 669.765 91.8298C668.876 91.5963 668.705 92.5658 667.967 92.7727C668.387 92.4415 668.26 91.956 668.396 91.5129C668.543 91.0816 668.908 90.6685 669.336 90.4866C669.648 90.347 670.459 90.4749 670.414 89.9575C670.37 89.3484 669.503 89.6775 669.246 89.8761C669.405 89.4337 669.77 88.9976 670.288 88.8872C670.737 88.7977 671.19 89.0408 671.408 88.52C671.03 87.981 670.491 88.515 669.976 88.4878C670.711 87.9025 671.048 86.6399 672.201 86.8699C672.509 86.9366 673.25 87.6472 673.296 87.1097C673.329 86.6749 672.556 86.3533 672.223 86.4005C673.344 85.9874 674.944 86.7356 675.783 87.6899L675.928 87.8434Z" fill="#F9F079"/>
<path d="M669.567 75.73C668.639 77.2893 667.774 78.7974 666.965 80.2435C666.156 81.6896 669.168 86.4813 672.279 89.7517C675.365 92.9961 681.136 97.4781 682.623 96.745C684.111 96.0119 685.66 95.2276 687.267 94.3832L669.567 75.73Z" fill="url(#paint1_linear_38_1246)"/>
<path d="M715.146 78.4934C734.099 66.3462 753.097 50.1973 761.961 27.313L740.462 4.65625C717.148 12.3081 700.021 30.4312 686.898 48.7238L674.299 67.9272C673.142 69.8161 672.034 71.641 670.957 73.4291L689.638 93.1167C691.479 92.1332 693.364 91.124 695.308 90.0683L715.146 78.4934ZM738.566 27.9858C741.008 30.6624 740.917 34.7649 738.324 37.2248C735.735 39.6819 731.627 39.5636 729.083 36.9833C726.639 34.3066 726.737 30.1995 729.327 27.7424C731.919 25.2825 736.02 25.4055 738.566 27.9858Z" fill="url(#paint2_linear_38_1246)"/>
<path d="M697.208 95.2518L695.306 90.069L715.144 78.4941C714.434 82.265 713.3 97.248 713.3 97.248L690.742 116.109L686.596 111.74L697.208 95.2518Z" fill="url(#paint3_linear_38_1246)"/>
<path d="M668.073 49.5836C668.073 49.5836 683.092 49.2334 686.897 48.7246L674.298 67.928L669.222 65.7564L652.2 75.4897L648.055 71.1213L668.073 49.5836Z" fill="url(#paint4_linear_38_1246)"/>
<path d="M762.929 24.5634C765.363 17.2724 768.224 0.273067 767.985 0.0216091C767.745 -0.23182 750.669 1.78654 743.262 3.83645L762.929 24.5634Z" fill="url(#paint5_linear_38_1246)"/>
<path d="M669.566 75.7306L687.266 94.3838L689.637 93.1173L670.956 73.4297L669.566 75.7306Z" fill="url(#paint6_linear_38_1246)"/>
<path d="M740.461 4.65693L761.959 27.3137L762.93 24.5639L743.262 3.83691L740.461 4.65693Z" fill="url(#paint7_linear_38_1246)"/>
<path d="M738.324 37.225C740.916 34.7651 741.007 30.6626 738.565 27.9859C736.019 25.4056 731.918 25.2827 729.326 27.7426C726.736 30.1997 726.638 34.3068 729.083 36.9835C731.626 39.5637 735.734 39.6821 738.324 37.225Z" fill="url(#paint8_linear_38_1246)"/>
<path d="M217.99 420.48V383.793H138.585L130.795 363.942L187.836 234.028H232.062L182.308 346.854H217.99V315.193L226.282 292.326H261.462V346.854H278.298V377.008L261.462 383.793V420.48H217.99Z" fill="#06B6D4"/>
<g filter="url(#filter0_d_38_1246)">
<path d="M438.801 295.69C460.144 344.483 437.891 401.338 389.098 422.68C340.306 444.023 283.45 421.77 262.108 372.977C240.766 324.185 263.019 267.329 311.811 245.987C360.604 224.645 417.459 246.898 438.801 295.69Z" fill="url(#paint9_linear_38_1246)"/>
<path d="M312.073 306.142C315.357 313.648 311.934 322.395 304.428 325.679C296.922 328.963 288.174 325.54 284.89 318.034C281.606 310.528 285.029 301.781 292.535 298.497C300.041 295.213 308.789 298.635 312.073 306.142Z" fill="url(#paint10_linear_38_1246)"/>
<path d="M402.675 266.862C404.56 269.05 404.204 271.91 401.879 273.251C399.555 274.592 396.141 273.906 394.256 271.718C392.37 269.531 392.726 266.671 395.051 265.33C397.376 263.989 400.789 264.675 402.675 266.862Z" fill="url(#paint11_linear_38_1246)"/>
<path d="M436.744 336.168C439.679 337.19 440.912 341.31 439.498 345.37C438.084 349.431 434.559 351.894 431.624 350.872C428.688 349.85 427.455 345.73 428.869 341.67C430.283 337.609 433.808 335.146 436.744 336.168Z" fill="url(#paint12_linear_38_1246)"/>
<path d="M347.64 241.391C347.829 243.047 344.52 244.785 340.248 245.274C335.976 245.763 332.359 244.817 332.17 243.162C331.98 241.506 335.29 239.768 339.562 239.279C343.834 238.79 347.45 239.736 347.64 241.391Z" fill="url(#paint13_linear_38_1246)"/>
<path d="M383.832 389.735C385.904 400.523 377.208 411.262 364.407 413.721C351.607 416.179 339.551 409.426 337.479 398.637C335.407 387.849 344.104 377.11 356.904 374.652C369.704 372.193 381.76 378.946 383.832 389.735Z" fill="url(#paint14_linear_38_1246)"/>
<path d="M317.919 242.126C318.562 243.443 314.728 246.638 309.354 249.264C303.98 251.889 299.102 252.95 298.459 251.634C297.816 250.317 301.651 247.121 307.024 244.496C312.398 241.87 317.276 240.809 317.919 242.126Z" fill="#06B6D4"/>
<path d="M318.765 243.856C319.875 246.128 316.419 250.098 311.045 252.723C305.671 255.349 300.415 255.636 299.305 253.364C298.195 251.092 301.652 247.122 307.025 244.496C312.399 241.871 317.655 241.584 318.765 243.856Z" fill="#06B6D4"/>
<path d="M314.843 242.398C315.03 242.781 312.131 244.583 308.367 246.421C304.604 248.26 301.401 249.44 301.214 249.057C301.026 248.674 303.926 246.873 307.689 245.034C311.453 243.195 314.656 242.015 314.843 242.398Z" fill="#400003"/>
<path d="M250.688 348.549C252.969 347.854 257.117 354.839 259.952 364.15C262.787 373.461 263.236 381.572 260.955 382.267C258.674 382.961 254.526 375.976 251.691 366.665C248.856 357.354 248.407 349.243 250.688 348.549Z" fill="url(#paint15_linear_38_1246)"/>
<path d="M253.684 347.636C257.621 346.437 263.11 353.014 265.945 362.325C268.78 371.636 267.888 380.155 263.951 381.354C260.015 382.553 254.525 375.976 251.69 366.665C248.855 357.355 249.748 348.835 253.684 347.636Z" fill="url(#paint16_linear_38_1246)"/>
<path d="M250.333 353.56C250.997 353.358 253.145 358.481 255.131 365.002C257.116 371.523 258.188 376.973 257.524 377.175C256.86 377.377 254.713 372.255 252.727 365.734C250.741 359.213 249.67 353.763 250.333 353.56Z" fill="#06B6D4"/>
<path d="M332.022 427.407C332.112 426.144 340.069 425.277 349.795 425.47C359.521 425.663 367.333 426.844 367.244 428.107C367.155 429.37 359.198 430.237 349.471 430.044C339.745 429.85 331.933 428.67 332.022 427.407Z" fill="url(#paint17_linear_38_1246)"/>
<path d="M332.139 425.748C332.293 423.568 340.303 421.958 350.029 422.151C359.755 422.345 367.515 424.268 367.361 426.447C367.207 428.626 359.197 430.237 349.471 430.043C339.745 429.85 331.985 427.927 332.139 425.748Z" fill="url(#paint18_linear_38_1246)"/>
<path d="M336.641 428.453C336.667 428.086 342.21 427.898 349.022 428.033C355.834 428.168 361.335 428.576 361.309 428.943C361.283 429.311 355.74 429.499 348.928 429.364C342.116 429.228 336.615 428.821 336.641 428.453Z" fill="#06B6D4"/>
<path d="M432.214 388.438C430.318 387.575 431.638 380.602 435.162 372.865C438.685 365.127 443.079 359.554 444.975 360.417C446.871 361.281 445.551 368.253 442.027 375.991C438.503 383.729 434.11 389.302 432.214 388.438Z" fill="url(#paint19_linear_38_1246)"/>
<path d="M429.722 387.304C426.451 385.815 426.655 378.334 430.179 370.596C433.703 362.859 439.212 357.794 442.483 359.283C445.754 360.773 445.55 368.254 442.026 375.991C438.502 383.729 432.993 388.794 429.722 387.304Z" fill="url(#paint20_linear_38_1246)"/>
<path d="M435.342 385.36C434.79 385.109 436.344 380.512 438.812 375.093C441.28 369.674 443.728 365.484 444.279 365.735C444.831 365.987 443.277 370.583 440.809 376.003C438.341 381.422 435.893 385.612 435.342 385.36Z" fill="#130406"/>
<path d="M432.728 281.048C431.655 281.779 428.367 278.824 425.383 274.446C422.399 270.069 420.85 265.928 421.922 265.197C422.994 264.466 426.283 267.422 429.267 271.799C432.251 276.176 433.8 280.317 432.728 281.048Z" fill="url(#paint21_linear_38_1246)"/>
<path d="M431.318 282.009C429.468 283.27 425.548 280.745 422.564 276.367C419.58 271.99 418.662 267.419 420.512 266.158C422.363 264.896 426.282 267.422 429.266 271.799C432.25 276.176 433.169 280.747 431.318 282.009Z" fill="url(#paint22_linear_38_1246)"/>
<path d="M432.099 278.386C431.787 278.599 429.84 276.287 427.75 273.221C425.66 270.155 424.219 267.498 424.531 267.285C424.843 267.072 426.79 269.385 428.88 272.451C430.97 275.516 432.411 278.174 432.099 278.386Z" fill="#06B6D4"/>
<path d="M372.657 321.36C372.657 326.481 368.506 330.632 363.385 330.632C358.264 330.632 354.113 326.481 354.113 321.36C354.113 316.239 358.264 312.088 363.385 312.088C368.506 312.088 372.657 316.239 372.657 321.36Z" fill="#06B6D4"/>
<path d="M292.546 389.108C290.219 391.113 285.622 389.594 282.28 385.714C278.938 381.835 278.115 377.064 280.443 375.058C282.771 373.053 287.367 374.572 290.709 378.452C294.052 382.332 294.874 387.102 292.546 389.108Z" fill="#06B6D4"/>
<path d="M365.239 258.31C365.239 261.383 361.088 263.873 355.967 263.873C350.847 263.873 346.695 261.383 346.695 258.31C346.695 255.238 350.847 252.747 355.967 252.747C361.088 252.747 365.239 255.238 365.239 258.31Z" fill="#06B6D4"/>
<path d="M419.956 375.62C421.976 377.935 420.486 382.541 416.627 385.908C412.769 389.275 408.003 390.127 405.983 387.812C403.963 385.497 405.454 380.891 409.312 377.524C413.171 374.158 417.936 373.305 419.956 375.62Z" fill="#3B82F6"/>
</g>
<path d="M272.08 254.164L276.403 255.845L290.33 250.802C290.33 250.802 293.197 253.198 294.892 254.884C296.163 256.148 297.152 256.675 298.014 258.246C298.358 258.872 298.953 259.247 298.735 259.927C298.551 260.498 298.092 260.667 297.534 260.887C296.836 261.163 296.357 260.985 295.613 260.887C293.866 260.659 291.771 258.966 291.05 259.447C290.33 259.927 290.255 261.07 289.85 262.568C289.445 264.067 292.326 268.192 291.05 271.453C290.699 272.352 290.716 273.187 289.85 273.614C289.177 273.946 288.649 273.825 287.929 273.614C286.591 273.223 286.356 272.094 285.527 270.973C283.981 268.882 282.646 264.97 282.646 264.97C282.646 264.97 283.574 268.006 283.846 270.012C284.036 271.409 284.432 272.248 284.087 273.614C283.911 274.307 283.964 274.905 283.366 275.295C282.966 275.556 282.644 275.535 282.165 275.535C281.687 275.535 281.399 275.495 280.965 275.295C280.179 274.934 279.997 274.338 279.524 273.614C278.857 272.594 278.778 271.864 278.323 270.733C277.316 268.228 275.922 264.249 275.922 264.249C275.922 264.249 276.391 268.679 275.922 271.453C275.778 272.306 276.171 273.15 275.442 273.614C275.116 273.822 274.868 273.854 274.481 273.854C274.095 273.854 273.87 273.78 273.521 273.614C272.604 273.18 272.545 272.355 272.08 271.453C271.359 270.056 271.167 269.156 270.879 267.611C270.432 265.214 270.283 263.81 270.399 261.368C270.471 259.857 270.523 258.995 270.879 257.525C271.208 256.171 272.08 254.164 272.08 254.164Z" fill="#C0C0C0"/>
<path d="M275.922 186.926C275.922 186.926 291.186 170.478 303.777 164.354C317.224 157.814 341.238 156.43 341.238 156.43C341.238 156.43 350.986 170.549 355.646 180.443C362.65 195.313 367.652 220.785 367.652 220.785L315.063 251.762C315.063 251.762 300.778 235.411 293.452 223.667C285.038 210.178 275.922 186.926 275.922 186.926Z" fill="#CACACA"/>
<path d="M294.652 161.472C282.061 167.596 266.797 184.045 266.797 184.045C266.797 184.045 275.913 207.297 284.327 220.785C291.653 232.53 305.938 248.88 305.938 248.88L315.063 251.762C315.063 251.762 300.778 235.411 293.452 223.666C285.038 210.178 275.922 186.926 275.922 186.926C275.922 186.926 291.186 170.477 303.777 164.354C317.224 157.814 341.238 156.429 341.238 156.429C341.238 156.429 350.986 170.549 355.646 180.443C362.116 194.179 366.878 216.961 367.566 220.356L367.652 220.305C367.652 220.305 364.537 197.072 358.527 183.564C353.419 172.084 341.238 156.429 341.238 156.429L332.113 153.548C332.113 153.548 308.099 154.932 294.652 161.472Z" fill="#ACAAAA"/>
<path d="M266.797 184.045C266.797 184.045 275.913 207.297 284.327 220.785C291.653 232.53 305.938 248.881 305.938 248.881L315.063 251.762C315.063 251.762 300.778 235.411 293.452 223.667C285.038 210.178 275.922 186.927 275.922 186.927L266.797 184.045Z" fill="#BBB8B8"/>
<path d="M282.646 264.97C282.646 264.97 283.982 268.882 285.528 270.973C286.357 272.094 286.591 273.223 287.929 273.615C288.649 273.825 289.178 273.946 289.85 273.615C290.523 273.283 290.014 272.577 289.611 272.174C289.207 271.77 288.673 272.203 288.17 271.934C287.319 271.478 287.478 270.593 286.969 269.772C286.367 268.799 285.863 268.361 285.288 267.371C284.867 266.646 284.997 265.956 284.328 265.45C283.783 265.038 282.646 264.97 282.646 264.97Z" fill="#D6D6D6"/>
<path d="M275.922 264.249C275.922 264.249 277.316 268.227 278.323 270.733C278.778 271.864 278.857 272.593 279.524 273.614C279.997 274.338 280.179 274.934 280.965 275.295C281.399 275.495 281.687 275.535 282.165 275.535C282.643 275.535 282.433 274.96 282.406 274.575C282.355 273.844 282.599 273.724 282.166 273.134C281.519 272.252 281.167 272.417 280.65 271.453C280.016 270.269 279.387 268.82 278.803 267.611C278.348 266.667 278.79 265.984 278.084 265.21C277.679 264.766 276.84 264.347 275.922 264.249Z" fill="#D6D6D6"/>
<path d="M270.879 257.525C270.523 258.994 270.471 259.857 270.399 261.367C270.283 263.81 270.432 265.214 270.879 267.61C271.167 269.156 271.359 270.056 272.08 271.453C272.545 272.354 272.604 273.18 273.521 273.614C273.87 273.779 274.095 273.854 274.481 273.854C274.481 273.854 273.423 270.675 273.041 268.571C272.738 266.9 272.453 265.944 272.561 264.249C272.664 262.614 272.898 261.681 273.521 260.166C274.293 258.29 276.403 255.844 276.403 255.844L272.08 254.163C272.08 254.163 271.208 256.17 270.879 257.525Z" fill="#D6D6D6"/>
<path d="M290.65 178.486C290.601 178.134 290.902 177.839 291.255 177.871C293.07 178.035 294.494 177.998 296.574 177.801C300.832 177.4 303.155 176.475 307.139 174.92C309.055 174.172 310.109 173.692 311.942 172.759C315.397 171 317.235 169.788 320.347 167.476C323.316 165.269 325.23 164.202 327.501 161.361C327.671 161.15 327.968 161.082 328.2 161.222C331.156 163.013 331.214 166.099 332.593 168.436C332.593 168.436 326.919 170.542 323.709 173.479C320.232 176.66 317.83 177.844 313.383 179.723C309.196 181.491 306.125 182.273 301.616 182.844C297.691 183.341 293.452 185.726 293.452 185.726C291.954 182.848 291.017 181.152 290.65 178.486Z" fill="url(#paint23_linear_38_1246)"/>
<path d="M366.933 286.342C367.126 285.233 366.933 283.46 366.933 283.46L383.742 287.782L382.542 291.865C382.542 291.865 388.833 298.638 389.746 304.111C390.226 306.993 388.857 313.476 384.703 313.476C377.259 313.476 374.312 310.109 370.055 305.072C366.255 300.576 362.69 296.808 364.292 291.144C364.874 289.084 366.567 288.451 366.933 286.342Z" fill="#C0C0C0"/>
<path d="M382.542 291.863L383.743 287.781H377.739C377.739 287.781 376.59 289.94 376.779 291.383C377.023 293.243 378.13 294.141 379.66 295.225C381.258 296.357 382.854 295.55 384.463 296.666C385.943 297.693 386.304 298.798 387.345 300.268C388.367 301.712 389.746 304.11 389.746 304.11C388.833 298.637 382.542 291.863 382.542 291.863Z" fill="#9C9C9C"/>
<path d="M366.933 286.342C366.567 288.451 364.874 289.084 364.292 291.144C362.69 296.808 366.255 300.576 370.055 305.072C374.312 310.109 377.259 313.476 384.703 313.476C384.703 313.476 379.53 312.223 376.779 310.355C373.757 308.303 372.471 306.488 370.535 303.391C369.268 301.363 368.384 300.208 367.894 297.868C367.471 295.849 367.233 294.539 367.894 292.585C368.394 291.107 369.432 290.654 370.055 289.223C370.636 287.888 371.016 285.621 371.016 285.621L366.933 283.46C366.933 283.46 367.126 285.233 366.933 286.342Z" fill="#D6D6D6"/>
<path d="M290.906 179.963C292.346 180.443 295.489 180.663 297.823 180.443C302.081 180.041 304.596 179.356 308.58 177.801C310.496 177.054 311.55 176.573 313.383 175.64C316.838 173.882 319.156 172.429 322.267 170.117C325.362 167.818 328.942 165.314 330.144 162.913C330.624 163.393 331.141 164.805 331.682 166.755C331.682 166.755 328.168 172.703 324.958 175.64C321.481 178.821 319.079 180.005 314.632 181.884C310.446 183.652 307.375 184.434 302.866 185.005C298.941 185.503 292.78 184.045 292.78 184.045C292.299 184.045 291.145 181.403 290.906 179.963Z" fill="url(#paint24_linear_38_1246)"/>
<path d="M386.143 158.351C386.143 158.351 387.792 158.21 388.784 157.87C389.895 157.489 390.479 157.125 391.425 156.43C392.494 155.644 392.881 154.958 393.827 154.028C396.665 151.237 401.271 147.064 401.271 147.064C401.271 147.064 402.164 146.666 402.712 146.824C403.162 146.954 403.377 147.181 403.672 147.545C403.937 147.87 404.07 148.094 404.152 148.505C404.265 149.064 404.047 149.392 403.912 149.946C403.303 152.448 400.31 155.361 400.791 155.709L401.271 155.949C401.751 155.949 404.051 153.66 406.074 152.587C407.075 152.057 407.617 151.668 408.715 151.387C409.718 151.129 410.485 150.587 411.356 151.147C411.926 151.512 412.139 151.935 412.317 152.587C412.465 153.13 412.382 153.469 412.317 154.028C411.958 157.125 406.049 158.591 406.554 159.551C406.711 159.851 406.732 160.12 407.034 160.272C407.514 160.512 409.397 160.301 410.876 160.031C412.831 159.675 413.699 158.515 415.679 158.351C416.333 158.296 416.738 158.139 417.36 158.351C418.053 158.586 418.651 158.834 418.801 159.551C418.922 160.132 418.598 160.468 418.32 160.992C417.824 161.93 417.237 162.262 416.399 162.913C415.075 163.943 414.111 164.203 412.557 164.834C410.302 165.751 408.687 165.341 406.554 166.515C405.551 167.067 404.152 167.051 404.152 168.196C404.152 169.877 408.947 170.602 409.435 173.479C409.577 174.311 409.929 174.955 409.435 175.64C408.967 176.29 408.305 176.23 407.514 176.36C405.554 176.685 404.62 175.232 402.712 174.68C400.679 174.091 399.532 173.706 397.429 173.479C395.471 173.267 392.386 173.479 392.386 173.479L391.666 161.953L386.143 158.351Z" fill="#C0C0C0"/>
<path d="M415.678 158.35C413.698 158.515 412.831 159.675 410.876 160.031C410.396 160.271 410.395 160.272 410.155 160.512L410.155 160.512C409.916 160.751 409.609 160.9 409.675 161.232C409.741 161.564 410.077 161.599 410.396 161.712C411.124 161.972 411.594 161.508 412.317 161.232C412.904 161.007 413.158 160.702 413.757 160.512C414.301 160.339 414.634 160.355 415.198 160.271C415.946 160.16 416.379 160.185 417.119 160.031C417.788 159.892 418.95 160.268 418.8 159.551C418.651 158.834 418.053 158.586 417.359 158.35C416.738 158.139 416.333 158.296 415.678 158.35Z" fill="#D6D6D6"/>
<path d="M406.074 152.588C404.153 153.789 402.952 154.749 402.952 154.749C402.952 154.749 402.422 155.193 402.712 155.71C403.09 156.384 403.895 156.419 404.634 156.19C405.209 155.935 405.504 155.735 406.074 155.47C406.722 155.168 407.141 155.114 407.755 154.749C408.613 154.24 408.833 153.6 409.676 153.068C410.209 152.733 410.769 152.872 411.117 152.348C411.382 151.95 412.229 151.707 411.357 151.147C410.486 150.588 409.719 151.13 408.716 151.387C407.618 151.669 407.035 151.988 406.074 152.588Z" fill="#D6D6D6"/>
<path d="M388.784 157.87C387.793 158.21 387.032 157.795 386.143 158.351C383.959 159.714 389.126 162.378 391.666 161.953C393.078 161.716 393.485 160.625 394.788 160.031C395.517 159.699 396.061 159.783 396.709 159.311C397.301 158.88 397.666 158.561 397.909 157.87C398.295 156.776 397.012 156.135 397.189 154.989C397.404 153.599 398.515 153.239 399.35 152.107C400.108 151.081 400.387 150.384 401.271 149.466C402.104 148.601 403.968 147.909 403.673 147.545C403.377 147.181 403.163 146.954 402.712 146.824C402.164 146.666 401.271 147.064 401.271 147.064C401.271 147.064 396.665 151.237 393.827 154.028C392.882 154.958 392.495 155.644 391.426 156.43C390.479 157.125 389.896 157.489 388.784 157.87Z" fill="#D6D6D6"/>
<path d="M338.783 314.584C339.609 313.421 340.979 311.666 340.979 311.666L349.764 313.125L355.406 311.075L359.281 302.67C359.281 302.67 360.217 305.025 360.745 306.56C361.264 308.066 361.723 308.877 361.965 310.45C362.449 313.583 361.811 315.488 360.745 318.474C359.167 322.894 356.965 324.85 353.669 328.2C350.479 331.441 344.396 335.251 344.396 335.251C344.396 335.251 337.752 338.442 334.634 336.223C332.957 335.03 332.306 333.812 331.706 331.847C330.683 328.497 332.383 326.357 333.658 323.094C335.07 319.482 336.536 317.748 338.783 314.584Z" fill="#C0C0C0"/>
<path d="M360.744 306.56C360.216 305.025 359.28 302.67 359.28 302.67C359.28 302.67 354.126 307.694 355.405 311.075C356.086 312.874 358.109 312.868 358.767 314.677C359.771 317.437 357.981 319.285 356.606 321.88C355.508 323.952 354.573 324.941 353.004 326.683C351.226 328.656 350.425 329.518 348.681 331.246C347.054 332.858 344.395 335.251 344.395 335.251C344.395 335.251 350.478 331.441 353.668 328.2C356.964 324.85 359.166 322.894 360.744 318.474C361.81 315.488 362.448 313.583 361.964 310.45C361.722 308.877 361.263 308.066 360.744 306.56Z" fill="#9C9C9C"/>
<path d="M338.784 314.584C336.537 317.748 335.071 319.482 333.66 323.094C332.385 326.357 330.686 328.497 331.708 331.847C332.307 333.814 333.315 335.568 334.636 336.223C334.517 335.471 334.274 335.867 334.035 334.367C333.797 332.868 333.47 331.437 333.66 329.565C333.889 327.306 334.521 326.101 335.476 324.042C336.501 321.834 337.024 320.441 338.784 318.759C339.565 318.013 340.09 317.69 340.981 317.078C344.081 314.947 350.362 316.115 349.765 313.125C349.085 309.715 340.981 311.666 340.981 311.666C340.981 311.666 339.61 313.421 338.784 314.584Z" fill="#D6D6D6"/>
<path d="M291.6 182.283C297.603 182.283 299.168 182.339 303.778 181.404C308.428 180.46 311.034 179.631 315.304 177.562C319.213 175.667 321.362 174.375 324.669 171.558C327.498 169.149 329.712 166.756 331.153 164.594C332.113 165.795 332.065 166.343 333.074 166.996C333.426 167.224 333.636 167.346 334.034 167.476C335.756 168.039 336.599 166.231 338.357 165.795C340.549 165.252 341.868 165.484 344.12 165.315C348.991 164.948 351.735 164.951 356.607 164.594C360.925 164.278 363.384 164.36 367.653 163.634C374.524 162.465 377.74 158.7 384.702 158.351C386.107 158.281 386.931 158.046 388.304 158.351C391.353 159.029 392.456 161.119 394.307 163.634C395.625 165.424 396.595 166.482 396.949 168.677C397.362 171.237 397.237 173.226 395.508 175.16C393.568 177.331 390.995 175.969 388.304 177.081C385.272 178.335 384.241 180.456 381.1 181.404C379.018 182.032 377.683 181.58 375.577 182.124C371.8 183.099 370.316 185.245 366.692 186.687C364.129 187.706 362.679 188.34 359.968 188.848C358.024 189.212 356.9 189.205 354.926 189.328C351.182 189.561 350.843 188.367 346.281 189.328C346.281 190.529 346.307 190.963 347.001 191.969C348.516 194.163 349.685 195.15 351.324 197.252C357.241 204.842 357.993 211.071 364.771 217.904C365.606 218.745 366.299 219.022 366.962 220.005C367.881 221.366 367.339 222.624 368.193 224.027C369.592 226.326 371.478 226.691 373.851 227.959C375.611 228.9 376.845 228.931 378.549 229.97C380.584 231.212 381.444 232.319 383.141 233.993C384.547 235.379 385.163 236.322 386.563 237.715C388.53 239.671 390.219 240.195 391.906 242.397C393.386 244.328 394.082 245.592 394.788 247.92C395.365 249.824 395.614 250.977 395.508 252.963C395.383 255.304 394.475 256.473 393.827 258.726C392.375 263.777 392.014 266.752 390.225 271.693C388.439 276.626 386.204 278.913 384.702 283.94C383.986 286.338 385.023 288.407 383.261 290.184C381.674 291.784 379.992 291.823 377.738 291.864C375.51 291.906 374.206 291.427 372.215 290.424C370.833 289.727 370.028 289.276 368.973 288.142C367.701 286.775 365.954 285.794 365.732 283.94C365.011 277.937 366.1 275.872 367.413 270.973C368.061 268.55 369.584 267.475 369.694 264.97C369.782 262.958 369.489 261.74 368.613 259.927C364.051 257.285 361.409 257.285 352.764 255.604C352.284 255.604 350.843 255.604 349.883 260.167C349.403 263.289 350.256 266.351 351.324 270.493C352.311 274.325 352.589 276.547 353.725 280.338C355.25 285.427 356.745 288.061 358.528 293.065C359.394 295.496 360.329 296.754 360.689 299.309C360.951 301.166 360.997 302.261 360.689 304.111C360.137 307.421 359.349 309.483 357.327 312.276C356.276 313.727 355.796 314.814 354.205 315.638C352.448 316.547 351.14 316.077 349.163 316.118C347.285 316.156 346.205 316.228 344.36 315.878C342.815 315.584 341.815 315.564 340.518 314.677C339.309 313.85 338.985 312.975 338.116 311.795C335.406 308.113 334.391 305.525 332.593 301.23C330.291 295.728 329.564 292.404 328.271 286.582C327.733 284.158 327.607 282.762 327.07 280.338C326.017 275.584 326.494 274.541 324.189 270.253C322.852 267.766 320.609 265.047 319.506 262.448C318.443 259.943 318.907 258.047 317.705 255.604C316.154 252.45 316.264 255.604 312.662 248.401C309.432 241.94 305.458 239.275 303.537 232.312C303.205 231.106 303.076 230.414 302.817 229.19C302.502 227.696 302.393 226.845 302.097 225.348C301.275 221.197 300.896 216.463 299.695 214.782C299.229 214.733 298.963 214.758 298.495 214.782C294.652 214.977 297.838 229.162 294.172 237.354C293.487 238.886 292.7 239.58 292.251 241.197C291.624 243.455 292.744 244.908 292.251 247.2C291.704 249.742 291.085 251.249 289.37 253.203C287.859 254.924 286.744 255.855 284.567 256.565C282.249 257.321 280.75 256.8 278.324 256.565C276.236 256.363 274.853 256.66 273.041 255.604C271.492 254.703 270.605 253.898 269.919 252.243C269.165 250.423 270.131 249.158 269.919 247.2C269.723 245.39 269.248 244.435 268.958 242.637C268.704 241.053 268.261 240.146 268.478 238.555C268.639 237.38 269.162 236.827 269.439 235.674C269.857 233.931 269.88 232.902 269.919 231.111C269.968 228.853 269.327 227.604 269.439 225.348C269.509 223.93 269.736 223.153 269.919 221.746C270.419 217.905 270.032 215.618 271.12 211.9C271.511 210.562 271.719 209.796 272.32 208.539C272.938 207.247 273.447 206.608 274.241 205.417C275.209 203.966 275.928 203.275 276.883 201.815C278.949 198.656 279.209 196.374 281.205 193.17C282.168 191.625 282.662 190.711 283.847 189.328C285.885 186.948 287.047 185.037 290.09 184.285C290.644 184.148 291.11 184.431 291.531 184.045C292.02 183.597 291.42 182.921 291.6 182.283Z" fill="url(#paint25_linear_38_1246)"/>
<path d="M366.963 220.005C366.3 219.022 365.607 218.745 364.772 217.904C357.994 211.071 357.242 204.842 351.324 197.252C349.685 195.15 348.516 194.163 347.002 191.969C346.307 190.963 346.281 189.328 346.281 189.328C346.281 189.328 343.877 188.814 342.679 187.887C339.998 185.813 340.997 179.482 340.518 179.482C335.411 179.483 341.27 187.428 342.199 192.45C342.758 195.47 342.984 197.196 343.88 200.134C345.483 205.39 346.887 208.254 349.883 212.861C353.323 218.149 355.173 221.807 360.689 224.867C365.306 227.429 376.225 229.227 373.852 227.959C371.479 226.691 369.592 226.326 368.194 224.027C367.34 222.624 367.882 221.366 366.963 220.005Z" fill="url(#paint26_linear_38_1246)"/>
<path d="M346.28 189.328C350.843 188.367 351.181 189.561 354.925 189.328C358.669 189.095 350.855 188.377 348.682 186.927C347.081 185.858 346.358 185.003 345.08 183.565C343.697 182.008 340.517 179.482 340.517 179.482C340.517 179.482 340.419 182.171 340.758 183.565C341.15 185.179 340.98 186.427 342.198 187.647C343.356 188.806 346.28 189.328 346.28 189.328Z" fill="url(#paint27_linear_38_1246)"/>
<path d="M352.766 255.605C361.41 257.285 364.052 257.285 368.614 259.927C369.491 261.74 369.783 262.958 369.695 264.97C369.585 267.475 368.063 268.55 367.414 270.973C366.101 275.872 365.012 277.937 365.733 283.94C365.955 285.794 367.703 286.775 368.975 288.142C370.247 289.509 370.746 287.164 370.776 286.101C370.807 285.003 369.518 284.895 368.975 283.94C367.849 281.964 367.978 280.446 368.134 278.177C368.34 275.187 369.824 273.814 370.776 270.973C371.925 267.54 374.022 265.657 373.417 262.088C372.925 259.186 371.797 257.534 369.575 255.605C366.821 253.213 364.335 252.595 360.69 252.723C357.399 252.839 353.486 253.924 352.766 255.605Z" fill="#B26F34"/>
<path d="M316.491 199.654L317.451 198.934C317.451 198.934 317.784 202.739 317.691 205.177C317.598 207.63 317.667 209.067 316.971 211.42C316.054 214.521 314.162 215.652 312.889 218.624C312.106 220.451 311.208 223.427 311.208 223.427C311.208 223.427 309.705 217.089 310.487 215.263C311.761 212.29 313.653 211.16 314.57 208.059C315.265 205.705 315.197 204.268 315.29 201.815C316.491 199.654 316.491 199.654 316.491 199.654Z" fill="#D18643"/>
<path d="M291.531 184.045C291.11 184.43 290.644 184.148 290.09 184.285C287.047 185.037 285.885 186.947 283.847 189.328C282.662 190.711 282.168 191.625 281.205 193.17C279.209 196.373 278.949 198.656 276.883 201.815C275.928 203.274 275.209 203.965 274.241 205.417C273.447 206.608 272.938 207.247 272.32 208.538C271.719 209.796 271.511 210.562 271.12 211.9C270.032 215.618 270.419 217.905 269.919 221.746C269.736 223.153 269.509 223.93 269.439 225.348C269.327 227.603 269.968 228.853 269.919 231.111C269.88 232.902 269.857 233.931 269.439 235.673C269.162 236.827 268.639 237.38 268.478 238.555C268.261 240.145 268.704 241.052 268.958 242.637C269.248 244.435 269.723 245.389 269.919 247.2C270.131 249.158 269.165 250.423 269.919 252.242C270.605 253.898 271.492 254.703 273.041 255.604C274.853 256.659 276.236 256.362 278.324 256.565C280.411 256.767 278.666 247.009 279.524 240.956C280.603 233.343 281.751 229.144 283.847 221.746C285.9 214.498 287.192 210.449 290.09 203.496C293.365 195.637 307.795 187.318 299.935 184.045H291.531Z" fill="#E5A064"/>
<path d="M344.361 315.877C346.205 316.228 349.163 316.117 349.163 316.117C353.94 314.478 346.123 308.843 344.361 304.111C342.767 299.831 341.833 297.439 340.518 293.065C339.458 289.536 339.805 287.215 338.117 283.94C336.768 281.322 334.935 280.537 333.555 277.936C331.132 273.371 331.39 270.115 330.913 264.969C330.506 260.581 330.913 258.091 330.913 253.683C330.913 250.213 331.213 248.255 330.913 244.798C330.659 241.865 331.657 239.565 329.712 237.354C328.159 235.588 326.538 220.006 324.189 219.876C321.493 219.726 319.879 220.675 317.706 222.277C313.888 225.09 309.061 241.196 312.663 248.4C316.265 255.604 316.154 252.45 317.706 255.604C318.907 258.047 318.443 259.942 319.507 262.448C320.61 265.047 322.853 267.765 324.189 270.252C326.495 274.541 326.018 275.584 327.071 280.338C327.608 282.762 327.734 284.157 328.272 286.581L328.309 286.75C329.579 292.468 330.314 295.781 332.594 301.229C334.391 305.524 335.322 308.071 338.117 311.795C338.996 312.967 339.309 313.85 340.518 314.677C341.816 315.564 342.816 315.584 344.361 315.877Z" fill="#E5A064"/>
<path d="M318.85 183.097L319.667 182.592C319.667 182.592 323.974 188.068 326.393 191.811C330.908 198.8 331.982 203.542 335.999 210.829C338.174 214.773 339.595 216.87 341.763 220.818C344.945 226.611 347.56 229.564 349.448 235.898C351.143 241.587 351.369 250.978 351.369 250.978L350.552 251.483C350.552 251.483 350.326 242.092 348.63 236.403C346.742 230.068 344.128 227.116 340.946 221.323C338.778 217.375 337.356 215.278 335.182 211.334C331.165 204.047 330.091 199.305 325.576 192.316C323.157 188.573 318.85 183.097 318.85 183.097Z" fill="url(#paint28_linear_38_1246)"/>
<path d="M332.594 166.755C332.594 166.755 333.318 167.212 333.795 167.379C334.755 167.715 334.718 167.57 335.236 167.475C336.196 167.235 336.621 166.439 337.637 166.034C338.271 165.782 338.65 165.694 339.318 165.554C340.515 165.304 341.219 165.393 342.44 165.314C344.688 165.169 345.952 165.175 348.203 165.074C350.172 164.985 351.277 164.947 353.246 164.834C355.874 164.682 357.342 164.52 359.969 164.353C361.563 164.252 364.052 164.113 364.052 164.113C364.488 164.566 364.583 164.954 364.772 165.554C365.531 167.962 364.176 169.792 362.371 171.557C360.335 173.548 358.236 173.393 355.407 173.719C351.744 174.14 349.71 172.894 346.042 172.518C339.408 171.838 328.992 171.557 328.992 171.557L331.153 169.156L332.594 166.755Z" fill="#E49046"/>
<path d="M291.772 183.564C291.772 183.564 306.556 184.378 315.184 180.923C323.489 177.596 332.738 166.755 332.738 166.755C332.952 166.924 333.078 167.011 333.314 167.154C333.314 167.154 323.953 178.171 315.785 181.643C306.931 185.407 291.531 184.044 291.531 184.044C291.702 183.885 291.737 183.777 291.772 183.564Z" fill="url(#paint29_linear_38_1246)"/>
<path d="M291.772 183.564C291.772 183.564 306.556 184.378 315.184 180.923C323.489 177.596 332.738 166.755 332.738 166.755C332.952 166.924 333.078 167.011 333.314 167.154C333.314 167.154 323.953 178.171 315.785 181.643C306.931 185.407 291.531 184.044 291.531 184.044C291.702 183.885 291.737 183.777 291.772 183.564Z" fill="url(#paint30_linear_38_1246)"/>
<path d="M297.775 198.934H298.256C298.256 198.934 300.352 204.099 300.417 207.578C300.47 210.419 299.216 214.754 299.216 214.754C298.751 214.769 298.94 214.768 298.736 214.768C298.736 214.768 300.027 210.276 299.937 207.338C299.832 203.951 297.775 198.934 297.775 198.934Z" fill="url(#paint31_linear_38_1246)"/>
<path d="M261.508 137.987C262.175 134.843 262.95 133.116 264.59 130.302C266.136 127.651 267.307 126.302 269.47 124.059C272.523 120.893 274.584 119.341 278.458 117.095C282.197 114.928 284.543 114.032 288.731 112.773C293.3 111.399 296.006 110.791 300.802 110.611C304.622 110.469 306.811 110.635 310.561 111.332C312.804 111.749 314.103 111.944 316.211 112.773C318.241 113.571 319.333 114.173 321.09 115.414C325.575 118.581 326.802 121.757 329.309 126.46C330.613 128.907 331.189 130.356 332.134 132.944C333.108 135.614 333.712 137.122 334.188 139.908C334.869 143.889 335.312 146.34 334.188 150.233C333.277 153.392 332.1 155.007 330.079 157.677C328.275 160.062 327.069 161.312 324.686 163.2C321.734 165.54 319.615 166.282 316.211 168.003C312.027 170.118 309.695 171.443 305.168 172.806C298.619 174.776 294.417 176.372 287.704 174.967C284.196 174.233 282.275 173.391 279.229 171.605C276.814 170.189 275.625 169.139 273.579 167.283C269.245 163.35 267.028 160.683 264.59 155.516C261.596 149.169 260.065 144.792 261.508 137.987Z" fill="url(#paint32_linear_38_1246)"/>
<path d="M265.796 152.395L277.562 171.605C277.562 171.605 274.021 171.78 272.039 170.885C269.802 169.874 268.916 168.55 267.476 166.562C266.074 164.626 265.431 163.355 264.835 161.039C264.063 158.042 265.796 152.395 265.796 152.395Z" fill="#B7B6B2"/>
<path d="M327.07 128.094C327.07 128.094 331.958 129.804 333.272 130.782C334.39 131.615 334.901 132.263 335.673 133.424C336.89 135.251 337.274 136.535 337.594 138.707C337.827 140.284 337.827 141.212 337.594 142.789C337.274 144.961 333.272 151.627 333.272 151.627L327.07 128.094Z" fill="#B7B7C3"/>
<g filter="url(#filter1_f_38_1246)">
<path d="M331.832 132.977L332.899 132.223C332.899 132.223 333.943 133.876 334.499 134.99C335.257 136.509 335.604 137.403 336.099 139.015C336.338 139.793 336.754 140.225 336.632 141.028C336.514 141.812 335.566 142.788 335.566 142.788C335.566 142.788 335.024 140.306 334.499 138.763C333.701 136.417 331.832 132.977 331.832 132.977Z" fill="#62635E" fill-opacity="0.5"/>
</g>
<path d="M265.315 141.828C265.938 138.685 266.662 136.958 268.196 134.144C269.641 131.492 270.736 130.143 272.759 127.901C275.613 124.735 277.541 123.183 281.163 120.937C284.659 118.769 286.853 117.874 290.769 116.614C295.041 115.241 297.571 114.632 302.055 114.453C305.627 114.31 307.674 114.477 311.18 115.174C313.277 115.59 314.491 115.786 316.463 116.614C318.361 117.412 319.382 118.015 321.025 119.256C325.218 122.423 326.365 125.599 328.709 130.302C329.929 132.749 330.468 134.198 331.351 136.786C332.262 139.455 332.827 140.964 333.272 143.749C333.908 147.731 334.322 150.182 333.272 154.075C332.42 157.234 331.319 158.848 329.43 161.519C327.743 163.903 326.615 165.153 324.387 167.042C321.627 169.382 319.646 170.123 316.463 171.845C312.551 173.96 310.37 175.285 306.137 176.647C300.014 178.618 296.085 180.213 289.808 178.809C286.528 178.074 284.732 177.232 281.884 175.447C279.625 174.031 278.514 172.981 276.601 171.124C272.548 167.192 270.475 164.524 268.196 159.358C265.396 153.01 263.965 148.633 265.315 141.828Z" fill="url(#paint33_linear_38_1246)"/>
<path d="M274.439 146.15C276.6 142.548 277.451 141.313 279.962 138.706C282.838 135.721 284.818 134.365 288.367 132.223C291.815 130.141 293.946 129.277 297.732 127.9C303.015 125.979 305.656 125.499 309.979 125.499C313.033 125.499 315.08 127.4 316.942 129.821C319.344 132.943 319.887 133.658 321.745 137.265C323.228 140.145 324.867 144.95 324.867 144.95C324.867 144.95 325.995 149.031 324.867 151.193C321.985 156.716 316.872 161.136 309.979 165.121C302.785 169.279 300.613 170.884 289.567 170.404C284.284 169.203 276.209 161.421 274.439 152.154C274.068 150.211 273.421 147.847 274.439 146.15Z" fill="url(#paint34_linear_38_1246)"/>
<path d="M284.765 134.385C288.244 131.792 290.624 130.572 294.611 128.862C298.482 127.201 300.756 126.257 304.936 125.74C306.428 125.556 308.779 125.5 308.779 125.5C308.779 125.5 299.846 134.851 296.772 142.309C293.381 150.537 293.65 164.882 293.65 164.882L283.565 165.842C283.565 165.842 274.631 150.508 276.121 144.23C276.601 142.207 277.962 140.657 279.723 138.707C281.454 136.789 282.694 135.929 284.765 134.385Z" fill="url(#paint35_linear_38_1246)"/>
<path fill-rule="evenodd" clip-rule="evenodd" d="M279.228 138.31C276.623 141.029 275.74 142.317 273.499 146.072C272.56 147.645 272.986 149.769 273.363 151.644C273.41 151.878 273.456 152.108 273.499 152.332C275.334 161.995 283.711 170.109 289.192 171.361C300.104 171.838 302.667 170.343 309.333 166.454L310.364 165.853C317.514 161.698 322.819 157.089 325.808 151.33C326.978 149.076 325.808 144.82 325.808 144.82C325.808 144.82 324.108 139.811 322.57 136.808C320.643 133.047 320.079 132.301 317.588 129.046C315.656 126.521 313.533 124.539 310.364 124.539C305.88 124.539 303.14 125.04 297.66 127.043C293.734 128.478 291.523 129.379 287.946 131.55C284.265 133.784 282.211 135.197 279.228 138.31ZM279.962 138.707C277.45 141.314 276.6 142.549 274.438 146.151C273.534 147.659 273.945 149.695 274.308 151.494C274.353 151.718 274.397 151.939 274.438 152.154C276.209 161.421 284.284 169.204 289.567 170.404C300.087 170.862 302.558 169.428 308.984 165.698C309.305 165.511 309.636 165.319 309.978 165.121C316.871 161.137 321.985 156.717 324.866 151.194C325.994 149.032 324.866 144.95 324.866 144.95C324.866 144.95 323.227 140.146 321.744 137.266C319.887 133.659 319.343 132.944 316.942 129.822C315.079 127.401 313.033 125.5 309.978 125.5C305.656 125.5 303.014 125.98 297.731 127.901C293.946 129.277 291.815 130.141 288.366 132.223C284.818 134.366 282.837 135.721 279.962 138.707Z" fill="url(#paint36_linear_38_1246)"/>
<path d="M382.99 260.423C385.01 258.519 387.268 254.644 387.268 254.644C387.268 254.644 386.792 256.147 386.412 257.077C385.535 259.225 384.742 260.226 382.99 261.639C381.245 263.047 378.143 263.769 378.143 263.769C378.143 263.769 381.3 262.015 382.99 260.423Z" fill="#AC7341"/>
<g filter="url(#filter2_d_38_1246)">
<path d="M509.478 420.48V383.793H430.073L422.283 363.942L479.324 234.028H523.55L473.796 346.854H509.478V315.193L517.771 292.326H552.95V346.854H569.786V377.008L552.95 383.793V420.48H509.478Z" fill="#06B6D4"/>
</g>
<defs>
<filter id="filter0_d_38_1246" x="236.935" y="233.409" width="209.973" height="201.849" filterUnits="userSpaceOnUse" color-interpolation-filters="sRGB">
<feFlood flood-opacity="0" result="BackgroundImageFix"/>
<feColorMatrix in="SourceAlpha" type="matrix" values="0 0 0 0 0 0 0 0 0 0 0 0 0 0 0 0 0 0 127 0" result="hardAlpha"/>
<feOffset dx="-7.82533"/>
<feGaussianBlur stdDeviation="2.23581"/>
<feColorMatrix type="matrix" values="0 0 0 0 0 0 0 0 0 0 0 0 0 0 0 0 0 0 0.4 0"/>
<feBlend mode="normal" in2="BackgroundImageFix" result="effect1_dropShadow_38_1246"/>
<feBlend mode="normal" in="SourceGraphic" in2="effect1_dropShadow_38_1246" result="shape"/>
</filter>
<filter id="filter1_f_38_1246" x="327.36" y="127.751" width="13.7655" height="19.5087" filterUnits="userSpaceOnUse" color-interpolation-filters="sRGB">
<feFlood flood-opacity="0" result="BackgroundImageFix"/>
<feBlend mode="normal" in="SourceGraphic" in2="BackgroundImageFix" result="shape"/>
<feGaussianBlur stdDeviation="2.23581" result="effect1_foregroundBlur_38_1246"/>
</filter>
<filter id="filter2_d_38_1246" x="409.986" y="229.557" width="159.801" height="195.395" filterUnits="userSpaceOnUse" color-interpolation-filters="sRGB">
<feFlood flood-opacity="0" result="BackgroundImageFix"/>
<feColorMatrix in="SourceAlpha" type="matrix" values="0 0 0 0 0 0 0 0 0 0 0 0 0 0 0 0 0 0 127 0" result="hardAlpha"/>
<feOffset dx="-7.82533"/>
<feGaussianBlur stdDeviation="2.23581"/>
<feColorMatrix type="matrix" values="0 0 0 0 0 0 0 0 0 0 0 0 0 0 0 0 0 0 0.4 0"/>
<feBlend mode="normal" in2="BackgroundImageFix" result="effect1_dropShadow_38_1246"/>
<feBlend mode="normal" in="SourceGraphic" in2="effect1_dropShadow_38_1246" result="shape"/>
</filter>
<linearGradient id="paint0_linear_38_1246" x1="644.033" y1="115.688" x2="681.129" y2="81.1071" gradientUnits="userSpaceOnUse">
<stop stop-color="#F67C01"/>
<stop offset="1" stop-color="#BB5E00"/>
</linearGradient>
<linearGradient id="paint1_linear_38_1246" x1="705.946" y1="25.546" x2="741.591" y2="63.112" gradientUnits="userSpaceOnUse">
<stop offset="0.213542" stop-color="#D2CECE"/>
<stop offset="1" stop-color="#393535"/>
</linearGradient>
<linearGradient id="paint2_linear_38_1246" x1="705.946" y1="25.546" x2="741.591" y2="63.112" gradientUnits="userSpaceOnUse">
<stop offset="0.213542" stop-color="#D2CECE"/>
<stop offset="1" stop-color="#393535"/>
</linearGradient>
<linearGradient id="paint3_linear_38_1246" x1="692.884" y1="87.0182" x2="709.964" y2="105.019" gradientUnits="userSpaceOnUse">
<stop stop-color="#404040"/>
<stop offset="1"/>
</linearGradient>
<linearGradient id="paint4_linear_38_1246" x1="677.29" y1="70.5833" x2="658.725" y2="51.0177" gradientUnits="userSpaceOnUse">
<stop/>
<stop offset="1" stop-color="#7A7A7A"/>
</linearGradient>
<linearGradient id="paint5_linear_38_1246" x1="744.755" y1="0.618259" x2="767.776" y2="24.8796" gradientUnits="userSpaceOnUse">
<stop stop-color="#8C8B8B"/>
<stop offset="1"/>
</linearGradient>
<linearGradient id="paint6_linear_38_1246" x1="665.168" y1="67.2131" x2="696.357" y2="100.083" gradientUnits="userSpaceOnUse">
<stop offset="0.1875" stop-color="white"/>
<stop offset="1" stop-color="#393535"/>
</linearGradient>
<linearGradient id="paint7_linear_38_1246" x1="737.912" y1="-0.324564" x2="769.102" y2="32.5457" gradientUnits="userSpaceOnUse">
<stop offset="0.135417" stop-color="white"/>
<stop offset="1" stop-color="#393535"/>
</linearGradient>
<linearGradient id="paint8_linear_38_1246" x1="738.437" y1="37.8464" x2="728.783" y2="27.6723" gradientUnits="userSpaceOnUse">
<stop offset="0.0885417" stop-color="#212121"/>
<stop offset="1" stop-color="#606060"/>
</linearGradient>
<linearGradient id="paint9_linear_38_1246" x1="311.811" y1="245.987" x2="389.099" y2="422.68" gradientUnits="userSpaceOnUse">
<stop stop-color="#06B6D4"/>
<stop offset="1" stop-color="#001434"/>
</linearGradient>
<linearGradient id="paint10_linear_38_1246" x1="292.535" y1="298.497" x2="304.428" y2="325.679" gradientUnits="userSpaceOnUse">
<stop stop-color="#06B6D4"/>
<stop offset="1" stop-color="#3B82F6"/>
</linearGradient>
<linearGradient id="paint11_linear_38_1246" x1="395.051" y1="265.33" x2="400.184" y2="274.229" gradientUnits="userSpaceOnUse">
<stop stop-color="#06B6D4"/>
<stop offset="1" stop-color="#3B82F6"/>
</linearGradient>
<linearGradient id="paint12_linear_38_1246" x1="428.869" y1="341.67" x2="439.498" y2="345.37" gradientUnits="userSpaceOnUse">
<stop stop-color="#2E0508"/>
<stop offset="1" stop-color="#7D060D"/>
</linearGradient>
<linearGradient id="paint13_linear_38_1246" x1="339.562" y1="239.279" x2="340.248" y2="245.274" gradientUnits="userSpaceOnUse">
<stop stop-color="#420609"/>
<stop offset="1" stop-color="#DF131E"/>
</linearGradient>
<linearGradient id="paint14_linear_38_1246" x1="356.904" y1="374.651" x2="364.407" y2="413.72" gradientUnits="userSpaceOnUse">
<stop stop-color="#06B6D4"/>
<stop offset="1" stop-color="#3B82F6"/>
</linearGradient>
<linearGradient id="paint15_linear_38_1246" x1="261.393" y1="382.553" x2="252.121" y2="347.32" gradientUnits="userSpaceOnUse">
<stop stop-color="white"/>
<stop offset="1" stop-color="#999999"/>
</linearGradient>
<linearGradient id="paint16_linear_38_1246" x1="264.621" y1="381.57" x2="254.779" y2="346.473" gradientUnits="userSpaceOnUse">
<stop stop-color="#3B82F6"/>
<stop offset="1" stop-color="#06B6D4"/>
</linearGradient>
<linearGradient id="paint17_linear_38_1246" x1="368.948" y1="427.366" x2="331.956" y2="429.244" gradientUnits="userSpaceOnUse">
<stop stop-color="white"/>
<stop offset="1" stop-color="#999999"/>
</linearGradient>
<linearGradient id="paint18_linear_38_1246" x1="369.105" y1="425.144" x2="331.979" y2="425.136" gradientUnits="userSpaceOnUse">
<stop stop-color="#3B82F6"/>
<stop offset="1" stop-color="#001434" stop-opacity="0.65"/>
</linearGradient>
<linearGradient id="paint19_linear_38_1246" x1="431.997" y1="388.116" x2="444.978" y2="360.301" gradientUnits="userSpaceOnUse">
<stop stop-color="#380103"/>
<stop offset="1" stop-color="#470205"/>
</linearGradient>
<linearGradient id="paint20_linear_38_1246" x1="429.287" y1="386.883" x2="442.159" y2="359.016" gradientUnits="userSpaceOnUse">
<stop stop-color="#380103"/>
<stop offset="1" stop-color="#470205"/>
</linearGradient>
<linearGradient id="paint21_linear_38_1246" x1="420.871" y1="263.873" x2="433.852" y2="280.563" gradientUnits="userSpaceOnUse">
<stop stop-color="white"/>
<stop offset="1" stop-color="#999999"/>
</linearGradient>
<linearGradient id="paint22_linear_38_1246" x1="419.388" y1="264.884" x2="431.941" y2="281.932" gradientUnits="userSpaceOnUse">
<stop stop-color="#06B6D4"/>
<stop offset="1" stop-color="#3B82F6"/>
</linearGradient>
<linearGradient id="paint23_linear_38_1246" x1="322.988" y1="163.874" x2="290.57" y2="181.644" gradientUnits="userSpaceOnUse">
<stop stop-color="#778186"/>
<stop offset="1" stop-color="#474B4C"/>
</linearGradient>
<linearGradient id="paint24_linear_38_1246" x1="323.468" y1="165.314" x2="292.251" y2="182.124" gradientUnits="userSpaceOnUse">
<stop stop-color="#C1C1C1"/>
<stop offset="1" stop-color="#929292"/>
</linearGradient>
<linearGradient id="paint25_linear_38_1246" x1="355.886" y1="164.114" x2="326.59" y2="320.92" gradientUnits="userSpaceOnUse">
<stop stop-color="#D4853F"/>
<stop offset="1" stop-color="#D79962"/>
</linearGradient>
<linearGradient id="paint26_linear_38_1246" x1="355.886" y1="164.114" x2="326.59" y2="320.92" gradientUnits="userSpaceOnUse">
<stop stop-color="#A25D21"/>
<stop offset="1" stop-color="#D79962"/>
</linearGradient>
<linearGradient id="paint27_linear_38_1246" x1="355.886" y1="164.114" x2="326.59" y2="320.92" gradientUnits="userSpaceOnUse">
<stop stop-color="#995316"/>
<stop offset="1" stop-color="#D79962"/>
</linearGradient>
<linearGradient id="paint28_linear_38_1246" x1="332.353" y1="211.18" x2="336.676" y2="209.019" gradientUnits="userSpaceOnUse">
<stop stop-color="#6A4222"/>
<stop offset="1" stop-color="#D58947"/>
</linearGradient>
<linearGradient id="paint29_linear_38_1246" x1="308.341" y1="179.242" x2="309.782" y2="183.804" gradientUnits="userSpaceOnUse">
<stop stop-color="#D48845"/>
<stop offset="1" stop-color="#4E3219"/>
</linearGradient>
<linearGradient id="paint30_linear_38_1246" x1="329.713" y1="168.916" x2="332.834" y2="168.676" gradientUnits="userSpaceOnUse">
<stop stop-color="#D48641" stop-opacity="0"/>
<stop offset="1" stop-color="#4E3219"/>
</linearGradient>
<linearGradient id="paint31_linear_38_1246" x1="298.016" y1="199.654" x2="299.62" y2="214.816" gradientUnits="userSpaceOnUse">
<stop stop-color="#D58A49"/>
<stop offset="1" stop-color="#281709"/>
</linearGradient>
<linearGradient id="paint32_linear_38_1246" x1="263.841" y1="134.097" x2="320.752" y2="143.222" gradientUnits="userSpaceOnUse">
<stop stop-color="#9F9F9F"/>
<stop offset="1" stop-color="#787877"/>
</linearGradient>
<linearGradient id="paint33_linear_38_1246" x1="264.801" y1="142.742" x2="308.745" y2="143.942" gradientUnits="userSpaceOnUse">
<stop stop-color="#CBCBCB"/>
<stop offset="1" stop-color="#828380"/>
</linearGradient>
<linearGradient id="paint34_linear_38_1246" x1="275.4" y1="148.552" x2="324.386" y2="149.752" gradientUnits="userSpaceOnUse">
<stop stop-color="#1B0A5D"/>
<stop offset="0.390625" stop-color="#1B0A5D"/>
<stop offset="0.970597" stop-color="#010005"/>
</linearGradient>
<linearGradient id="paint35_linear_38_1246" x1="309.019" y1="128.141" x2="283.084" y2="146.872" gradientUnits="userSpaceOnUse">
<stop stop-color="#FFF9FF" stop-opacity="0.36"/>
<stop offset="1" stop-color="#1B0A5D" stop-opacity="0"/>
</linearGradient>
<linearGradient id="paint36_linear_38_1246" x1="272.964" y1="148.025" x2="326.274" y2="148.025" gradientUnits="userSpaceOnUse">
<stop stop-color="#5B5C59"/>
<stop offset="1" stop-color="#3F403E"/>
</linearGradient>
</defs>
</svg>
